{"glyphs":{"0":{"ha":939,"x_min":76,"x_max":863,"o":"m 469 -12 q 300 30 374 -12 q 177 145 226 72 q 102 314 128 218 q 76 515 76 410 q 102 717 76 622 q 177 886 128 813 q 300 1001 226 960 q 469 1043 374 1043 q 639 1001 565 1043 q 762 886 713 960 q 837 717 811 813 q 863 515 863 622 q 837 314 863 410 q 762 145 811 218 q 639 30 713 72 q 469 -12 565 -12 m 469 113 q 651 215 579 113 q 722 515 722 317 q 651 815 722 714 q 469 917 579 917 q 288 815 360 917 q 217 515 217 714 q 288 215 217 318 q 469 113 360 113 z "},"1":{"ha":535,"x_min":56,"x_max":382,"o":"m 382 1028 l 382 0 l 249 0 l 249 797 l 56 796 l 56 874 l 90 885 q 209 936 164 908 q 293 1013 254 964 l 306 1028 l 382 1028 z "},"2":{"ha":904,"x_min":107,"x_max":814,"o":"m 113 0 l 113 96 l 338 304 q 503 458 432 392 q 615 586 575 524 q 656 724 656 649 q 626 829 656 786 q 549 895 596 872 q 453 918 503 918 q 346 896 388 918 q 282 841 304 874 q 250 776 260 808 q 239 721 240 743 q 238 699 238 699 l 107 699 q 108 724 107 699 q 119 788 110 749 q 149 870 128 826 q 208 953 169 914 q 306 1017 246 992 q 454 1042 367 1042 q 620 1005 543 1042 q 744 898 697 968 q 792 726 792 828 q 745 558 792 633 q 622 410 699 482 q 456 254 546 338 l 314 124 l 814 124 l 814 0 l 113 0 z "},"3":{"ha":917,"x_min":97,"x_max":807,"o":"m 451 -14 q 280 21 361 -14 q 148 127 199 56 q 97 308 97 199 l 226 308 q 259 192 226 238 q 344 124 292 146 q 451 101 396 101 q 561 124 511 101 q 642 192 611 147 q 672 299 672 236 q 618 428 672 381 q 474 476 564 476 l 335 476 l 335 583 l 474 583 q 602 628 549 583 q 656 749 656 672 q 627 844 656 804 q 552 906 599 883 q 451 928 506 928 q 352 905 400 928 q 274 836 304 882 q 243 719 243 790 l 117 719 q 166 899 117 828 q 292 1006 215 971 q 454 1042 369 1042 q 616 1008 540 1042 q 739 910 692 974 q 786 760 786 847 q 744 619 786 676 q 639 536 703 561 l 639 529 q 760 444 713 504 q 807 294 807 385 q 757 129 807 199 q 626 23 707 60 q 451 -14 546 -14 z "},"4":{"ha":986,"x_min":76,"x_max":894,"o":"m 579 0 l 579 239 l 76 240 l 76 364 l 549 1028 l 715 1028 l 715 357 l 894 357 l 894 239 l 715 239 l 715 0 l 579 0 m 217 357 l 579 357 l 579 868 l 217 357 z "},"5":{"ha":917,"x_min":89,"x_max":822,"o":"m 451 -14 q 302 9 364 -14 q 201 68 240 32 q 138 144 161 104 q 105 221 115 185 q 92 280 94 257 q 89 303 89 303 l 217 303 q 219 283 217 303 q 234 233 222 263 q 271 173 246 203 q 340 123 296 143 q 451 103 383 103 q 585 138 532 103 q 664 226 638 172 q 690 340 690 281 q 664 458 690 401 q 585 549 638 514 q 457 585 533 585 q 357 565 397 585 q 294 521 317 546 q 261 476 271 496 q 251 457 251 457 l 118 457 l 199 1028 l 751 1028 l 751 907 l 300 907 l 258 613 l 263 613 q 305 651 279 631 q 372 685 331 671 q 476 700 414 700 q 667 648 590 700 q 783 515 743 596 q 822 343 822 433 q 799 213 822 276 q 731 98 776 149 q 615 17 685 47 q 451 -14 546 -14 z "},"6":{"ha":944,"x_min":104,"x_max":840,"o":"m 489 -14 q 317 24 390 -14 q 197 127 244 61 q 127 278 150 193 q 104 456 104 363 q 121 614 104 532 q 173 772 138 696 q 267 909 208 849 q 410 1006 326 969 q 607 1042 494 1042 q 688 1037 651 1042 q 747 1026 725 1032 q 769 1021 769 1021 l 769 896 q 744 901 769 896 q 681 912 719 907 q 604 917 643 917 q 459 891 519 917 q 358 823 399 865 q 292 731 317 781 q 257 634 268 682 q 244 551 246 586 q 283 597 254 568 q 365 650 313 626 q 500 674 418 674 q 689 624 614 674 q 802 497 764 575 q 840 333 840 419 q 801 167 840 247 q 685 37 763 88 q 489 -14 607 -14 m 486 103 q 592 128 542 103 q 676 203 643 153 q 708 329 708 254 q 676 456 708 406 q 592 532 643 507 q 486 557 542 557 q 380 532 431 557 q 297 456 329 507 q 264 329 264 406 q 297 203 264 254 q 380 128 329 153 q 486 103 431 103 z "},"7":{"ha":825,"x_min":76,"x_max":783,"o":"m 251 0 q 286 253 256 133 q 363 478 317 374 q 458 666 408 582 q 553 811 508 750 q 628 907 599 872 l 76 907 l 76 1028 l 783 1028 l 783 926 q 756 895 783 926 q 684 806 728 864 q 591 665 640 747 q 497 478 542 582 q 421 255 451 375 q 385 0 390 135 l 251 0 z "},"8":{"ha":881,"x_min":83,"x_max":797,"o":"m 440 -14 q 252 26 332 -14 q 128 133 172 65 q 83 285 83 200 q 110 409 83 360 q 172 488 136 458 q 233 531 207 518 q 260 543 260 543 l 260 550 q 238 560 260 550 q 185 596 215 571 q 133 663 156 621 q 111 765 111 704 q 151 907 111 844 q 266 1006 192 969 q 440 1042 340 1042 q 615 1006 540 1042 q 729 907 689 969 q 769 765 769 844 q 747 663 769 704 q 695 596 725 621 q 643 560 665 571 q 621 550 621 550 l 621 543 q 647 531 621 543 q 709 488 674 518 q 771 409 744 458 q 797 285 797 360 q 753 133 797 200 q 628 26 708 65 q 440 -14 549 -14 m 440 596 q 551 621 507 596 q 618 685 596 646 q 640 764 640 724 q 618 846 640 807 q 551 909 596 885 q 440 933 507 933 q 330 909 375 933 q 263 846 285 885 q 240 764 240 807 q 263 685 240 724 q 330 621 285 646 q 440 596 375 596 m 440 96 q 566 125 515 96 q 642 201 617 154 q 668 297 668 247 q 643 390 668 346 q 567 462 618 433 q 440 490 517 490 q 313 462 364 490 q 238 390 263 433 q 213 297 213 346 q 238 201 213 247 q 315 125 264 154 q 440 96 365 96 z "},"9":{"ha":944,"x_min":104,"x_max":840,"o":"m 456 1042 q 627 1004 554 1042 q 747 901 700 967 q 817 751 794 835 q 840 572 840 667 q 824 414 840 496 q 772 256 807 332 q 677 119 736 179 q 534 22 618 58 q 338 -14 450 -14 q 257 -8 294 -14 q 197 2 219 -3 q 175 7 175 7 l 175 132 q 200 127 175 132 q 263 117 225 122 q 340 111 301 111 q 485 137 425 111 q 587 205 546 163 q 652 297 628 247 q 688 394 676 346 q 700 476 699 442 q 661 431 690 460 q 579 378 632 401 q 444 354 526 354 q 256 403 332 354 q 142 531 181 453 q 104 694 104 610 q 143 861 104 782 q 260 991 182 940 q 456 1042 339 1042 m 458 925 q 352 900 403 925 q 269 825 301 875 q 236 699 236 775 q 269 572 236 622 q 352 496 301 521 q 458 471 403 471 q 565 496 514 471 q 648 572 615 521 q 681 699 681 622 q 648 825 681 775 q 565 900 615 875 q 458 925 514 925 z "},"A":{"ha":1022,"x_min":63,"x_max":960,"o":"m 63 0 l 425 1028 l 596 1028 l 960 0 l 815 0 l 729 246 l 293 246 l 207 0 l 63 0 m 335 368 l 688 368 l 511 872 l 335 368 z "},"Á":{"ha":1022,"x_min":63,"x_max":960,"o":"m 567 1139 l 454 1140 l 574 1390 l 710 1390 l 567 1139 m 63 0 l 425 1028 l 596 1028 l 960 0 l 815 0 l 729 246 l 293 246 l 207 0 l 63 0 m 335 368 l 688 368 l 511 872 l 335 368 z "},"Ă":{"ha":1022,"x_min":63,"x_max":960,"o":"m 511 1132 q 404 1152 446 1132 q 339 1201 363 1172 q 305 1260 315 1231 q 292 1309 294 1289 q 289 1329 289 1329 l 388 1329 q 391 1313 388 1329 q 406 1274 394 1296 q 442 1236 417 1253 q 511 1219 468 1219 q 581 1236 556 1219 q 617 1274 606 1253 q 631 1313 628 1296 q 635 1329 635 1329 l 733 1329 q 731 1309 733 1329 q 717 1260 728 1289 q 683 1201 707 1231 q 618 1152 660 1172 q 511 1132 576 1132 m 63 0 l 425 1028 l 596 1028 l 960 0 l 815 0 l 729 246 l 293 246 l 207 0 l 63 0 m 335 368 l 688 368 l 511 872 l 335 368 z "},"Ắ":{"ha":1022,"x_min":63,"x_max":960,"o":"m 567 1368 l 454 1369 l 574 1619 l 710 1619 l 567 1368 m 511 1132 q 404 1152 446 1132 q 339 1201 363 1172 q 305 1260 315 1231 q 292 1309 294 1289 q 289 1329 289 1329 l 388 1329 q 391 1313 388 1329 q 406 1274 394 1296 q 442 1236 417 1253 q 511 1219 468 1219 q 581 1236 556 1219 q 617 1274 606 1253 q 631 1313 628 1296 q 635 1329 635 1329 l 733 1329 q 731 1309 733 1329 q 717 1260 728 1289 q 683 1201 707 1231 q 618 1152 660 1172 q 511 1132 576 1132 m 63 0 l 425 1028 l 596 1028 l 960 0 l 815 0 l 729 246 l 293 246 l 207 0 l 63 0 m 335 368 l 688 368 l 511 872 l 335 368 z "},"Ặ":{"ha":1022,"x_min":63,"x_max":960,"o":"m 511 1132 q 404 1152 446 1132 q 339 1201 363 1172 q 305 1260 315 1231 q 292 1309 294 1289 q 289 1329 289 1329 l 388 1329 q 391 1313 388 1329 q 406 1274 394 1296 q 442 1236 417 1253 q 511 1219 468 1219 q 581 1236 556 1219 q 617 1274 606 1253 q 631 1313 628 1296 q 635 1329 635 1329 l 733 1329 q 731 1309 733 1329 q 717 1260 728 1289 q 683 1201 707 1231 q 618 1152 660 1172 q 511 1132 576 1132 m 63 0 l 425 1028 l 596 1028 l 960 0 l 815 0 l 729 246 l 293 246 l 207 0 l 63 0 m 335 368 l 688 368 l 511 872 l 335 368 m 511 -315 q 447 -288 472 -315 q 421 -225 421 -261 q 447 -161 421 -187 q 511 -135 472 -135 q 576 -161 550 -135 q 601 -225 601 -187 q 576 -289 601 -262 q 511 -315 550 -315 z "},"Ằ":{"ha":1022,"x_min":63,"x_max":960,"o":"m 458 1368 l 315 1619 l 451 1619 l 571 1369 l 458 1368 m 508 1132 q 401 1152 443 1132 q 336 1201 360 1172 q 302 1260 313 1231 q 289 1309 292 1289 q 286 1329 286 1329 l 385 1329 q 388 1313 385 1329 q 403 1274 392 1296 q 440 1236 414 1253 q 508 1219 465 1219 q 578 1236 553 1219 q 614 1274 603 1253 q 628 1313 625 1296 q 632 1329 632 1329 l 731 1329 q 728 1309 731 1329 q 715 1260 725 1289 q 681 1201 704 1231 q 615 1152 657 1172 q 508 1132 574 1132 m 63 0 l 425 1028 l 596 1028 l 960 0 l 815 0 l 729 246 l 293 246 l 207 0 l 63 0 m 335 368 l 688 368 l 511 872 l 335 368 z "},"Ẳ":{"ha":1022,"x_min":63,"x_max":960,"o":"m 464 1358 l 464 1403 q 469 1431 464 1417 q 492 1453 475 1444 l 511 1463 q 575 1533 575 1494 q 560 1569 575 1553 q 514 1585 546 1585 q 473 1573 486 1585 q 456 1547 460 1561 q 451 1525 451 1533 l 360 1525 q 376 1592 360 1560 q 426 1644 392 1624 q 513 1665 460 1665 q 628 1627 586 1665 q 671 1536 671 1589 q 644 1463 671 1497 q 560 1401 618 1429 l 554 1399 l 554 1358 l 464 1358 m 508 1132 q 401 1152 443 1132 q 336 1201 360 1172 q 302 1260 313 1231 q 289 1309 292 1289 q 286 1329 286 1329 l 385 1329 q 388 1313 385 1329 q 403 1274 392 1296 q 440 1236 414 1253 q 508 1219 465 1219 q 578 1236 553 1219 q 614 1274 603 1253 q 628 1313 625 1296 q 632 1329 632 1329 l 731 1329 q 728 1309 731 1329 q 715 1260 725 1289 q 681 1201 704 1231 q 615 1152 657 1172 q 508 1132 574 1132 m 63 0 l 425 1028 l 596 1028 l 960 0 l 815 0 l 729 246 l 293 246 l 207 0 l 63 0 m 335 368 l 688 368 l 511 872 l 335 368 z "},"Ẵ":{"ha":1022,"x_min":63,"x_max":960,"o":"m 606 1392 q 542 1406 568 1392 q 498 1438 517 1419 q 463 1469 479 1456 q 426 1483 446 1483 q 392 1460 403 1483 q 382 1400 382 1438 l 293 1400 q 303 1484 293 1443 q 342 1552 314 1525 q 418 1579 369 1579 q 482 1565 456 1579 q 527 1534 508 1551 q 563 1503 546 1517 q 597 1489 579 1489 q 630 1511 619 1489 q 640 1572 640 1533 l 729 1572 q 719 1488 729 1529 q 681 1419 708 1446 q 606 1392 654 1392 m 511 1132 q 404 1152 446 1132 q 339 1201 363 1172 q 305 1260 315 1231 q 292 1309 294 1289 q 289 1329 289 1329 l 388 1329 q 391 1313 388 1329 q 406 1274 394 1296 q 442 1236 417 1253 q 511 1219 468 1219 q 581 1236 556 1219 q 617 1274 606 1253 q 631 1313 628 1296 q 635 1329 635 1329 l 733 1329 q 731 1309 733 1329 q 717 1260 728 1289 q 683 1201 707 1231 q 618 1152 660 1172 q 511 1132 576 1132 m 63 0 l 425 1028 l 596 1028 l 960 0 l 815 0 l 729 246 l 293 246 l 207 0 l 63 0 m 335 368 l 688 368 l 511 872 l 335 368 z "},"Â":{"ha":1022,"x_min":63,"x_max":960,"o":"m 288 1133 l 456 1338 l 568 1338 l 736 1133 l 617 1133 l 511 1261 l 407 1133 l 288 1133 m 63 0 l 425 1028 l 596 1028 l 960 0 l 815 0 l 729 246 l 293 246 l 207 0 l 63 0 m 335 368 l 688 368 l 511 872 l 335 368 z "},"Ấ":{"ha":1022,"x_min":63,"x_max":960,"o":"m 779 1311 l 667 1313 l 786 1563 l 922 1563 l 779 1311 m 288 1133 l 456 1338 l 568 1338 l 736 1133 l 617 1133 l 511 1261 l 407 1133 l 288 1133 m 63 0 l 425 1028 l 596 1028 l 960 0 l 815 0 l 729 246 l 293 246 l 207 0 l 63 0 m 335 368 l 688 368 l 511 872 l 335 368 z "},"Ậ":{"ha":1022,"x_min":63,"x_max":960,"o":"m 288 1133 l 456 1338 l 568 1338 l 736 1133 l 617 1133 l 511 1261 l 407 1133 l 288 1133 m 63 0 l 425 1028 l 596 1028 l 960 0 l 815 0 l 729 246 l 293 246 l 207 0 l 63 0 m 335 368 l 688 368 l 511 872 l 335 368 m 511 -315 q 447 -288 472 -315 q 421 -225 421 -261 q 447 -161 421 -187 q 511 -135 472 -135 q 576 -161 550 -135 q 601 -225 601 -187 q 576 -289 601 -262 q 511 -315 550 -315 z "},"Ầ":{"ha":1022,"x_min":63,"x_max":960,"o":"m 701 1311 l 558 1563 l 694 1563 l 814 1313 l 701 1311 m 288 1133 l 456 1338 l 568 1338 l 736 1133 l 617 1133 l 511 1261 l 407 1133 l 288 1133 m 63 0 l 425 1028 l 596 1028 l 960 0 l 815 0 l 729 246 l 293 246 l 207 0 l 63 0 m 335 368 l 688 368 l 511 872 l 335 368 z "},"Ẩ":{"ha":1022,"x_min":63,"x_max":960,"o":"m 679 1301 l 679 1346 q 685 1374 679 1360 q 707 1396 690 1388 l 726 1406 q 790 1476 790 1438 q 776 1512 790 1496 q 729 1528 761 1528 q 688 1516 701 1528 q 671 1490 675 1504 q 667 1468 667 1476 l 575 1468 q 591 1535 575 1503 q 641 1588 607 1567 q 728 1608 675 1608 q 844 1570 801 1608 q 886 1479 886 1532 q 860 1406 886 1440 q 775 1344 833 1372 l 769 1342 l 769 1301 l 679 1301 m 288 1133 l 456 1338 l 568 1338 l 736 1133 l 617 1133 l 511 1261 l 407 1133 l 288 1133 m 63 0 l 425 1028 l 596 1028 l 960 0 l 815 0 l 729 246 l 293 246 l 207 0 l 63 0 m 335 368 l 688 368 l 511 872 l 335 368 z "},"Ẫ":{"ha":1022,"x_min":63,"x_max":960,"o":"m 606 1392 q 542 1406 568 1392 q 498 1438 517 1419 q 463 1469 479 1456 q 426 1483 446 1483 q 392 1460 403 1483 q 382 1400 382 1438 l 293 1400 q 303 1484 293 1443 q 342 1552 314 1525 q 418 1579 369 1579 q 482 1565 456 1579 q 527 1534 508 1551 q 563 1503 546 1517 q 597 1489 579 1489 q 630 1511 619 1489 q 640 1572 640 1533 l 729 1572 q 719 1488 729 1529 q 681 1419 708 1446 q 606 1392 654 1392 m 286 1133 l 454 1338 l 567 1338 l 735 1133 l 615 1133 l 510 1261 l 406 1133 l 286 1133 m 63 0 l 425 1028 l 596 1028 l 960 0 l 815 0 l 729 246 l 293 246 l 207 0 l 63 0 m 335 368 l 688 368 l 511 872 l 335 368 z "},"Ä":{"ha":1022,"x_min":63,"x_max":960,"o":"m 643 1140 q 581 1165 606 1140 q 557 1225 557 1190 q 581 1286 557 1261 q 643 1311 606 1311 q 704 1286 679 1311 q 729 1225 729 1261 q 704 1165 729 1190 q 643 1140 679 1140 m 379 1140 q 317 1165 342 1140 q 293 1225 293 1190 q 317 1286 293 1261 q 379 1311 342 1311 q 440 1286 415 1311 q 465 1225 465 1261 q 440 1165 465 1190 q 379 1140 415 1140 m 63 0 l 425 1028 l 596 1028 l 960 0 l 815 0 l 729 246 l 293 246 l 207 0 l 63 0 m 335 368 l 688 368 l 511 872 l 335 368 z "},"Ạ":{"ha":1022,"x_min":63,"x_max":960,"o":"m 63 0 l 425 1028 l 596 1028 l 960 0 l 815 0 l 729 246 l 293 246 l 207 0 l 63 0 m 335 368 l 688 368 l 511 872 l 335 368 m 511 -315 q 447 -288 472 -315 q 421 -225 421 -261 q 447 -161 421 -187 q 511 -135 472 -135 q 576 -161 550 -135 q 601 -225 601 -187 q 576 -289 601 -262 q 511 -315 550 -315 z "},"À":{"ha":1022,"x_min":63,"x_max":960,"o":"m 461 1139 l 318 1390 l 454 1390 l 574 1140 l 461 1139 m 63 0 l 425 1028 l 596 1028 l 960 0 l 815 0 l 729 246 l 293 246 l 207 0 l 63 0 m 335 368 l 688 368 l 511 872 l 335 368 z "},"Ả":{"ha":1022,"x_min":63,"x_max":960,"o":"m 467 1129 l 467 1174 q 472 1201 467 1188 q 494 1224 478 1215 l 514 1233 q 578 1304 578 1265 q 563 1340 578 1324 q 517 1356 549 1356 q 476 1344 489 1356 q 458 1318 463 1332 q 454 1296 454 1304 l 363 1296 q 378 1363 363 1331 q 428 1415 394 1394 q 515 1436 463 1436 q 631 1398 589 1436 q 674 1307 674 1360 q 647 1234 674 1268 q 563 1172 621 1200 l 557 1169 l 557 1129 l 467 1129 m 63 0 l 425 1028 l 596 1028 l 960 0 l 815 0 l 729 246 l 293 246 l 207 0 l 63 0 m 335 368 l 688 368 l 511 872 l 335 368 z "},"Ā":{"ha":1022,"x_min":63,"x_max":960,"o":"m 300 1161 l 300 1261 l 722 1261 l 722 1161 l 300 1161 m 63 0 l 425 1028 l 596 1028 l 960 0 l 815 0 l 729 246 l 293 246 l 207 0 l 63 0 m 335 368 l 688 368 l 511 872 l 335 368 z "},"Ą":{"ha":1022,"x_min":63,"x_max":1015,"o":"m 63 0 l 425 1028 l 596 1028 l 960 0 q 941 -10 960 0 q 903 -39 922 -19 q 885 -87 885 -58 q 905 -130 885 -112 q 964 -147 925 -147 q 999 -144 983 -147 q 1015 -140 1015 -140 l 1015 -228 q 994 -232 1015 -228 q 942 -236 974 -236 q 818 -199 860 -236 q 776 -111 776 -162 q 797 -44 776 -71 q 842 0 818 -17 l 815 0 l 729 246 l 293 246 l 207 0 l 63 0 m 335 368 l 688 368 l 511 872 l 335 368 z "},"Å":{"ha":1022,"x_min":63,"x_max":960,"o":"m 511 1128 q 422 1151 463 1128 q 356 1216 381 1175 q 332 1306 332 1257 q 356 1396 332 1356 q 422 1460 381 1436 q 511 1483 463 1483 q 600 1460 560 1483 q 665 1396 640 1436 q 689 1306 689 1356 q 665 1216 689 1257 q 600 1151 640 1175 q 511 1128 560 1128 m 511 1222 q 570 1247 546 1222 q 594 1306 594 1271 q 570 1365 594 1340 q 511 1389 546 1389 q 451 1365 476 1389 q 426 1306 426 1340 q 451 1247 426 1271 q 511 1222 476 1222 m 63 0 l 425 1028 l 596 1028 l 960 0 l 815 0 l 729 246 l 293 246 l 207 0 l 63 0 m 335 368 l 688 368 l 511 872 l 335 368 z "},"Ã":{"ha":1022,"x_min":63,"x_max":960,"o":"m 606 1149 q 542 1163 568 1149 q 498 1194 517 1176 q 463 1226 479 1213 q 426 1240 446 1240 q 392 1217 403 1240 q 382 1157 382 1194 l 293 1157 q 303 1241 293 1200 q 342 1309 314 1282 q 418 1336 369 1336 q 482 1322 456 1336 q 527 1291 508 1308 q 563 1260 546 1274 q 597 1246 579 1246 q 630 1268 619 1246 q 640 1329 640 1290 l 729 1329 q 719 1244 729 1286 q 681 1176 708 1203 q 606 1149 654 1149 m 63 0 l 425 1028 l 596 1028 l 960 0 l 815 0 l 729 246 l 293 246 l 207 0 l 63 0 m 335 368 l 688 368 l 511 872 l 335 368 z "},"Æ":{"ha":1417,"x_min":63,"x_max":1326,"o":"m 63 0 l 592 1028 l 1319 1028 l 1319 908 l 803 908 l 803 583 l 1256 583 l 1256 464 l 803 464 l 803 119 l 1326 119 l 1326 0 l 667 0 l 667 246 l 335 246 l 207 0 l 63 0 m 397 368 l 667 368 l 667 889 l 397 368 z "},"B":{"ha":936,"x_min":111,"x_max":860,"o":"m 111 0 l 111 1028 l 507 1028 q 676 992 606 1028 q 783 898 746 957 q 821 769 821 839 q 793 646 821 693 q 731 574 765 599 q 675 542 696 550 l 675 533 q 752 497 708 524 q 828 419 796 469 q 860 289 860 369 q 825 151 860 218 q 715 42 790 85 q 517 0 640 0 l 111 0 m 501 910 l 247 910 l 247 582 l 501 582 q 609 606 568 582 q 669 667 650 629 q 688 746 688 706 q 669 825 688 788 q 609 886 650 863 q 501 910 568 910 m 513 472 l 247 472 l 247 118 l 513 118 q 635 144 589 118 q 702 210 681 169 q 724 296 724 251 q 702 381 724 340 q 635 447 681 421 q 513 472 589 472 z "},"C":{"ha":1076,"x_min":76,"x_max":1000,"o":"m 563 -14 q 350 31 442 -14 q 198 152 258 76 q 107 322 138 228 q 76 514 76 415 q 107 707 76 613 q 198 877 138 801 q 350 997 258 953 q 563 1042 442 1042 q 734 1016 663 1042 q 853 950 806 990 q 931 864 901 910 q 976 778 961 818 q 995 712 990 738 q 1000 686 1000 686 l 864 686 q 858 709 864 686 q 836 766 853 732 q 786 835 819 800 q 699 892 753 869 q 564 915 644 915 q 411 881 476 915 q 302 790 346 847 q 237 660 258 732 q 215 514 215 589 q 237 367 215 439 q 302 238 258 296 q 411 147 346 181 q 564 113 476 113 q 699 136 644 113 q 786 194 753 160 q 836 262 819 228 q 858 319 853 296 q 864 343 864 343 l 1000 343 q 995 317 1000 343 q 976 251 990 292 q 931 165 961 210 q 853 78 901 119 q 734 12 806 38 q 563 -14 663 -14 z "},"Ć":{"ha":1076,"x_min":76,"x_max":1000,"o":"m 618 1139 l 506 1140 l 625 1390 l 761 1390 l 618 1139 m 563 -14 q 350 31 442 -14 q 198 152 258 76 q 107 322 138 228 q 76 514 76 415 q 107 707 76 613 q 198 877 138 801 q 350 997 258 953 q 563 1042 442 1042 q 734 1016 663 1042 q 853 950 806 990 q 931 864 901 910 q 976 778 961 818 q 995 712 990 738 q 1000 686 1000 686 l 864 686 q 858 709 864 686 q 836 766 853 732 q 786 835 819 800 q 699 892 753 869 q 564 915 644 915 q 411 881 476 915 q 302 790 346 847 q 237 660 258 732 q 215 514 215 589 q 237 367 215 439 q 302 238 258 296 q 411 147 346 181 q 564 113 476 113 q 699 136 644 113 q 786 194 753 160 q 836 262 819 228 q 858 319 853 296 q 864 343 864 343 l 1000 343 q 995 317 1000 343 q 976 251 990 292 q 931 165 961 210 q 853 78 901 119 q 734 12 806 38 q 563 -14 663 -14 z "},"Č":{"ha":1076,"x_min":76,"x_max":1000,"o":"m 507 1118 l 339 1350 l 458 1350 l 563 1201 l 668 1350 l 788 1350 l 619 1118 l 507 1118 m 563 -14 q 350 31 442 -14 q 198 152 258 76 q 107 322 138 228 q 76 514 76 415 q 107 707 76 613 q 198 877 138 801 q 350 997 258 953 q 563 1042 442 1042 q 734 1016 663 1042 q 853 950 806 990 q 931 864 901 910 q 976 778 961 818 q 995 712 990 738 q 1000 686 1000 686 l 864 686 q 858 709 864 686 q 836 766 853 732 q 786 835 819 800 q 699 892 753 869 q 564 915 644 915 q 411 881 476 915 q 302 790 346 847 q 237 660 258 732 q 215 514 215 589 q 237 367 215 439 q 302 238 258 296 q 411 147 346 181 q 564 113 476 113 q 699 136 644 113 q 786 194 753 160 q 836 262 819 228 q 858 319 853 296 q 864 343 864 343 l 1000 343 q 995 317 1000 343 q 976 251 990 292 q 931 165 961 210 q 853 78 901 119 q 734 12 806 38 q 563 -14 663 -14 z "},"Ç":{"ha":1076,"x_min":76,"x_max":1000,"o":"m 544 -360 q 479 -356 511 -360 q 447 -351 447 -351 l 447 -271 q 479 -275 447 -271 q 539 -279 511 -279 q 620 -256 599 -279 q 642 -208 642 -232 q 623 -167 642 -185 q 568 -149 604 -149 q 512 -162 533 -149 q 490 -175 490 -175 l 439 -124 l 507 -11 q 319 48 400 0 q 184 169 238 96 q 103 332 131 243 q 76 514 76 421 q 107 707 76 613 q 198 877 138 801 q 350 997 258 953 q 563 1042 442 1042 q 734 1016 663 1042 q 853 950 806 990 q 931 864 901 910 q 976 778 961 818 q 995 712 990 738 q 1000 686 1000 686 l 864 686 q 858 709 864 686 q 836 766 853 732 q 786 835 819 800 q 699 892 753 869 q 564 915 644 915 q 411 881 476 915 q 302 790 346 847 q 237 660 258 732 q 215 514 215 589 q 237 367 215 439 q 302 238 258 296 q 411 147 346 181 q 564 113 476 113 q 699 136 644 113 q 786 194 753 160 q 836 262 819 228 q 858 319 853 296 q 864 343 864 343 l 1000 343 q 995 319 1000 343 q 977 256 990 294 q 937 173 964 217 q 865 88 910 129 q 756 19 821 47 q 599 -12 690 -8 l 543 -100 q 597 -93 568 -93 q 698 -124 663 -93 q 733 -207 733 -154 q 714 -278 733 -243 q 653 -337 694 -314 q 544 -360 613 -360 z "},"Ċ":{"ha":1076,"x_min":76,"x_max":1000,"o":"m 563 1168 q 501 1193 525 1168 q 476 1253 476 1218 q 501 1314 476 1289 q 563 1339 525 1339 q 624 1314 599 1339 q 649 1253 649 1289 q 624 1193 649 1218 q 563 1168 599 1168 m 563 -14 q 350 31 442 -14 q 198 152 258 76 q 107 322 138 228 q 76 514 76 415 q 107 707 76 613 q 198 877 138 801 q 350 997 258 953 q 563 1042 442 1042 q 734 1016 663 1042 q 853 950 806 990 q 931 864 901 910 q 976 778 961 818 q 995 712 990 738 q 1000 686 1000 686 l 864 686 q 858 709 864 686 q 836 766 853 732 q 786 835 819 800 q 699 892 753 869 q 564 915 644 915 q 411 881 476 915 q 302 790 346 847 q 237 660 258 732 q 215 514 215 589 q 237 367 215 439 q 302 238 258 296 q 411 147 346 181 q 564 113 476 113 q 699 136 644 113 q 786 194 753 160 q 836 262 819 228 q 858 319 853 296 q 864 343 864 343 l 1000 343 q 995 317 1000 343 q 976 251 990 292 q 931 165 961 210 q 853 78 901 119 q 734 12 806 38 q 563 -14 663 -14 z "},"D":{"ha":1011,"x_min":111,"x_max":935,"o":"m 111 0 l 111 1028 l 444 1028 q 660 984 568 1028 q 813 867 751 940 q 904 701 874 793 q 935 514 935 610 q 904 326 935 418 q 813 161 874 235 q 660 44 751 88 q 444 0 568 0 l 111 0 m 439 908 l 247 908 l 247 119 l 439 119 q 597 153 529 119 q 709 242 664 186 q 776 369 754 299 q 799 514 799 440 q 776 658 799 588 q 709 785 754 729 q 597 875 664 842 q 439 908 529 908 z "},"Ð":{"ha":1094,"x_min":56,"x_max":1018,"o":"m 194 0 l 194 453 l 56 453 l 56 575 l 194 575 l 194 1028 l 528 1028 q 743 984 651 1028 q 896 867 835 940 q 988 701 957 793 q 1018 514 1018 610 q 988 326 1018 418 q 896 161 957 235 q 743 44 835 88 q 528 0 651 0 l 194 0 m 547 453 l 331 453 l 331 119 l 522 119 q 680 153 613 119 q 792 242 747 186 q 860 369 838 299 q 882 514 882 440 q 860 658 882 588 q 792 785 838 729 q 680 875 747 842 q 522 908 613 908 l 331 908 l 331 575 l 547 575 l 547 453 z "},"Ď":{"ha":1025,"x_min":125,"x_max":949,"o":"m 403 1118 l 235 1350 l 354 1350 l 458 1201 l 564 1350 l 683 1350 l 515 1118 l 403 1118 m 125 0 l 125 1028 l 458 1028 q 674 984 582 1028 q 826 867 765 940 q 918 701 888 793 q 949 514 949 610 q 918 326 949 418 q 826 161 888 235 q 674 44 765 88 q 458 0 582 0 l 125 0 m 453 908 l 261 908 l 261 119 l 453 119 q 610 153 543 119 q 723 242 678 186 q 790 369 768 299 q 813 514 813 440 q 790 658 813 588 q 723 785 768 729 q 610 875 678 842 q 453 908 543 908 z "},"Đ":{"ha":1094,"x_min":56,"x_max":1018,"o":"m 194 0 l 194 453 l 56 453 l 56 575 l 194 575 l 194 1028 l 528 1028 q 743 984 651 1028 q 896 867 835 940 q 988 701 957 793 q 1018 514 1018 610 q 988 326 1018 418 q 896 161 957 235 q 743 44 835 88 q 528 0 651 0 l 194 0 m 547 453 l 331 453 l 331 119 l 522 119 q 680 153 613 119 q 792 242 747 186 q 860 369 838 299 q 882 514 882 440 q 860 658 882 588 q 792 785 838 729 q 680 875 747 842 q 522 908 613 908 l 331 908 l 331 575 l 547 575 l 547 453 z "},"E":{"ha":861,"x_min":111,"x_max":771,"o":"m 111 0 l 111 1028 l 764 1028 l 764 908 l 247 908 l 247 583 l 700 583 l 700 464 l 247 464 l 247 119 l 771 119 l 771 0 l 111 0 z "},"É":{"ha":875,"x_min":125,"x_max":785,"o":"m 521 1139 l 408 1140 l 528 1390 l 664 1390 l 521 1139 m 125 0 l 125 1028 l 778 1028 l 778 908 l 261 908 l 261 583 l 714 583 l 714 464 l 261 464 l 261 119 l 785 119 l 785 0 l 125 0 z "},"Ě":{"ha":875,"x_min":125,"x_max":785,"o":"m 410 1118 l 242 1350 l 361 1350 l 465 1201 l 571 1350 l 690 1350 l 522 1118 l 410 1118 m 125 0 l 125 1028 l 778 1028 l 778 908 l 261 908 l 261 583 l 714 583 l 714 464 l 261 464 l 261 119 l 785 119 l 785 0 l 125 0 z "},"Ê":{"ha":875,"x_min":125,"x_max":785,"o":"m 242 1133 l 410 1338 l 522 1338 l 690 1133 l 571 1133 l 465 1261 l 361 1133 l 242 1133 m 125 0 l 125 1028 l 778 1028 l 778 908 l 261 908 l 261 583 l 714 583 l 714 464 l 261 464 l 261 119 l 785 119 l 785 0 l 125 0 z "},"Ế":{"ha":875,"x_min":125,"x_max":876,"o":"m 733 1311 l 621 1313 l 740 1563 l 876 1563 l 733 1311 m 242 1133 l 410 1338 l 522 1338 l 690 1133 l 571 1133 l 465 1261 l 361 1133 l 242 1133 m 125 0 l 125 1028 l 778 1028 l 778 908 l 261 908 l 261 583 l 714 583 l 714 464 l 261 464 l 261 119 l 785 119 l 785 0 l 125 0 z "},"Ệ":{"ha":875,"x_min":125,"x_max":785,"o":"m 242 1133 l 410 1338 l 522 1338 l 690 1133 l 571 1133 l 465 1261 l 361 1133 l 242 1133 m 125 0 l 125 1028 l 778 1028 l 778 908 l 261 908 l 261 583 l 714 583 l 714 464 l 261 464 l 261 119 l 785 119 l 785 0 l 125 0 m 465 -315 q 401 -288 426 -315 q 375 -225 375 -261 q 401 -161 375 -187 q 465 -135 426 -135 q 530 -161 504 -135 q 556 -225 556 -187 q 530 -289 556 -262 q 465 -315 504 -315 z "},"Ề":{"ha":875,"x_min":125,"x_max":785,"o":"m 656 1311 l 513 1563 l 649 1563 l 768 1313 l 656 1311 m 242 1133 l 410 1338 l 522 1338 l 690 1133 l 571 1133 l 465 1261 l 361 1133 l 242 1133 m 125 0 l 125 1028 l 778 1028 l 778 908 l 261 908 l 261 583 l 714 583 l 714 464 l 261 464 l 261 119 l 785 119 l 785 0 l 125 0 z "},"Ể":{"ha":875,"x_min":125,"x_max":840,"o":"m 633 1301 l 633 1346 q 639 1374 633 1360 q 661 1396 644 1388 l 681 1406 q 744 1476 744 1438 q 730 1512 744 1496 q 683 1528 715 1528 q 642 1516 656 1528 q 625 1490 629 1504 q 621 1468 621 1476 l 529 1468 q 545 1535 529 1503 q 595 1588 561 1567 q 682 1608 629 1608 q 798 1570 756 1608 q 840 1479 840 1532 q 814 1406 840 1440 q 729 1344 788 1372 l 724 1342 l 724 1301 l 633 1301 m 242 1133 l 410 1338 l 522 1338 l 690 1133 l 571 1133 l 465 1261 l 361 1133 l 242 1133 m 125 0 l 125 1028 l 778 1028 l 778 908 l 261 908 l 261 583 l 714 583 l 714 464 l 261 464 l 261 119 l 785 119 l 785 0 l 125 0 z "},"Ễ":{"ha":875,"x_min":125,"x_max":785,"o":"m 560 1392 q 497 1406 522 1392 q 452 1438 471 1419 q 417 1469 433 1456 q 381 1483 400 1483 q 347 1460 357 1483 q 336 1400 336 1438 l 247 1400 q 258 1484 247 1443 q 296 1552 268 1525 q 372 1579 324 1579 q 436 1565 410 1579 q 481 1534 463 1551 q 517 1503 500 1517 q 551 1489 533 1489 q 584 1511 574 1489 q 594 1572 594 1533 l 683 1572 q 673 1488 683 1529 q 635 1419 663 1446 q 560 1392 608 1392 m 240 1133 l 408 1338 l 521 1338 l 689 1133 l 569 1133 l 464 1261 l 360 1133 l 240 1133 m 125 0 l 125 1028 l 778 1028 l 778 908 l 261 908 l 261 583 l 714 583 l 714 464 l 261 464 l 261 119 l 785 119 l 785 0 l 125 0 z "},"Ë":{"ha":875,"x_min":125,"x_max":785,"o":"m 597 1140 q 535 1165 560 1140 q 511 1225 511 1190 q 535 1286 511 1261 q 597 1311 560 1311 q 658 1286 633 1311 q 683 1225 683 1261 q 658 1165 683 1190 q 597 1140 633 1140 m 333 1140 q 272 1165 296 1140 q 247 1225 247 1190 q 272 1286 247 1261 q 333 1311 296 1311 q 394 1286 369 1311 q 419 1225 419 1261 q 394 1165 419 1190 q 333 1140 369 1140 m 125 0 l 125 1028 l 778 1028 l 778 908 l 261 908 l 261 583 l 714 583 l 714 464 l 261 464 l 261 119 l 785 119 l 785 0 l 125 0 z "},"Ė":{"ha":875,"x_min":125,"x_max":785,"o":"m 465 1168 q 403 1193 428 1168 q 379 1253 379 1218 q 403 1314 379 1289 q 465 1339 428 1339 q 526 1314 501 1339 q 551 1253 551 1289 q 526 1193 551 1218 q 465 1168 501 1168 m 125 0 l 125 1028 l 778 1028 l 778 908 l 261 908 l 261 583 l 714 583 l 714 464 l 261 464 l 261 119 l 785 119 l 785 0 l 125 0 z "},"Ẹ":{"ha":875,"x_min":125,"x_max":785,"o":"m 125 0 l 125 1028 l 778 1028 l 778 908 l 261 908 l 261 583 l 714 583 l 714 464 l 261 464 l 261 119 l 785 119 l 785 0 l 125 0 m 465 -315 q 401 -288 426 -315 q 375 -225 375 -261 q 401 -161 375 -187 q 465 -135 426 -135 q 530 -161 504 -135 q 556 -225 556 -187 q 530 -289 556 -262 q 465 -315 504 -315 z "},"È":{"ha":875,"x_min":125,"x_max":785,"o":"m 415 1139 l 272 1390 l 408 1390 l 528 1140 l 415 1139 m 125 0 l 125 1028 l 778 1028 l 778 908 l 261 908 l 261 583 l 714 583 l 714 464 l 261 464 l 261 119 l 785 119 l 785 0 l 125 0 z "},"Ẻ":{"ha":875,"x_min":125,"x_max":785,"o":"m 421 1129 l 421 1174 q 426 1201 421 1188 q 449 1224 432 1215 l 468 1233 q 532 1304 532 1265 q 517 1340 532 1324 q 471 1356 503 1356 q 430 1344 443 1356 q 413 1318 417 1332 q 408 1296 408 1304 l 317 1296 q 333 1363 317 1331 q 383 1415 349 1394 q 469 1436 417 1436 q 585 1398 543 1436 q 628 1307 628 1360 q 601 1234 628 1268 q 517 1172 575 1200 l 511 1169 l 511 1129 l 421 1129 m 125 0 l 125 1028 l 778 1028 l 778 908 l 261 908 l 261 583 l 714 583 l 714 464 l 261 464 l 261 119 l 785 119 l 785 0 l 125 0 z "},"Ē":{"ha":875,"x_min":125,"x_max":785,"o":"m 254 1161 l 254 1261 l 676 1261 l 676 1161 l 254 1161 m 125 0 l 125 1028 l 778 1028 l 778 908 l 261 908 l 261 583 l 714 583 l 714 464 l 261 464 l 261 119 l 785 119 l 785 0 l 125 0 z "},"Ę":{"ha":875,"x_min":125,"x_max":840,"o":"m 125 0 l 125 1028 l 778 1028 l 778 908 l 261 908 l 261 583 l 714 583 l 714 464 l 261 464 l 261 119 l 785 119 l 785 0 q 766 -10 785 0 q 728 -39 747 -19 q 710 -87 710 -58 q 730 -130 710 -112 q 789 -147 750 -147 q 824 -144 808 -147 q 840 -140 840 -140 l 840 -228 q 819 -232 840 -228 q 767 -236 799 -236 q 643 -199 685 -236 q 601 -111 601 -162 q 622 -44 601 -71 q 667 0 643 -17 l 125 0 z "},"Ẽ":{"ha":875,"x_min":125,"x_max":785,"o":"m 560 1149 q 497 1163 522 1149 q 452 1194 471 1176 q 417 1226 433 1213 q 381 1240 400 1240 q 347 1217 357 1240 q 336 1157 336 1194 l 247 1157 q 258 1241 247 1200 q 296 1309 268 1282 q 372 1336 324 1336 q 436 1322 410 1336 q 481 1291 463 1308 q 517 1260 500 1274 q 551 1246 533 1246 q 584 1268 574 1246 q 594 1329 594 1290 l 683 1329 q 673 1244 683 1286 q 635 1176 663 1203 q 560 1149 608 1149 m 125 0 l 125 1028 l 778 1028 l 778 908 l 261 908 l 261 583 l 714 583 l 714 464 l 261 464 l 261 119 l 785 119 l 785 0 l 125 0 z "},"F":{"ha":879,"x_min":111,"x_max":789,"o":"m 111 0 l 111 1028 l 789 1028 l 789 908 l 247 908 l 247 569 l 725 569 l 725 450 l 247 450 l 247 0 l 111 0 z "},"G":{"ha":1088,"x_min":76,"x_max":1018,"o":"m 569 -14 q 351 31 444 -14 q 197 151 258 75 q 106 320 136 226 q 76 513 76 414 q 106 706 76 611 q 198 876 136 800 q 353 997 260 951 q 574 1042 447 1042 q 741 1017 671 1042 q 858 953 811 992 q 935 870 906 914 q 979 788 964 826 q 999 724 994 749 q 1004 699 1004 699 l 867 699 q 861 721 867 699 q 839 776 856 743 q 790 841 822 808 q 705 896 757 874 q 575 918 653 918 q 415 883 483 918 q 303 791 347 849 q 236 662 258 733 q 214 515 214 590 q 236 366 214 439 q 303 235 258 293 q 415 144 349 178 q 569 110 482 110 q 797 194 713 110 q 888 421 881 278 l 582 421 l 582 533 l 1018 533 l 1018 463 q 958 199 1018 304 q 796 40 897 93 q 569 -14 694 -14 z "},"Ğ":{"ha":1088,"x_min":76,"x_max":1018,"o":"m 574 1132 q 465 1153 507 1132 q 399 1206 422 1175 q 365 1269 375 1238 q 353 1322 356 1300 q 351 1343 351 1343 l 450 1343 q 453 1324 450 1343 q 466 1282 456 1306 q 502 1240 476 1258 q 574 1221 528 1221 q 645 1240 619 1221 q 681 1282 671 1258 q 694 1324 692 1306 q 697 1343 697 1343 l 796 1343 q 794 1322 796 1343 q 782 1269 792 1300 q 749 1206 772 1238 q 683 1153 725 1175 q 574 1132 640 1132 m 569 -14 q 351 31 444 -14 q 197 151 258 75 q 106 320 136 226 q 76 513 76 414 q 106 706 76 611 q 198 876 136 800 q 353 997 260 951 q 574 1042 447 1042 q 741 1017 671 1042 q 858 953 811 992 q 935 870 906 914 q 979 788 964 826 q 999 724 994 749 q 1004 699 1004 699 l 867 699 q 861 721 867 699 q 839 776 856 743 q 790 841 822 808 q 705 896 757 874 q 575 918 653 918 q 415 883 483 918 q 303 791 347 849 q 236 662 258 733 q 214 515 214 590 q 236 366 214 439 q 303 235 258 293 q 415 144 349 178 q 569 110 482 110 q 797 194 713 110 q 888 421 881 278 l 582 421 l 582 533 l 1018 533 l 1018 463 q 958 199 1018 304 q 796 40 897 93 q 569 -14 694 -14 z "},"Ǧ":{"ha":1088,"x_min":76,"x_max":1018,"o":"m 518 1118 l 350 1350 l 469 1350 l 574 1201 l 679 1350 l 799 1350 l 631 1118 l 518 1118 m 569 -14 q 351 31 444 -14 q 197 151 258 75 q 106 320 136 226 q 76 513 76 414 q 106 706 76 611 q 198 876 136 800 q 353 997 260 951 q 574 1042 447 1042 q 741 1017 671 1042 q 858 953 811 992 q 935 870 906 914 q 979 788 964 826 q 999 724 994 749 q 1004 699 1004 699 l 867 699 q 861 721 867 699 q 839 776 856 743 q 790 841 822 808 q 705 896 757 874 q 575 918 653 918 q 415 883 483 918 q 303 791 347 849 q 236 662 258 733 q 214 515 214 590 q 236 366 214 439 q 303 235 258 293 q 415 144 349 178 q 569 110 482 110 q 797 194 713 110 q 888 421 881 278 l 582 421 l 582 533 l 1018 533 l 1018 463 q 958 199 1018 304 q 796 40 897 93 q 569 -14 694 -14 z "},"Ġ":{"ha":1088,"x_min":76,"x_max":1018,"o":"m 574 1168 q 512 1193 536 1168 q 488 1253 488 1218 q 512 1314 488 1289 q 574 1339 536 1339 q 635 1314 610 1339 q 660 1253 660 1289 q 635 1193 660 1218 q 574 1168 610 1168 m 569 -14 q 351 31 444 -14 q 197 151 258 75 q 106 320 136 226 q 76 513 76 414 q 106 706 76 611 q 198 876 136 800 q 353 997 260 951 q 574 1042 447 1042 q 741 1017 671 1042 q 858 953 811 992 q 935 870 906 914 q 979 788 964 826 q 999 724 994 749 q 1004 699 1004 699 l 867 699 q 861 721 867 699 q 839 776 856 743 q 790 841 822 808 q 705 896 757 874 q 575 918 653 918 q 415 883 483 918 q 303 791 347 849 q 236 662 258 733 q 214 515 214 590 q 236 366 214 439 q 303 235 258 293 q 415 144 349 178 q 569 110 482 110 q 797 194 713 110 q 888 421 881 278 l 582 421 l 582 533 l 1018 533 l 1018 463 q 958 199 1018 304 q 796 40 897 93 q 569 -14 694 -14 z "},"Ḡ":{"ha":1088,"x_min":76,"x_max":1018,"o":"m 363 1161 l 363 1261 l 785 1261 l 785 1161 l 363 1161 m 569 -14 q 351 31 444 -14 q 197 151 258 75 q 106 320 136 226 q 76 513 76 414 q 106 706 76 611 q 198 876 136 800 q 353 997 260 951 q 574 1042 447 1042 q 741 1017 671 1042 q 858 953 811 992 q 935 870 906 914 q 979 788 964 826 q 999 724 994 749 q 1004 699 1004 699 l 867 699 q 861 721 867 699 q 839 776 856 743 q 790 841 822 808 q 705 896 757 874 q 575 918 653 918 q 415 883 483 918 q 303 791 347 849 q 236 662 258 733 q 214 515 214 590 q 236 366 214 439 q 303 235 258 293 q 415 144 349 178 q 569 110 482 110 q 797 194 713 110 q 888 421 881 278 l 582 421 l 582 533 l 1018 533 l 1018 463 q 958 199 1018 304 q 796 40 897 93 q 569 -14 694 -14 z "},"H":{"ha":985,"x_min":111,"x_max":874,"o":"m 111 0 l 111 1028 l 247 1028 l 247 582 l 738 582 l 738 1028 l 874 1028 l 874 0 l 738 0 l 738 460 l 247 460 l 247 0 l 111 0 z "},"Ħ":{"ha":1076,"x_min":42,"x_max":1035,"o":"m 171 0 l 171 804 l 42 804 l 42 926 l 171 926 l 171 1028 l 307 1028 l 307 926 l 797 926 l 797 1028 l 933 1028 l 933 926 l 1035 926 l 1035 804 l 933 804 l 933 0 l 797 0 l 797 460 l 307 460 l 307 0 l 171 0 m 307 582 l 797 582 l 797 804 l 307 804 l 307 582 z "},"I":{"ha":358,"x_min":111,"x_max":247,"o":"m 111 0 l 111 1028 l 247 1028 l 247 0 l 111 0 z "},"Í":{"ha":386,"x_min":125,"x_max":392,"o":"m 249 1139 l 136 1140 l 256 1390 l 392 1390 l 249 1139 m 125 0 l 125 1028 l 261 1028 l 261 0 l 125 0 z "},"Î":{"ha":386,"x_min":-31,"x_max":418,"o":"m -31 1133 l 138 1365 l 250 1365 l 418 1133 l 299 1133 l 193 1282 l 89 1133 l -31 1133 m 125 0 l 125 1028 l 261 1028 l 261 0 l 125 0 z "},"Ï":{"ha":386,"x_min":-25,"x_max":411,"o":"m 325 1140 q 263 1165 288 1140 q 239 1225 239 1190 q 263 1286 239 1261 q 325 1311 288 1311 q 386 1286 361 1311 q 411 1225 411 1261 q 386 1165 411 1190 q 325 1140 361 1140 m 61 1140 q -1 1165 24 1140 q -25 1225 -25 1190 q -1 1286 -25 1261 q 61 1311 24 1311 q 122 1286 97 1311 q 147 1225 147 1261 q 122 1165 147 1190 q 61 1140 97 1140 m 125 0 l 125 1028 l 261 1028 l 261 0 l 125 0 z "},"İ":{"ha":386,"x_min":107,"x_max":279,"o":"m 193 1168 q 131 1193 156 1168 q 107 1253 107 1218 q 131 1314 107 1289 q 193 1339 156 1339 q 254 1314 229 1339 q 279 1253 279 1289 q 254 1193 279 1218 q 193 1168 229 1168 m 125 0 l 125 1028 l 261 1028 l 261 0 l 125 0 z "},"Ị":{"ha":386,"x_min":103,"x_max":283,"o":"m 125 0 l 125 1028 l 261 1028 l 261 0 l 125 0 m 193 -315 q 128 -288 154 -315 q 103 -225 103 -261 q 128 -161 103 -187 q 193 -135 154 -135 q 258 -161 232 -135 q 283 -225 283 -187 q 258 -289 283 -262 q 193 -315 232 -315 z "},"Ì":{"ha":386,"x_min":0,"x_max":261,"o":"m 143 1139 l 0 1390 l 136 1390 l 256 1140 l 143 1139 m 125 0 l 125 1028 l 261 1028 l 261 0 l 125 0 z "},"Ỉ":{"ha":386,"x_min":44,"x_max":356,"o":"m 149 1129 l 149 1174 q 154 1201 149 1188 q 176 1224 160 1215 l 196 1233 q 260 1304 260 1265 q 245 1340 260 1324 q 199 1356 231 1356 q 158 1344 171 1356 q 140 1318 144 1332 q 136 1296 136 1304 l 44 1296 q 60 1363 44 1331 q 110 1415 76 1394 q 197 1436 144 1436 q 313 1398 271 1436 q 356 1307 356 1360 q 329 1234 356 1268 q 244 1172 303 1200 l 239 1169 l 239 1129 l 149 1129 m 125 0 l 125 1028 l 261 1028 l 261 0 l 125 0 z "},"Ī":{"ha":386,"x_min":-18,"x_max":404,"o":"m -18 1161 l -18 1261 l 404 1261 l 404 1161 l -18 1161 m 125 0 l 125 1028 l 261 1028 l 261 0 l 125 0 z "},"Į":{"ha":386,"x_min":78,"x_max":317,"o":"m 125 0 l 125 1028 l 261 1028 l 261 0 q 242 -10 261 0 q 205 -39 224 -19 q 186 -87 186 -58 q 206 -130 186 -112 q 265 -147 226 -147 q 301 -144 285 -147 q 317 -140 317 -140 l 317 -228 q 296 -232 317 -228 q 243 -236 275 -236 q 119 -199 161 -236 q 78 -111 78 -162 q 99 -44 78 -71 q 143 0 119 -17 l 125 0 z "},"Ĩ":{"ha":386,"x_min":-25,"x_max":411,"o":"m 288 1149 q 224 1163 250 1149 q 180 1194 199 1176 q 144 1226 161 1213 q 108 1240 128 1240 q 74 1217 85 1240 q 64 1157 64 1194 l -25 1157 q -15 1241 -25 1200 q 24 1309 -4 1282 q 100 1336 51 1336 q 164 1322 138 1336 q 209 1291 190 1308 q 244 1260 228 1274 q 279 1246 261 1246 q 312 1268 301 1246 q 322 1329 322 1290 l 411 1329 q 401 1244 411 1286 q 363 1176 390 1203 q 288 1149 336 1149 m 125 0 l 125 1028 l 261 1028 l 261 0 l 125 0 z "},"J":{"ha":646,"x_min":56,"x_max":535,"o":"m 182 -14 q 95 -9 135 -14 q 56 -4 56 -4 l 56 117 q 73 115 56 117 q 116 112 90 114 q 165 110 142 110 q 335 163 272 110 q 399 344 399 215 l 399 1028 l 535 1028 l 535 344 q 445 83 535 181 q 182 -14 356 -14 z "},"K":{"ha":943,"x_min":111,"x_max":890,"o":"m 111 0 l 111 1028 l 247 1028 l 247 564 l 692 1026 l 869 1026 l 389 533 l 890 0 l 707 0 l 247 490 l 247 0 l 111 0 z "},"L":{"ha":867,"x_min":111,"x_max":776,"o":"m 111 0 l 111 1028 l 247 1028 l 247 119 l 776 119 l 776 0 l 111 0 z "},"Ĺ":{"ha":881,"x_min":125,"x_max":790,"o":"m 261 1139 l 149 1140 l 268 1390 l 404 1390 l 261 1139 m 125 0 l 125 1028 l 261 1028 l 261 119 l 790 119 l 790 0 l 125 0 z "},"Ľ":{"ha":881,"x_min":-18,"x_max":790,"o":"m 150 1118 l -18 1350 l 101 1350 l 206 1201 l 311 1350 l 431 1350 l 263 1118 l 150 1118 m 125 0 l 125 1028 l 261 1028 l 261 119 l 790 119 l 790 0 l 125 0 z "},"Ł":{"ha":901,"x_min":15,"x_max":811,"o":"m 146 0 l 146 456 l 15 417 l 15 531 l 146 569 l 146 1028 l 282 1028 l 282 608 l 517 678 l 517 564 l 282 494 l 282 119 l 811 119 l 811 0 l 146 0 z "},"M":{"ha":1185,"x_min":111,"x_max":1074,"o":"m 111 0 l 111 1028 l 290 1028 l 593 417 l 894 1028 l 1074 1028 l 1074 0 l 940 0 l 940 828 l 657 264 l 528 264 l 244 831 l 244 0 l 111 0 z "},"N":{"ha":1017,"x_min":111,"x_max":906,"o":"m 111 0 l 111 1028 l 233 1028 l 769 246 l 769 1028 l 906 1028 l 906 0 l 783 0 l 247 781 l 247 0 l 111 0 z "},"Ń":{"ha":1044,"x_min":125,"x_max":919,"o":"m 575 1139 l 463 1140 l 582 1390 l 718 1390 l 575 1139 m 125 0 l 125 1028 l 247 1028 l 783 246 l 783 1028 l 919 1028 l 919 0 l 797 0 l 261 781 l 261 0 l 125 0 z "},"Ň":{"ha":1044,"x_min":125,"x_max":919,"o":"m 464 1118 l 296 1350 l 415 1350 l 519 1201 l 625 1350 l 744 1350 l 576 1118 l 464 1118 m 125 0 l 125 1028 l 247 1028 l 783 246 l 783 1028 l 919 1028 l 919 0 l 797 0 l 261 781 l 261 0 l 125 0 z "},"Ñ":{"ha":1044,"x_min":125,"x_max":919,"o":"m 614 1149 q 551 1163 576 1149 q 506 1194 525 1176 q 471 1226 488 1213 q 435 1240 454 1240 q 401 1217 411 1240 q 390 1157 390 1194 l 301 1157 q 312 1241 301 1200 q 350 1309 322 1282 q 426 1336 378 1336 q 490 1322 464 1336 q 535 1291 517 1308 q 571 1260 554 1274 q 606 1246 588 1246 q 638 1268 628 1246 q 649 1329 649 1290 l 738 1329 q 727 1244 738 1286 q 690 1176 717 1203 q 614 1149 663 1149 m 125 0 l 125 1028 l 247 1028 l 783 246 l 783 1028 l 919 1028 l 919 0 l 797 0 l 261 781 l 261 0 l 125 0 z "},"O":{"ha":1147,"x_min":76,"x_max":1071,"o":"m 574 -14 q 358 31 451 -14 q 203 152 265 76 q 108 322 140 228 q 76 515 76 417 q 108 708 76 614 q 203 876 140 801 q 358 997 265 951 q 574 1042 451 1042 q 789 997 696 1042 q 944 876 882 951 q 1039 708 1007 801 q 1071 515 1071 614 q 1039 322 1071 417 q 944 152 1007 228 q 789 31 882 76 q 574 -14 696 -14 m 574 113 q 728 146 661 113 q 840 236 794 179 q 908 365 885 293 q 932 515 932 438 q 908 663 932 592 q 840 792 885 735 q 728 882 794 849 q 574 915 661 915 q 419 882 486 915 q 308 792 353 849 q 239 663 263 735 q 215 515 215 592 q 239 365 215 438 q 308 236 263 293 q 419 146 353 179 q 574 113 486 113 z "},"Ó":{"ha":1147,"x_min":76,"x_max":1071,"o":"m 629 1153 l 517 1154 l 636 1404 l 772 1404 l 629 1153 m 574 -14 q 358 31 451 -14 q 203 152 265 76 q 108 322 140 228 q 76 515 76 417 q 108 708 76 614 q 203 876 140 801 q 358 997 265 951 q 574 1042 451 1042 q 789 997 696 1042 q 944 876 882 951 q 1039 708 1007 801 q 1071 515 1071 614 q 1039 322 1071 417 q 944 152 1007 228 q 789 31 882 76 q 574 -14 696 -14 m 574 113 q 728 146 661 113 q 840 236 794 179 q 908 365 885 293 q 932 515 932 438 q 908 663 932 592 q 840 792 885 735 q 728 882 794 849 q 574 915 661 915 q 419 882 486 915 q 308 792 353 849 q 239 663 263 735 q 215 515 215 592 q 239 365 215 438 q 308 236 263 293 q 419 146 353 179 q 574 113 486 113 z "},"Ô":{"ha":1147,"x_min":76,"x_max":1071,"o":"m 350 1147 l 518 1351 l 631 1351 l 799 1147 l 679 1147 l 574 1275 l 469 1147 l 350 1147 m 574 -14 q 358 31 451 -14 q 203 152 265 76 q 108 322 140 228 q 76 515 76 417 q 108 708 76 614 q 203 876 140 801 q 358 997 265 951 q 574 1042 451 1042 q 789 997 696 1042 q 944 876 882 951 q 1039 708 1007 801 q 1071 515 1071 614 q 1039 322 1071 417 q 944 152 1007 228 q 789 31 882 76 q 574 -14 696 -14 m 574 113 q 728 146 661 113 q 840 236 794 179 q 908 365 885 293 q 932 515 932 438 q 908 663 932 592 q 840 792 885 735 q 728 882 794 849 q 574 915 661 915 q 419 882 486 915 q 308 792 353 849 q 239 663 263 735 q 215 515 215 592 q 239 365 215 438 q 308 236 263 293 q 419 146 353 179 q 574 113 486 113 z "},"Ố":{"ha":1147,"x_min":76,"x_max":1071,"o":"m 842 1325 l 729 1326 l 849 1576 l 985 1576 l 842 1325 m 350 1147 l 518 1351 l 631 1351 l 799 1147 l 679 1147 l 574 1275 l 469 1147 l 350 1147 m 574 -14 q 358 31 451 -14 q 203 152 265 76 q 108 322 140 228 q 76 515 76 417 q 108 708 76 614 q 203 876 140 801 q 358 997 265 951 q 574 1042 451 1042 q 789 997 696 1042 q 944 876 882 951 q 1039 708 1007 801 q 1071 515 1071 614 q 1039 322 1071 417 q 944 152 1007 228 q 789 31 882 76 q 574 -14 696 -14 m 574 113 q 728 146 661 113 q 840 236 794 179 q 908 365 885 293 q 932 515 932 438 q 908 663 932 592 q 840 792 885 735 q 728 882 794 849 q 574 915 661 915 q 419 882 486 915 q 308 792 353 849 q 239 663 263 735 q 215 515 215 592 q 239 365 215 438 q 308 236 263 293 q 419 146 353 179 q 574 113 486 113 z "},"Ộ":{"ha":1147,"x_min":76,"x_max":1071,"o":"m 350 1147 l 518 1351 l 631 1351 l 799 1147 l 679 1147 l 574 1275 l 469 1147 l 350 1147 m 574 -14 q 358 31 451 -14 q 203 152 265 76 q 108 322 140 228 q 76 515 76 417 q 108 708 76 614 q 203 876 140 801 q 358 997 265 951 q 574 1042 451 1042 q 789 997 696 1042 q 944 876 882 951 q 1039 708 1007 801 q 1071 515 1071 614 q 1039 322 1071 417 q 944 152 1007 228 q 789 31 882 76 q 574 -14 696 -14 m 574 113 q 728 146 661 113 q 840 236 794 179 q 908 365 885 293 q 932 515 932 438 q 908 663 932 592 q 840 792 885 735 q 728 882 794 849 q 574 915 661 915 q 419 882 486 915 q 308 792 353 849 q 239 663 263 735 q 215 515 215 592 q 239 365 215 438 q 308 236 263 293 q 419 146 353 179 q 574 113 486 113 m 574 -315 q 509 -288 535 -315 q 483 -225 483 -261 q 509 -161 483 -187 q 574 -135 535 -135 q 638 -161 613 -135 q 664 -225 664 -187 q 638 -289 664 -262 q 574 -315 613 -315 z "},"Ồ":{"ha":1147,"x_min":76,"x_max":1071,"o":"m 764 1325 l 621 1576 l 757 1576 l 876 1326 l 764 1325 m 350 1147 l 518 1351 l 631 1351 l 799 1147 l 679 1147 l 574 1275 l 469 1147 l 350 1147 m 574 -14 q 358 31 451 -14 q 203 152 265 76 q 108 322 140 228 q 76 515 76 417 q 108 708 76 614 q 203 876 140 801 q 358 997 265 951 q 574 1042 451 1042 q 789 997 696 1042 q 944 876 882 951 q 1039 708 1007 801 q 1071 515 1071 614 q 1039 322 1071 417 q 944 152 1007 228 q 789 31 882 76 q 574 -14 696 -14 m 574 113 q 728 146 661 113 q 840 236 794 179 q 908 365 885 293 q 932 515 932 438 q 908 663 932 592 q 840 792 885 735 q 728 882 794 849 q 574 915 661 915 q 419 882 486 915 q 308 792 353 849 q 239 663 263 735 q 215 515 215 592 q 239 365 215 438 q 308 236 263 293 q 419 146 353 179 q 574 113 486 113 z "},"Ổ":{"ha":1147,"x_min":76,"x_max":1071,"o":"m 742 1315 l 742 1360 q 747 1388 742 1374 q 769 1410 753 1401 l 789 1419 q 853 1490 853 1451 q 838 1526 853 1510 q 792 1542 824 1542 q 751 1530 764 1542 q 733 1504 738 1518 q 729 1482 729 1490 l 638 1482 q 653 1549 638 1517 q 703 1601 669 1581 q 790 1622 738 1622 q 906 1584 864 1622 q 949 1493 949 1546 q 922 1420 949 1454 q 838 1358 896 1386 l 832 1356 l 832 1315 l 742 1315 m 350 1147 l 518 1351 l 631 1351 l 799 1147 l 679 1147 l 574 1275 l 469 1147 l 350 1147 m 574 -14 q 358 31 451 -14 q 203 152 265 76 q 108 322 140 228 q 76 515 76 417 q 108 708 76 614 q 203 876 140 801 q 358 997 265 951 q 574 1042 451 1042 q 789 997 696 1042 q 944 876 882 951 q 1039 708 1007 801 q 1071 515 1071 614 q 1039 322 1071 417 q 944 152 1007 228 q 789 31 882 76 q 574 -14 696 -14 m 574 113 q 728 146 661 113 q 840 236 794 179 q 908 365 885 293 q 932 515 932 438 q 908 663 932 592 q 840 792 885 735 q 728 882 794 849 q 574 915 661 915 q 419 882 486 915 q 308 792 353 849 q 239 663 263 735 q 215 515 215 592 q 239 365 215 438 q 308 236 263 293 q 419 146 353 179 q 574 113 486 113 z "},"Ỗ":{"ha":1147,"x_min":76,"x_max":1071,"o":"m 668 1406 q 605 1419 631 1406 q 560 1451 579 1433 q 525 1483 542 1469 q 489 1497 508 1497 q 455 1474 465 1497 q 444 1414 444 1451 l 356 1414 q 366 1498 356 1457 q 404 1566 376 1539 q 481 1593 432 1593 q 544 1579 518 1593 q 590 1548 571 1565 q 625 1517 608 1531 q 660 1503 642 1503 q 692 1525 682 1503 q 703 1586 703 1547 l 792 1586 q 781 1501 792 1543 q 744 1433 771 1460 q 668 1406 717 1406 m 349 1147 l 517 1351 l 629 1351 l 797 1147 l 678 1147 l 572 1275 l 468 1147 l 349 1147 m 574 -14 q 358 31 451 -14 q 203 152 265 76 q 108 322 140 228 q 76 515 76 417 q 108 708 76 614 q 203 876 140 801 q 358 997 265 951 q 574 1042 451 1042 q 789 997 696 1042 q 944 876 882 951 q 1039 708 1007 801 q 1071 515 1071 614 q 1039 322 1071 417 q 944 152 1007 228 q 789 31 882 76 q 574 -14 696 -14 m 574 113 q 728 146 661 113 q 840 236 794 179 q 908 365 885 293 q 932 515 932 438 q 908 663 932 592 q 840 792 885 735 q 728 882 794 849 q 574 915 661 915 q 419 882 486 915 q 308 792 353 849 q 239 663 263 735 q 215 515 215 592 q 239 365 215 438 q 308 236 263 293 q 419 146 353 179 q 574 113 486 113 z "},"Ö":{"ha":1147,"x_min":76,"x_max":1071,"o":"m 706 1154 q 644 1179 668 1154 q 619 1239 619 1204 q 644 1300 619 1275 q 706 1325 668 1325 q 767 1300 742 1325 q 792 1239 792 1275 q 767 1179 792 1204 q 706 1154 742 1154 m 442 1154 q 380 1179 404 1154 q 356 1239 356 1204 q 380 1300 356 1275 q 442 1325 404 1325 q 503 1300 478 1325 q 528 1239 528 1275 q 503 1179 528 1204 q 442 1154 478 1154 m 574 -14 q 358 31 451 -14 q 203 152 265 76 q 108 322 140 228 q 76 515 76 417 q 108 708 76 614 q 203 876 140 801 q 358 997 265 951 q 574 1042 451 1042 q 789 997 696 1042 q 944 876 882 951 q 1039 708 1007 801 q 1071 515 1071 614 q 1039 322 1071 417 q 944 152 1007 228 q 789 31 882 76 q 574 -14 696 -14 m 574 113 q 728 146 661 113 q 840 236 794 179 q 908 365 885 293 q 932 515 932 438 q 908 663 932 592 q 840 792 885 735 q 728 882 794 849 q 574 915 661 915 q 419 882 486 915 q 308 792 353 849 q 239 663 263 735 q 215 515 215 592 q 239 365 215 438 q 308 236 263 293 q 419 146 353 179 q 574 113 486 113 z "},"Ọ":{"ha":1147,"x_min":76,"x_max":1071,"o":"m 574 -14 q 358 31 451 -14 q 203 152 265 76 q 108 322 140 228 q 76 515 76 417 q 108 708 76 614 q 203 876 140 801 q 358 997 265 951 q 574 1042 451 1042 q 789 997 696 1042 q 944 876 882 951 q 1039 708 1007 801 q 1071 515 1071 614 q 1039 322 1071 417 q 944 152 1007 228 q 789 31 882 76 q 574 -14 696 -14 m 574 113 q 728 146 661 113 q 840 236 794 179 q 908 365 885 293 q 932 515 932 438 q 908 663 932 592 q 840 792 885 735 q 728 882 794 849 q 574 915 661 915 q 419 882 486 915 q 308 792 353 849 q 239 663 263 735 q 215 515 215 592 q 239 365 215 438 q 308 236 263 293 q 419 146 353 179 q 574 113 486 113 m 574 -315 q 509 -288 535 -315 q 483 -225 483 -261 q 509 -161 483 -187 q 574 -135 535 -135 q 638 -161 613 -135 q 664 -225 664 -187 q 638 -289 664 -262 q 574 -315 613 -315 z "},"Ò":{"ha":1147,"x_min":76,"x_max":1071,"o":"m 524 1153 l 381 1404 l 517 1404 l 636 1154 l 524 1153 m 574 -14 q 358 31 451 -14 q 203 152 265 76 q 108 322 140 228 q 76 515 76 417 q 108 708 76 614 q 203 876 140 801 q 358 997 265 951 q 574 1042 451 1042 q 789 997 696 1042 q 944 876 882 951 q 1039 708 1007 801 q 1071 515 1071 614 q 1039 322 1071 417 q 944 152 1007 228 q 789 31 882 76 q 574 -14 696 -14 m 574 113 q 728 146 661 113 q 840 236 794 179 q 908 365 885 293 q 932 515 932 438 q 908 663 932 592 q 840 792 885 735 q 728 882 794 849 q 574 915 661 915 q 419 882 486 915 q 308 792 353 849 q 239 663 263 735 q 215 515 215 592 q 239 365 215 438 q 308 236 263 293 q 419 146 353 179 q 574 113 486 113 z "},"Ỏ":{"ha":1147,"x_min":76,"x_max":1071,"o":"m 529 1143 l 529 1188 q 535 1215 529 1201 q 557 1238 540 1229 l 576 1247 q 640 1318 640 1279 q 626 1353 640 1338 q 579 1369 611 1369 q 538 1358 551 1369 q 521 1332 525 1346 q 517 1310 517 1318 l 425 1310 q 441 1376 425 1344 q 491 1429 457 1408 q 578 1450 525 1450 q 694 1412 651 1450 q 736 1321 736 1374 q 710 1248 736 1282 q 625 1186 683 1214 l 619 1183 l 619 1143 l 529 1143 m 574 -14 q 358 31 451 -14 q 203 152 265 76 q 108 322 140 228 q 76 515 76 417 q 108 708 76 614 q 203 876 140 801 q 358 997 265 951 q 574 1042 451 1042 q 789 997 696 1042 q 944 876 882 951 q 1039 708 1007 801 q 1071 515 1071 614 q 1039 322 1071 417 q 944 152 1007 228 q 789 31 882 76 q 574 -14 696 -14 m 574 113 q 728 146 661 113 q 840 236 794 179 q 908 365 885 293 q 932 515 932 438 q 908 663 932 592 q 840 792 885 735 q 728 882 794 849 q 574 915 661 915 q 419 882 486 915 q 308 792 353 849 q 239 663 263 735 q 215 515 215 592 q 239 365 215 438 q 308 236 263 293 q 419 146 353 179 q 574 113 486 113 z "},"Ơ":{"ha":1147,"x_min":76,"x_max":1071,"o":"m 574 -14 q 358 31 451 -14 q 203 152 265 76 q 108 322 140 228 q 76 515 76 417 q 108 708 76 614 q 203 876 140 801 q 358 997 265 951 q 574 1042 451 1042 l 818 1042 q 872 1099 872 1042 l 872 1182 l 999 1182 l 999 1099 q 967 992 999 1032 q 868 949 936 953 q 1019 757 968 874 q 1071 515 1071 640 q 1039 322 1071 417 q 944 152 1007 228 q 789 31 882 76 q 574 -14 696 -14 m 574 113 q 728 146 661 113 q 840 236 794 179 q 908 365 885 293 q 932 515 932 438 q 908 663 932 592 q 840 792 885 735 q 728 882 794 849 q 574 915 661 915 q 419 882 486 915 q 308 792 353 849 q 239 663 263 735 q 215 515 215 592 q 239 365 215 438 q 308 236 263 293 q 419 146 353 179 q 574 113 486 113 z "},"Ớ":{"ha":1147,"x_min":76,"x_max":1071,"o":"m 629 1139 l 517 1140 l 636 1390 l 772 1390 l 629 1139 m 574 -14 q 358 31 451 -14 q 203 152 265 76 q 108 322 140 228 q 76 515 76 417 q 108 708 76 614 q 203 876 140 801 q 358 997 265 951 q 574 1042 451 1042 l 818 1042 q 872 1099 872 1042 l 872 1182 l 999 1182 l 999 1099 q 967 992 999 1032 q 868 949 936 953 q 1019 757 968 874 q 1071 515 1071 640 q 1039 322 1071 417 q 944 152 1007 228 q 789 31 882 76 q 574 -14 696 -14 m 574 113 q 728 146 661 113 q 840 236 794 179 q 908 365 885 293 q 932 515 932 438 q 908 663 932 592 q 840 792 885 735 q 728 882 794 849 q 574 915 661 915 q 419 882 486 915 q 308 792 353 849 q 239 663 263 735 q 215 515 215 592 q 239 365 215 438 q 308 236 263 293 q 419 146 353 179 q 574 113 486 113 z "},"Ợ":{"ha":1147,"x_min":76,"x_max":1071,"o":"m 574 -14 q 358 31 451 -14 q 203 152 265 76 q 108 322 140 228 q 76 515 76 417 q 108 708 76 614 q 203 876 140 801 q 358 997 265 951 q 574 1042 451 1042 l 818 1042 q 872 1099 872 1042 l 872 1182 l 999 1182 l 999 1099 q 967 992 999 1032 q 868 949 936 953 q 1019 757 968 874 q 1071 515 1071 640 q 1039 322 1071 417 q 944 152 1007 228 q 789 31 882 76 q 574 -14 696 -14 m 574 113 q 728 146 661 113 q 840 236 794 179 q 908 365 885 293 q 932 515 932 438 q 908 663 932 592 q 840 792 885 735 q 728 882 794 849 q 574 915 661 915 q 419 882 486 915 q 308 792 353 849 q 239 663 263 735 q 215 515 215 592 q 239 365 215 438 q 308 236 263 293 q 419 146 353 179 q 574 113 486 113 m 574 -315 q 509 -288 535 -315 q 483 -225 483 -261 q 509 -161 483 -187 q 574 -135 535 -135 q 638 -161 613 -135 q 664 -225 664 -187 q 638 -289 664 -262 q 574 -315 613 -315 z "},"Ờ":{"ha":1147,"x_min":76,"x_max":1071,"o":"m 524 1139 l 381 1390 l 517 1390 l 636 1140 l 524 1139 m 574 -14 q 358 31 451 -14 q 203 152 265 76 q 108 322 140 228 q 76 515 76 417 q 108 708 76 614 q 203 876 140 801 q 358 997 265 951 q 574 1042 451 1042 l 818 1042 q 872 1099 872 1042 l 872 1182 l 999 1182 l 999 1099 q 967 992 999 1032 q 868 949 936 953 q 1019 757 968 874 q 1071 515 1071 640 q 1039 322 1071 417 q 944 152 1007 228 q 789 31 882 76 q 574 -14 696 -14 m 574 113 q 728 146 661 113 q 840 236 794 179 q 908 365 885 293 q 932 515 932 438 q 908 663 932 592 q 840 792 885 735 q 728 882 794 849 q 574 915 661 915 q 419 882 486 915 q 308 792 353 849 q 239 663 263 735 q 215 515 215 592 q 239 365 215 438 q 308 236 263 293 q 419 146 353 179 q 574 113 486 113 z "},"Ở":{"ha":1147,"x_min":76,"x_max":1071,"o":"m 529 1129 l 529 1174 q 535 1201 529 1188 q 557 1224 540 1215 l 576 1233 q 640 1304 640 1265 q 626 1340 640 1324 q 579 1356 611 1356 q 538 1344 551 1356 q 521 1318 525 1332 q 517 1296 517 1304 l 425 1296 q 441 1363 425 1331 q 491 1415 457 1394 q 578 1436 525 1436 q 694 1398 651 1436 q 736 1307 736 1360 q 710 1234 736 1268 q 625 1172 683 1200 l 619 1169 l 619 1129 l 529 1129 m 574 -14 q 358 31 451 -14 q 203 152 265 76 q 108 322 140 228 q 76 515 76 417 q 108 708 76 614 q 203 876 140 801 q 358 997 265 951 q 574 1042 451 1042 l 818 1042 q 872 1099 872 1042 l 872 1182 l 999 1182 l 999 1099 q 967 992 999 1032 q 868 949 936 953 q 1019 757 968 874 q 1071 515 1071 640 q 1039 322 1071 417 q 944 152 1007 228 q 789 31 882 76 q 574 -14 696 -14 m 574 113 q 728 146 661 113 q 840 236 794 179 q 908 365 885 293 q 932 515 932 438 q 908 663 932 592 q 840 792 885 735 q 728 882 794 849 q 574 915 661 915 q 419 882 486 915 q 308 792 353 849 q 239 663 263 735 q 215 515 215 592 q 239 365 215 438 q 308 236 263 293 q 419 146 353 179 q 574 113 486 113 z "},"Ỡ":{"ha":1147,"x_min":76,"x_max":1071,"o":"m 668 1149 q 605 1163 631 1149 q 560 1194 579 1176 q 525 1226 542 1213 q 489 1240 508 1240 q 455 1217 465 1240 q 444 1157 444 1194 l 356 1157 q 366 1241 356 1200 q 404 1309 376 1282 q 481 1336 432 1336 q 544 1322 518 1336 q 590 1291 571 1308 q 625 1260 608 1274 q 660 1246 642 1246 q 692 1268 682 1246 q 703 1329 703 1290 l 792 1329 q 781 1244 792 1286 q 744 1176 771 1203 q 668 1149 717 1149 m 574 -14 q 358 31 451 -14 q 203 152 265 76 q 108 322 140 228 q 76 515 76 417 q 108 708 76 614 q 203 876 140 801 q 358 997 265 951 q 574 1042 451 1042 l 818 1042 q 872 1099 872 1042 l 872 1182 l 999 1182 l 999 1099 q 967 992 999 1032 q 868 949 936 953 q 1019 757 968 874 q 1071 515 1071 640 q 1039 322 1071 417 q 944 152 1007 228 q 789 31 882 76 q 574 -14 696 -14 m 574 113 q 728 146 661 113 q 840 236 794 179 q 908 365 885 293 q 932 515 932 438 q 908 663 932 592 q 840 792 885 735 q 728 882 794 849 q 574 915 661 915 q 419 882 486 915 q 308 792 353 849 q 239 663 263 735 q 215 515 215 592 q 239 365 215 438 q 308 236 263 293 q 419 146 353 179 q 574 113 486 113 z "},"Ő":{"ha":1147,"x_min":76,"x_max":1071,"o":"m 515 1153 l 403 1154 l 467 1404 l 603 1404 l 515 1153 m 740 1153 l 628 1154 l 692 1404 l 828 1404 l 740 1153 m 574 -14 q 358 31 451 -14 q 203 152 265 76 q 108 322 140 228 q 76 515 76 417 q 108 708 76 614 q 203 876 140 801 q 358 997 265 951 q 574 1042 451 1042 q 789 997 696 1042 q 944 876 882 951 q 1039 708 1007 801 q 1071 515 1071 614 q 1039 322 1071 417 q 944 152 1007 228 q 789 31 882 76 q 574 -14 696 -14 m 574 113 q 728 146 661 113 q 840 236 794 179 q 908 365 885 293 q 932 515 932 438 q 908 663 932 592 q 840 792 885 735 q 728 882 794 849 q 574 915 661 915 q 419 882 486 915 q 308 792 353 849 q 239 663 263 735 q 215 515 215 592 q 239 365 215 438 q 308 236 263 293 q 419 146 353 179 q 574 113 486 113 z "},"Ō":{"ha":1147,"x_min":76,"x_max":1071,"o":"m 363 1175 l 363 1275 l 785 1275 l 785 1175 l 363 1175 m 574 -14 q 358 31 451 -14 q 203 152 265 76 q 108 322 140 228 q 76 515 76 417 q 108 708 76 614 q 203 876 140 801 q 358 997 265 951 q 574 1042 451 1042 q 789 997 696 1042 q 944 876 882 951 q 1039 708 1007 801 q 1071 515 1071 614 q 1039 322 1071 417 q 944 152 1007 228 q 789 31 882 76 q 574 -14 696 -14 m 574 113 q 728 146 661 113 q 840 236 794 179 q 908 365 885 293 q 932 515 932 438 q 908 663 932 592 q 840 792 885 735 q 728 882 794 849 q 574 915 661 915 q 419 882 486 915 q 308 792 353 849 q 239 663 263 735 q 215 515 215 592 q 239 365 215 438 q 308 236 263 293 q 419 146 353 179 q 574 113 486 113 z "},"Ø":{"ha":1147,"x_min":76,"x_max":1071,"o":"m 149 -33 l 242 111 q 118 295 160 188 q 76 515 76 403 q 108 708 76 614 q 203 876 140 801 q 358 997 265 951 q 574 1042 451 1042 q 697 1028 640 1042 q 803 989 754 1014 l 849 1060 l 997 1060 l 906 917 q 1029 734 988 840 q 1071 515 1071 628 q 1039 322 1071 417 q 944 152 1007 228 q 789 31 882 76 q 574 -14 696 -14 q 450 0 507 -14 q 343 39 393 14 l 297 -33 l 149 -33 m 215 515 q 241 359 215 435 q 315 226 267 283 l 733 879 q 659 906 699 896 q 574 915 619 915 q 419 882 486 915 q 308 792 353 849 q 239 663 263 735 q 215 515 215 592 m 574 113 q 728 146 661 113 q 840 236 794 179 q 908 365 885 293 q 932 515 932 438 q 906 670 932 596 q 832 801 881 744 l 414 149 q 488 122 449 132 q 574 113 528 113 z "},"Õ":{"ha":1147,"x_min":76,"x_max":1071,"o":"m 668 1163 q 605 1176 631 1163 q 560 1208 579 1190 q 525 1240 542 1226 q 489 1254 508 1254 q 455 1231 465 1254 q 444 1171 444 1208 l 356 1171 q 366 1255 356 1214 q 404 1323 376 1296 q 481 1350 432 1350 q 544 1336 518 1350 q 590 1305 571 1322 q 625 1274 608 1288 q 660 1260 642 1260 q 692 1282 682 1260 q 703 1343 703 1304 l 792 1343 q 781 1258 792 1300 q 744 1190 771 1217 q 668 1163 717 1163 m 574 -14 q 358 31 451 -14 q 203 152 265 76 q 108 322 140 228 q 76 515 76 417 q 108 708 76 614 q 203 876 140 801 q 358 997 265 951 q 574 1042 451 1042 q 789 997 696 1042 q 944 876 882 951 q 1039 708 1007 801 q 1071 515 1071 614 q 1039 322 1071 417 q 944 152 1007 228 q 789 31 882 76 q 574 -14 696 -14 m 574 113 q 728 146 661 113 q 840 236 794 179 q 908 365 885 293 q 932 515 932 438 q 908 663 932 592 q 840 792 885 735 q 728 882 794 849 q 574 915 661 915 q 419 882 486 915 q 308 792 353 849 q 239 663 263 735 q 215 515 215 592 q 239 365 215 438 q 308 236 263 293 q 419 146 353 179 q 574 113 486 113 z "},"Œ":{"ha":1389,"x_min":76,"x_max":1299,"o":"m 1292 1028 l 1292 908 l 789 908 l 789 583 l 1228 583 l 1228 464 l 789 464 l 789 119 l 1299 119 l 1299 0 l 594 0 q 363 44 461 0 q 202 161 265 88 q 108 326 139 235 q 76 514 76 418 q 108 701 76 610 q 202 867 139 793 q 363 984 265 940 q 594 1028 461 1028 l 1292 1028 m 213 514 q 235 369 213 440 q 306 242 258 299 q 426 153 353 186 q 600 119 500 119 l 653 119 l 653 908 l 600 908 q 426 875 500 908 q 306 785 353 842 q 235 658 258 729 q 213 514 213 588 z "},"P":{"ha":894,"x_min":111,"x_max":832,"o":"m 111 0 l 111 1028 l 478 1028 q 674 979 596 1028 q 792 853 753 931 q 832 693 832 776 q 792 531 832 608 q 674 405 753 454 q 478 356 596 356 l 247 356 l 247 0 l 111 0 m 478 908 l 247 908 l 247 475 l 478 475 q 600 507 551 475 q 673 588 649 539 q 697 692 697 638 q 673 796 697 746 q 600 877 649 846 q 478 908 551 908 z "},"Þ":{"ha":894,"x_min":111,"x_max":832,"o":"m 111 0 l 111 1028 l 247 1028 l 247 850 l 478 850 q 674 801 596 850 q 792 676 753 753 q 832 515 832 599 q 792 353 832 431 q 674 227 753 276 q 478 178 596 178 l 247 178 l 247 0 l 111 0 m 478 731 l 247 731 l 247 297 l 478 297 q 600 329 551 297 q 673 410 649 361 q 697 514 697 460 q 673 617 697 568 q 600 699 649 667 q 478 731 551 731 z "},"Q":{"ha":1142,"x_min":76,"x_max":1100,"o":"m 574 -14 q 358 31 451 -14 q 203 152 265 76 q 108 322 140 228 q 76 515 76 417 q 108 708 76 614 q 203 876 140 801 q 358 997 265 951 q 574 1042 451 1042 q 789 997 696 1042 q 944 876 882 951 q 1039 708 1007 801 q 1071 515 1071 614 q 1040 322 1071 417 q 946 153 1008 228 l 1100 0 l 928 0 l 857 71 q 729 8 800 31 q 574 -14 658 -14 m 574 113 q 676 126 629 113 q 761 165 722 140 l 597 328 l 686 411 l 850 249 q 911 373 890 304 q 932 515 932 442 q 908 663 932 592 q 840 792 885 735 q 728 882 794 849 q 574 915 661 915 q 419 882 486 915 q 308 792 353 849 q 239 663 263 735 q 215 515 215 592 q 239 365 215 438 q 308 236 263 293 q 419 146 353 179 q 574 113 486 113 z "},"R":{"ha":928,"x_min":111,"x_max":838,"o":"m 111 0 l 111 1028 l 475 1028 q 657 985 585 1028 q 765 874 729 942 q 801 731 801 806 q 776 610 801 668 q 702 508 751 551 q 578 444 653 464 l 838 0 l 683 0 l 435 432 l 247 432 l 247 0 l 111 0 m 474 908 l 247 908 l 247 549 l 474 549 q 579 575 538 549 q 642 642 621 601 q 663 728 663 683 q 642 815 663 774 q 579 882 621 856 q 474 908 538 908 z "},"Ŕ":{"ha":942,"x_min":125,"x_max":851,"o":"m 436 1139 l 324 1140 l 443 1390 l 579 1390 l 436 1139 m 125 0 l 125 1028 l 489 1028 q 671 985 599 1028 q 779 874 743 942 q 815 731 815 806 q 790 610 815 668 q 716 508 765 551 q 592 444 667 464 l 851 0 l 697 0 l 449 432 l 261 432 l 261 0 l 125 0 m 488 908 l 261 908 l 261 549 l 488 549 q 593 575 551 549 q 656 642 635 601 q 676 728 676 683 q 656 815 676 774 q 593 882 635 856 q 488 908 551 908 z "},"Ř":{"ha":942,"x_min":125,"x_max":851,"o":"m 325 1118 l 157 1350 l 276 1350 l 381 1201 l 486 1350 l 606 1350 l 438 1118 l 325 1118 m 125 0 l 125 1028 l 489 1028 q 671 985 599 1028 q 779 874 743 942 q 815 731 815 806 q 790 610 815 668 q 716 508 765 551 q 592 444 667 464 l 851 0 l 697 0 l 449 432 l 261 432 l 261 0 l 125 0 m 488 908 l 261 908 l 261 549 l 488 549 q 593 575 551 549 q 656 642 635 601 q 676 728 676 683 q 656 815 676 774 q 593 882 635 856 q 488 908 551 908 z "},"S":{"ha":882,"x_min":75,"x_max":815,"o":"m 456 -14 q 303 9 367 -14 q 199 69 240 32 q 132 146 157 106 q 94 223 107 186 q 78 283 82 260 q 75 306 75 306 l 214 306 q 218 286 214 306 q 235 238 222 267 q 275 178 249 208 q 346 129 301 149 q 458 110 390 110 q 621 159 561 110 q 681 288 681 208 q 635 393 681 356 q 507 451 590 431 l 371 485 q 237 535 299 503 q 138 622 175 568 q 101 756 101 675 q 146 910 101 846 q 267 1008 190 974 q 440 1042 343 1042 q 597 1013 535 1042 q 697 941 660 983 q 753 856 735 899 q 776 785 771 814 q 782 756 782 756 l 649 756 q 643 781 649 756 q 617 838 638 806 q 553 896 596 871 q 436 921 510 921 q 285 874 336 921 q 235 765 235 826 q 275 676 235 710 q 386 624 315 642 l 533 588 q 676 531 613 568 q 778 437 740 494 q 815 296 815 379 q 774 142 815 213 q 653 28 733 71 q 456 -14 574 -14 z "},"Ś":{"ha":882,"x_min":75,"x_max":815,"o":"m 497 1139 l 385 1140 l 504 1390 l 640 1390 l 497 1139 m 456 -14 q 303 9 367 -14 q 199 69 240 32 q 132 146 157 106 q 94 223 107 186 q 78 283 82 260 q 75 306 75 306 l 214 306 q 218 286 214 306 q 235 238 222 267 q 275 178 249 208 q 346 129 301 149 q 458 110 390 110 q 621 159 561 110 q 681 288 681 208 q 635 393 681 356 q 507 451 590 431 l 371 485 q 237 535 299 503 q 138 622 175 568 q 101 756 101 675 q 146 910 101 846 q 267 1008 190 974 q 440 1042 343 1042 q 597 1013 535 1042 q 697 941 660 983 q 753 856 735 899 q 776 785 771 814 q 782 756 782 756 l 649 756 q 643 781 649 756 q 617 838 638 806 q 553 896 596 871 q 436 921 510 921 q 285 874 336 921 q 235 765 235 826 q 275 676 235 710 q 386 624 315 642 l 533 588 q 676 531 613 568 q 778 437 740 494 q 815 296 815 379 q 774 142 815 213 q 653 28 733 71 q 456 -14 574 -14 z "},"Š":{"ha":882,"x_min":75,"x_max":815,"o":"m 386 1118 l 218 1350 l 338 1350 l 442 1201 l 547 1350 l 667 1350 l 499 1118 l 386 1118 m 456 -14 q 303 9 367 -14 q 199 69 240 32 q 132 146 157 106 q 94 223 107 186 q 78 283 82 260 q 75 306 75 306 l 214 306 q 218 286 214 306 q 235 238 222 267 q 275 178 249 208 q 346 129 301 149 q 458 110 390 110 q 621 159 561 110 q 681 288 681 208 q 635 393 681 356 q 507 451 590 431 l 371 485 q 237 535 299 503 q 138 622 175 568 q 101 756 101 675 q 146 910 101 846 q 267 1008 190 974 q 440 1042 343 1042 q 597 1013 535 1042 q 697 941 660 983 q 753 856 735 899 q 776 785 771 814 q 782 756 782 756 l 649 756 q 643 781 649 756 q 617 838 638 806 q 553 896 596 871 q 436 921 510 921 q 285 874 336 921 q 235 765 235 826 q 275 676 235 710 q 386 624 315 642 l 533 588 q 676 531 613 568 q 778 437 740 494 q 815 296 815 379 q 774 142 815 213 q 653 28 733 71 q 456 -14 574 -14 z "},"Ş":{"ha":882,"x_min":75,"x_max":815,"o":"m 408 -360 q 343 -356 375 -360 q 311 -351 311 -351 l 311 -271 q 343 -275 311 -271 q 403 -279 375 -279 q 484 -256 463 -279 q 506 -208 506 -232 q 487 -167 506 -185 q 432 -149 468 -149 q 376 -162 397 -149 q 354 -175 354 -175 l 303 -124 l 374 -7 q 235 42 290 6 q 149 122 181 78 q 101 208 117 167 q 80 278 85 250 q 75 306 75 306 l 214 306 q 218 286 214 306 q 235 238 222 267 q 275 178 249 208 q 346 129 301 149 q 458 110 390 110 q 621 159 561 110 q 681 288 681 208 q 635 393 681 356 q 507 451 590 431 l 371 485 q 237 535 299 503 q 138 622 175 568 q 101 756 101 675 q 146 910 101 846 q 267 1008 190 974 q 440 1042 343 1042 q 597 1013 535 1042 q 697 941 660 983 q 753 856 735 899 q 776 785 771 814 q 782 756 782 756 l 649 756 q 643 781 649 756 q 617 838 638 806 q 553 896 596 871 q 436 921 510 921 q 285 874 336 921 q 235 765 235 826 q 275 676 235 710 q 386 624 315 642 l 533 588 q 676 531 613 568 q 778 437 740 494 q 815 296 815 379 q 775 142 815 213 q 656 28 735 71 q 461 -14 576 -14 l 421 -79 q 461 -74 439 -74 q 562 -114 526 -74 q 597 -207 597 -154 q 578 -278 597 -243 q 517 -337 558 -314 q 408 -360 476 -360 z "},"ẞ":{"ha":936,"x_min":111,"x_max":860,"o":"m 474 -14 q 384 -9 422 -14 q 346 -4 346 -4 l 346 110 q 381 106 346 110 q 458 101 415 101 q 611 128 553 101 q 696 200 669 156 q 722 294 722 244 q 657 426 722 378 q 465 474 592 474 l 438 474 l 438 557 l 681 906 q 658 911 681 906 q 599 922 635 917 q 525 926 564 926 q 317 849 390 926 q 244 629 244 771 l 244 -3 l 111 -3 l 111 629 q 134 785 111 711 q 207 917 157 860 q 337 1008 257 975 q 529 1042 417 1042 q 681 1027 614 1042 q 789 997 749 1013 q 829 982 829 982 l 829 917 l 585 569 q 731 521 669 561 q 826 422 792 481 q 860 294 860 363 q 820 143 860 214 q 696 29 781 72 q 474 -14 611 -14 z "},"T":{"ha":903,"x_min":63,"x_max":840,"o":"m 383 0 l 383 908 l 63 908 l 63 1028 l 840 1028 l 840 908 l 519 908 l 519 0 l 383 0 z "},"Ŧ":{"ha":903,"x_min":63,"x_max":840,"o":"m 383 0 l 383 453 l 117 453 l 117 575 l 383 575 l 383 908 l 63 908 l 63 1028 l 840 1028 l 840 908 l 519 908 l 519 575 l 785 575 l 785 453 l 519 453 l 519 0 l 383 0 z "},"Ť":{"ha":903,"x_min":63,"x_max":840,"o":"m 396 1114 l 228 1346 l 347 1346 l 451 1197 l 557 1346 l 676 1346 l 508 1114 l 396 1114 m 383 0 l 383 908 l 63 908 l 63 1028 l 840 1028 l 840 908 l 519 908 l 519 0 l 383 0 z "},"Ţ":{"ha":903,"x_min":63,"x_max":840,"o":"m 383 0 l 383 908 l 63 908 l 63 1028 l 840 1028 l 840 908 l 519 908 l 519 0 l 469 -79 q 510 -74 488 -74 q 610 -114 575 -74 q 646 -207 646 -154 q 626 -278 646 -243 q 566 -337 607 -314 q 457 -360 525 -360 q 392 -356 424 -360 q 360 -351 360 -351 l 360 -271 q 392 -275 360 -271 q 451 -279 424 -279 q 533 -256 511 -279 q 554 -208 554 -232 q 535 -167 554 -185 q 481 -149 517 -149 q 424 -162 446 -149 q 403 -175 403 -175 l 351 -124 l 426 0 l 383 0 z "},"U":{"ha":1007,"x_min":111,"x_max":896,"o":"m 503 -14 q 294 33 382 -14 q 159 165 207 79 q 111 367 111 250 l 111 1028 l 247 1028 l 247 367 q 310 188 247 260 q 503 115 374 115 q 697 188 633 115 q 760 367 760 260 l 760 1028 l 896 1028 l 896 367 q 848 165 896 250 q 713 33 800 79 q 503 -14 625 -14 z "},"Ú":{"ha":1035,"x_min":125,"x_max":910,"o":"m 567 1139 l 454 1140 l 574 1390 l 710 1390 l 567 1139 m 517 -14 q 308 33 396 -14 q 173 165 221 79 q 125 367 125 250 l 125 1028 l 261 1028 l 261 367 q 324 188 261 260 q 517 115 388 115 q 710 188 647 115 q 774 367 774 260 l 774 1028 l 910 1028 l 910 367 q 862 165 910 250 q 726 33 814 79 q 517 -14 639 -14 z "},"Û":{"ha":1035,"x_min":125,"x_max":910,"o":"m 288 1133 l 456 1365 l 568 1365 l 736 1133 l 617 1133 l 511 1282 l 407 1133 l 288 1133 m 517 -14 q 308 33 396 -14 q 173 165 221 79 q 125 367 125 250 l 125 1028 l 261 1028 l 261 367 q 324 188 261 260 q 517 115 388 115 q 710 188 647 115 q 774 367 774 260 l 774 1028 l 910 1028 l 910 367 q 862 165 910 250 q 726 33 814 79 q 517 -14 639 -14 z "},"Ü":{"ha":1035,"x_min":125,"x_max":910,"o":"m 643 1140 q 581 1165 606 1140 q 557 1225 557 1190 q 581 1286 557 1261 q 643 1311 606 1311 q 704 1286 679 1311 q 729 1225 729 1261 q 704 1165 729 1190 q 643 1140 679 1140 m 379 1140 q 317 1165 342 1140 q 293 1225 293 1190 q 317 1286 293 1261 q 379 1311 342 1311 q 440 1286 415 1311 q 465 1225 465 1261 q 440 1165 465 1190 q 379 1140 415 1140 m 517 -14 q 308 33 396 -14 q 173 165 221 79 q 125 367 125 250 l 125 1028 l 261 1028 l 261 367 q 324 188 261 260 q 517 115 388 115 q 710 188 647 115 q 774 367 774 260 l 774 1028 l 910 1028 l 910 367 q 862 165 910 250 q 726 33 814 79 q 517 -14 639 -14 z "},"Ụ":{"ha":1035,"x_min":125,"x_max":910,"o":"m 517 -14 q 308 33 396 -14 q 173 165 221 79 q 125 367 125 250 l 125 1028 l 261 1028 l 261 367 q 324 188 261 260 q 517 115 388 115 q 710 188 647 115 q 774 367 774 260 l 774 1028 l 910 1028 l 910 367 q 862 165 910 250 q 726 33 814 79 q 517 -14 639 -14 m 513 -315 q 448 -288 474 -315 q 422 -225 422 -261 q 448 -161 422 -187 q 513 -135 474 -135 q 577 -161 551 -135 q 603 -225 603 -187 q 577 -289 603 -262 q 513 -315 551 -315 z "},"Ù":{"ha":1035,"x_min":125,"x_max":910,"o":"m 461 1139 l 318 1390 l 454 1390 l 574 1140 l 461 1139 m 517 -14 q 308 33 396 -14 q 173 165 221 79 q 125 367 125 250 l 125 1028 l 261 1028 l 261 367 q 324 188 261 260 q 517 115 388 115 q 710 188 647 115 q 774 367 774 260 l 774 1028 l 910 1028 l 910 367 q 862 165 910 250 q 726 33 814 79 q 517 -14 639 -14 z "},"Ủ":{"ha":1035,"x_min":125,"x_max":910,"o":"m 467 1129 l 467 1174 q 472 1201 467 1188 q 494 1224 478 1215 l 514 1233 q 578 1304 578 1265 q 563 1340 578 1324 q 517 1356 549 1356 q 476 1344 489 1356 q 458 1318 463 1332 q 454 1296 454 1304 l 363 1296 q 378 1363 363 1331 q 428 1415 394 1394 q 515 1436 463 1436 q 631 1398 589 1436 q 674 1307 674 1360 q 647 1234 674 1268 q 563 1172 621 1200 l 557 1169 l 557 1129 l 467 1129 m 517 -14 q 308 33 396 -14 q 173 165 221 79 q 125 367 125 250 l 125 1028 l 261 1028 l 261 367 q 324 188 261 260 q 517 115 388 115 q 710 188 647 115 q 774 367 774 260 l 774 1028 l 910 1028 l 910 367 q 862 165 910 250 q 726 33 814 79 q 517 -14 639 -14 z "},"Ư":{"ha":1035,"x_min":125,"x_max":1074,"o":"m 517 -14 q 308 33 396 -14 q 173 165 221 79 q 125 367 125 250 l 125 1028 l 261 1028 l 261 367 q 324 188 261 260 q 517 115 388 115 q 710 188 647 115 q 774 367 774 260 l 774 1028 l 893 1028 q 947 1085 947 1028 l 947 1168 l 1074 1168 l 1074 1086 q 1039 982 1074 1025 q 933 939 1004 939 l 910 939 l 910 367 q 862 165 910 250 q 726 33 814 79 q 517 -14 639 -14 z "},"Ứ":{"ha":1035,"x_min":125,"x_max":1074,"o":"m 588 1139 l 475 1140 l 594 1390 l 731 1390 l 588 1139 m 517 -14 q 308 33 396 -14 q 173 165 221 79 q 125 367 125 250 l 125 1028 l 261 1028 l 261 367 q 324 188 261 260 q 517 115 388 115 q 710 188 647 115 q 774 367 774 260 l 774 1028 l 893 1028 q 947 1085 947 1028 l 947 1168 l 1074 1168 l 1074 1086 q 1039 982 1074 1025 q 933 939 1004 939 l 910 939 l 910 367 q 862 165 910 250 q 726 33 814 79 q 517 -14 639 -14 z "},"Ự":{"ha":1035,"x_min":125,"x_max":1074,"o":"m 517 -14 q 308 33 396 -14 q 173 165 221 79 q 125 367 125 250 l 125 1028 l 261 1028 l 261 367 q 324 188 261 260 q 517 115 388 115 q 710 188 647 115 q 774 367 774 260 l 774 1028 l 893 1028 q 947 1085 947 1028 l 947 1168 l 1074 1168 l 1074 1086 q 1039 982 1074 1025 q 933 939 1004 939 l 910 939 l 910 367 q 862 165 910 250 q 726 33 814 79 q 517 -14 639 -14 m 532 -315 q 467 -288 493 -315 q 442 -225 442 -261 q 467 -161 442 -187 q 532 -135 493 -135 q 597 -161 571 -135 q 622 -225 622 -187 q 597 -289 622 -262 q 532 -315 571 -315 z "},"Ừ":{"ha":1035,"x_min":125,"x_max":1074,"o":"m 482 1139 l 339 1390 l 475 1390 l 594 1140 l 482 1139 m 517 -14 q 308 33 396 -14 q 173 165 221 79 q 125 367 125 250 l 125 1028 l 261 1028 l 261 367 q 324 188 261 260 q 517 115 388 115 q 710 188 647 115 q 774 367 774 260 l 774 1028 l 893 1028 q 947 1085 947 1028 l 947 1168 l 1074 1168 l 1074 1086 q 1039 982 1074 1025 q 933 939 1004 939 l 910 939 l 910 367 q 862 165 910 250 q 726 33 814 79 q 517 -14 639 -14 z "},"Ử":{"ha":1035,"x_min":125,"x_max":1074,"o":"m 488 1129 l 488 1174 q 493 1201 488 1188 q 515 1224 499 1215 l 535 1233 q 599 1304 599 1265 q 584 1340 599 1324 q 538 1356 569 1356 q 497 1344 510 1356 q 479 1318 483 1332 q 475 1296 475 1304 l 383 1296 q 399 1363 383 1331 q 449 1415 415 1394 q 536 1436 483 1436 q 652 1398 610 1436 q 694 1307 694 1360 q 668 1234 694 1268 q 583 1172 642 1200 l 578 1169 l 578 1129 l 488 1129 m 517 -14 q 308 33 396 -14 q 173 165 221 79 q 125 367 125 250 l 125 1028 l 261 1028 l 261 367 q 324 188 261 260 q 517 115 388 115 q 710 188 647 115 q 774 367 774 260 l 774 1028 l 893 1028 q 947 1085 947 1028 l 947 1168 l 1074 1168 l 1074 1086 q 1039 982 1074 1025 q 933 939 1004 939 l 910 939 l 910 367 q 862 165 910 250 q 726 33 814 79 q 517 -14 639 -14 z "},"Ữ":{"ha":1035,"x_min":125,"x_max":1074,"o":"m 626 1149 q 563 1163 589 1149 q 519 1194 538 1176 q 483 1226 500 1213 q 447 1240 467 1240 q 413 1217 424 1240 q 403 1157 403 1194 l 314 1157 q 324 1241 314 1200 q 363 1309 335 1282 q 439 1336 390 1336 q 503 1322 476 1336 q 548 1291 529 1308 q 583 1260 567 1274 q 618 1246 600 1246 q 651 1268 640 1246 q 661 1329 661 1290 l 750 1329 q 740 1244 750 1286 q 702 1176 729 1203 q 626 1149 675 1149 m 517 -14 q 308 33 396 -14 q 173 165 221 79 q 125 367 125 250 l 125 1028 l 261 1028 l 261 367 q 324 188 261 260 q 517 115 388 115 q 710 188 647 115 q 774 367 774 260 l 774 1028 l 893 1028 q 947 1085 947 1028 l 947 1168 l 1074 1168 l 1074 1086 q 1039 982 1074 1025 q 933 939 1004 939 l 910 939 l 910 367 q 862 165 910 250 q 726 33 814 79 q 517 -14 639 -14 z "},"Ű":{"ha":1035,"x_min":125,"x_max":910,"o":"m 453 1139 l 340 1140 l 404 1390 l 540 1390 l 453 1139 m 678 1139 l 565 1140 l 629 1390 l 765 1390 l 678 1139 m 517 -14 q 308 33 396 -14 q 173 165 221 79 q 125 367 125 250 l 125 1028 l 261 1028 l 261 367 q 324 188 261 260 q 517 115 388 115 q 710 188 647 115 q 774 367 774 260 l 774 1028 l 910 1028 l 910 367 q 862 165 910 250 q 726 33 814 79 q 517 -14 639 -14 z "},"Ū":{"ha":1035,"x_min":125,"x_max":910,"o":"m 300 1161 l 300 1261 l 722 1261 l 722 1161 l 300 1161 m 517 -14 q 308 33 396 -14 q 173 165 221 79 q 125 367 125 250 l 125 1028 l 261 1028 l 261 367 q 324 188 261 260 q 517 115 388 115 q 710 188 647 115 q 774 367 774 260 l 774 1028 l 910 1028 l 910 367 q 862 165 910 250 q 726 33 814 79 q 517 -14 639 -14 z "},"Ų":{"ha":1035,"x_min":125,"x_max":910,"o":"m 565 -244 q 442 -208 483 -244 q 400 -119 400 -171 q 419 -54 400 -81 q 461 -11 438 -28 q 215 104 304 4 q 125 367 125 204 l 125 1028 l 261 1028 l 261 367 q 324 188 261 260 q 517 115 388 115 q 710 188 647 115 q 774 367 774 260 l 774 1028 l 910 1028 l 910 367 q 822 106 910 206 q 578 -11 733 7 q 553 -25 569 -14 q 522 -53 536 -36 q 508 -96 508 -71 q 528 -138 508 -121 q 588 -156 549 -156 q 623 -152 607 -156 q 639 -149 639 -149 l 639 -236 q 618 -240 639 -236 q 565 -244 597 -244 z "},"Ů":{"ha":1035,"x_min":125,"x_max":910,"o":"m 511 1128 q 422 1151 463 1128 q 356 1216 381 1175 q 332 1306 332 1257 q 356 1396 332 1356 q 422 1460 381 1436 q 511 1483 463 1483 q 600 1460 560 1483 q 665 1396 640 1436 q 689 1306 689 1356 q 665 1216 689 1257 q 600 1151 640 1175 q 511 1128 560 1128 m 511 1222 q 570 1247 546 1222 q 594 1306 594 1271 q 570 1365 594 1340 q 511 1389 546 1389 q 451 1365 476 1389 q 426 1306 426 1340 q 451 1247 426 1271 q 511 1222 476 1222 m 517 -14 q 308 33 396 -14 q 173 165 221 79 q 125 367 125 250 l 125 1028 l 261 1028 l 261 367 q 324 188 261 260 q 517 115 388 115 q 710 188 647 115 q 774 367 774 260 l 774 1028 l 910 1028 l 910 367 q 862 165 910 250 q 726 33 814 79 q 517 -14 639 -14 z "},"Ũ":{"ha":1035,"x_min":125,"x_max":910,"o":"m 606 1149 q 542 1163 568 1149 q 498 1194 517 1176 q 463 1226 479 1213 q 426 1240 446 1240 q 392 1217 403 1240 q 382 1157 382 1194 l 293 1157 q 303 1241 293 1200 q 342 1309 314 1282 q 418 1336 369 1336 q 482 1322 456 1336 q 527 1291 508 1308 q 563 1260 546 1274 q 597 1246 579 1246 q 630 1268 619 1246 q 640 1329 640 1290 l 729 1329 q 719 1244 729 1286 q 681 1176 708 1203 q 606 1149 654 1149 m 517 -14 q 308 33 396 -14 q 173 165 221 79 q 125 367 125 250 l 125 1028 l 261 1028 l 261 367 q 324 188 261 260 q 517 115 388 115 q 710 188 647 115 q 774 367 774 260 l 774 1028 l 910 1028 l 910 367 q 862 165 910 250 q 726 33 814 79 q 517 -14 639 -14 z "},"V":{"ha":981,"x_min":42,"x_max":939,"o":"m 404 0 l 42 1028 l 186 1028 l 490 156 l 794 1028 l 939 1028 l 575 0 l 404 0 z "},"W":{"ha":1396,"x_min":56,"x_max":1340,"o":"m 329 0 l 56 1028 l 196 1028 l 408 200 l 632 1028 l 765 1028 l 989 203 l 1200 1028 l 1340 1028 l 1067 0 l 911 0 l 699 790 l 485 0 l 329 0 z "},"Ẃ":{"ha":1354,"x_min":35,"x_max":1319,"o":"m 733 1139 l 621 1140 l 740 1390 l 876 1390 l 733 1139 m 308 0 l 35 1028 l 175 1028 l 388 200 l 611 1028 l 744 1028 l 968 203 l 1179 1028 l 1319 1028 l 1046 0 l 890 0 l 678 790 l 464 0 l 308 0 z "},"Ŵ":{"ha":1354,"x_min":35,"x_max":1319,"o":"m 454 1133 l 622 1365 l 735 1365 l 903 1133 l 783 1133 l 678 1282 l 574 1133 l 454 1133 m 308 0 l 35 1028 l 175 1028 l 388 200 l 611 1028 l 744 1028 l 968 203 l 1179 1028 l 1319 1028 l 1046 0 l 890 0 l 678 790 l 464 0 l 308 0 z "},"Ẅ":{"ha":1354,"x_min":35,"x_max":1319,"o":"m 810 1140 q 748 1165 772 1140 q 724 1225 724 1190 q 748 1286 724 1261 q 810 1311 772 1311 q 871 1286 846 1311 q 896 1225 896 1261 q 871 1165 896 1190 q 810 1140 846 1140 m 546 1140 q 484 1165 508 1140 q 460 1225 460 1190 q 484 1286 460 1261 q 546 1311 508 1311 q 607 1286 582 1311 q 632 1225 632 1261 q 607 1165 632 1190 q 546 1140 582 1140 m 308 0 l 35 1028 l 175 1028 l 388 200 l 611 1028 l 744 1028 l 968 203 l 1179 1028 l 1319 1028 l 1046 0 l 890 0 l 678 790 l 464 0 l 308 0 z "},"Ẁ":{"ha":1354,"x_min":35,"x_max":1319,"o":"m 628 1139 l 485 1390 l 621 1390 l 740 1140 l 628 1139 m 308 0 l 35 1028 l 175 1028 l 388 200 l 611 1028 l 744 1028 l 968 203 l 1179 1028 l 1319 1028 l 1046 0 l 890 0 l 678 790 l 464 0 l 308 0 z "},"X":{"ha":1000,"x_min":76,"x_max":924,"o":"m 76 0 l 407 514 l 76 1028 l 239 1028 l 500 615 l 761 1028 l 924 1028 l 590 514 l 924 0 l 761 0 l 500 413 l 239 0 l 76 0 z "},"Y":{"ha":924,"x_min":35,"x_max":889,"o":"m 394 0 l 394 365 l 35 1028 l 183 1028 l 463 504 l 740 1028 l 889 1028 l 529 365 l 529 0 l 394 0 z "},"Ý":{"ha":924,"x_min":35,"x_max":889,"o":"m 522 1135 l 410 1136 l 529 1386 l 665 1386 l 522 1135 m 394 0 l 394 365 l 35 1028 l 183 1028 l 463 504 l 740 1028 l 889 1028 l 529 365 l 529 0 l 394 0 z "},"Ŷ":{"ha":924,"x_min":35,"x_max":889,"o":"m 243 1129 l 411 1361 l 524 1361 l 692 1129 l 572 1129 l 467 1278 l 363 1129 l 243 1129 m 394 0 l 394 365 l 35 1028 l 183 1028 l 463 504 l 740 1028 l 889 1028 l 529 365 l 529 0 l 394 0 z "},"Ÿ":{"ha":924,"x_min":35,"x_max":889,"o":"m 599 1136 q 537 1161 561 1136 q 513 1221 513 1186 q 537 1282 513 1257 q 599 1307 561 1307 q 660 1282 635 1307 q 685 1221 685 1257 q 660 1161 685 1186 q 599 1136 635 1136 m 335 1136 q 273 1161 297 1136 q 249 1221 249 1186 q 273 1282 249 1257 q 335 1307 297 1307 q 396 1282 371 1307 q 421 1221 421 1257 q 396 1161 421 1186 q 335 1136 371 1136 m 394 0 l 394 365 l 35 1028 l 183 1028 l 463 504 l 740 1028 l 889 1028 l 529 365 l 529 0 l 394 0 z "},"Ỵ":{"ha":924,"x_min":35,"x_max":889,"o":"m 394 0 l 394 365 l 35 1028 l 183 1028 l 463 504 l 740 1028 l 889 1028 l 529 365 l 529 0 l 394 0 m 467 -315 q 402 -288 428 -315 q 376 -225 376 -261 q 402 -161 376 -187 q 467 -135 428 -135 q 531 -161 506 -135 q 557 -225 557 -187 q 531 -289 557 -262 q 467 -315 506 -315 z "},"Ỳ":{"ha":924,"x_min":35,"x_max":889,"o":"m 417 1135 l 274 1386 l 410 1386 l 529 1136 l 417 1135 m 394 0 l 394 365 l 35 1028 l 183 1028 l 463 504 l 740 1028 l 889 1028 l 529 365 l 529 0 l 394 0 z "},"Ỷ":{"ha":924,"x_min":35,"x_max":889,"o":"m 422 1125 l 422 1169 q 428 1197 422 1183 q 450 1219 433 1211 l 469 1229 q 533 1300 533 1261 q 519 1335 533 1319 q 472 1351 504 1351 q 431 1340 444 1351 q 414 1314 418 1328 q 410 1292 410 1300 l 318 1292 q 334 1358 318 1326 q 384 1411 350 1390 q 471 1432 418 1432 q 587 1394 544 1432 q 629 1303 629 1356 q 603 1230 629 1264 q 518 1168 576 1196 l 513 1165 l 513 1125 l 422 1125 m 394 0 l 394 365 l 35 1028 l 183 1028 l 463 504 l 740 1028 l 889 1028 l 529 365 l 529 0 l 394 0 z "},"Ỹ":{"ha":924,"x_min":35,"x_max":889,"o":"m 561 1144 q 498 1158 524 1144 q 453 1190 472 1172 q 418 1222 435 1208 q 382 1236 401 1236 q 348 1213 358 1236 q 338 1153 338 1190 l 249 1153 q 259 1237 249 1196 q 297 1305 269 1278 q 374 1332 325 1332 q 438 1318 411 1332 q 483 1287 464 1304 q 518 1256 501 1269 q 553 1242 535 1242 q 585 1264 575 1242 q 596 1325 596 1286 l 685 1325 q 674 1240 685 1282 q 637 1172 664 1199 q 561 1144 610 1144 m 394 0 l 394 365 l 35 1028 l 183 1028 l 463 504 l 740 1028 l 889 1028 l 529 365 l 529 0 l 394 0 z "},"Z":{"ha":917,"x_min":89,"x_max":825,"o":"m 89 0 l 89 104 l 657 908 l 89 908 l 89 1028 l 825 1028 l 825 924 l 256 119 l 825 119 l 825 0 l 89 0 z "},"Ź":{"ha":917,"x_min":89,"x_max":825,"o":"m 501 1139 l 389 1140 l 508 1390 l 644 1390 l 501 1139 m 89 0 l 89 104 l 657 908 l 89 908 l 89 1028 l 825 1028 l 825 924 l 256 119 l 825 119 l 825 0 l 89 0 z "},"Ž":{"ha":917,"x_min":89,"x_max":825,"o":"m 390 1118 l 222 1350 l 342 1350 l 446 1201 l 551 1350 l 671 1350 l 503 1118 l 390 1118 m 89 0 l 89 104 l 657 908 l 89 908 l 89 1028 l 825 1028 l 825 924 l 256 119 l 825 119 l 825 0 l 89 0 z "},"Ż":{"ha":917,"x_min":89,"x_max":825,"o":"m 446 1168 q 384 1193 408 1168 q 360 1253 360 1218 q 384 1314 360 1289 q 446 1339 408 1339 q 507 1314 482 1339 q 532 1253 532 1289 q 507 1193 532 1218 q 446 1168 482 1168 m 89 0 l 89 104 l 657 908 l 89 908 l 89 1028 l 825 1028 l 825 924 l 256 119 l 825 119 l 825 0 l 89 0 z "},"a":{"ha":892,"x_min":83,"x_max":794,"o":"m 417 750 q 533 728 486 750 q 610 676 581 706 q 654 619 639 646 l 663 619 l 663 736 l 794 736 l 794 0 l 663 0 l 663 117 l 654 117 q 610 60 639 90 q 533 8 581 29 q 417 -14 486 -14 q 271 19 333 -14 q 167 106 208 51 q 104 229 125 161 q 83 368 83 297 q 104 507 83 439 q 167 630 125 575 q 271 717 208 685 q 417 750 333 750 m 439 638 q 315 598 365 638 q 241 497 265 558 q 217 368 217 436 q 241 240 217 301 q 315 138 265 178 q 439 99 365 99 q 562 138 513 99 q 635 240 611 178 q 660 368 660 301 q 635 497 660 436 q 562 598 611 558 q 439 638 513 638 z "},"á":{"ha":907,"x_min":90,"x_max":801,"o":"m 510 847 l 397 849 l 517 1099 l 653 1099 l 510 847 m 424 750 q 540 728 493 750 q 617 676 588 706 q 661 619 646 646 l 669 619 l 669 736 l 801 736 l 801 0 l 669 0 l 669 117 l 661 117 q 617 60 646 90 q 540 8 588 29 q 424 -14 493 -14 q 278 19 340 -14 q 174 106 215 51 q 111 229 132 161 q 90 368 90 297 q 111 507 90 439 q 174 630 132 575 q 278 717 215 685 q 424 750 340 750 m 446 638 q 322 598 372 638 q 248 497 272 558 q 224 368 224 436 q 248 240 224 301 q 322 138 272 178 q 446 99 372 99 q 569 138 519 99 q 642 240 618 178 q 667 368 667 301 q 642 497 667 436 q 569 598 618 558 q 446 638 519 638 z "},"ă":{"ha":907,"x_min":90,"x_max":801,"o":"m 454 840 q 345 862 388 840 q 279 915 303 883 q 246 977 256 946 q 234 1030 236 1008 q 232 1051 232 1051 l 331 1051 q 333 1033 331 1051 q 347 990 336 1014 q 383 948 357 967 q 454 929 408 929 q 526 948 500 929 q 562 990 551 967 q 575 1033 572 1014 q 578 1051 578 1051 l 676 1051 q 674 1030 676 1051 q 663 977 672 1008 q 629 915 653 946 q 563 862 606 883 q 454 840 521 840 m 424 750 q 540 728 493 750 q 617 676 588 706 q 661 619 646 646 l 669 619 l 669 736 l 801 736 l 801 0 l 669 0 l 669 117 l 661 117 q 617 60 646 90 q 540 8 588 29 q 424 -14 493 -14 q 278 19 340 -14 q 174 106 215 51 q 111 229 132 161 q 90 368 90 297 q 111 507 90 439 q 174 630 132 575 q 278 717 215 685 q 424 750 340 750 m 446 638 q 322 598 372 638 q 248 497 272 558 q 224 368 224 436 q 248 240 224 301 q 322 138 272 178 q 446 99 372 99 q 569 138 519 99 q 642 240 618 178 q 667 368 667 301 q 642 497 667 436 q 569 598 618 558 q 446 638 519 638 z "},"ắ":{"ha":907,"x_min":90,"x_max":801,"o":"m 510 1076 l 397 1078 l 517 1328 l 653 1328 l 510 1076 m 454 840 q 347 860 389 840 q 282 910 306 881 q 248 968 258 939 q 235 1017 238 997 q 232 1038 232 1038 l 331 1038 q 334 1021 331 1038 q 349 983 338 1004 q 385 944 360 961 q 454 928 411 928 q 524 944 499 928 q 560 983 549 961 q 574 1021 571 1004 q 578 1038 578 1038 l 676 1038 q 674 1017 676 1038 q 660 968 671 997 q 626 910 650 939 q 561 860 603 881 q 454 840 519 840 m 424 750 q 540 728 493 750 q 617 676 588 706 q 661 619 646 646 l 669 619 l 669 736 l 801 736 l 801 0 l 669 0 l 669 117 l 661 117 q 617 60 646 90 q 540 8 588 29 q 424 -14 493 -14 q 278 19 340 -14 q 174 106 215 51 q 111 229 132 161 q 90 368 90 297 q 111 507 90 439 q 174 630 132 575 q 278 717 215 685 q 424 750 340 750 m 446 638 q 322 598 372 638 q 248 497 272 558 q 224 368 224 436 q 248 240 224 301 q 322 138 272 178 q 446 99 372 99 q 569 138 519 99 q 642 240 618 178 q 667 368 667 301 q 642 497 667 436 q 569 598 618 558 q 446 638 519 638 z "},"ặ":{"ha":907,"x_min":90,"x_max":801,"o":"m 454 840 q 345 862 388 840 q 279 915 303 883 q 246 977 256 946 q 234 1030 236 1008 q 232 1051 232 1051 l 331 1051 q 333 1033 331 1051 q 347 990 336 1014 q 383 948 357 967 q 454 929 408 929 q 526 948 500 929 q 562 990 551 967 q 575 1033 572 1014 q 578 1051 578 1051 l 676 1051 q 674 1030 676 1051 q 663 977 672 1008 q 629 915 653 946 q 563 862 606 883 q 454 840 521 840 m 424 750 q 540 728 493 750 q 617 676 588 706 q 661 619 646 646 l 669 619 l 669 736 l 801 736 l 801 0 l 669 0 l 669 117 l 661 117 q 617 60 646 90 q 540 8 588 29 q 424 -14 493 -14 q 278 19 340 -14 q 174 106 215 51 q 111 229 132 161 q 90 368 90 297 q 111 507 90 439 q 174 630 132 575 q 278 717 215 685 q 424 750 340 750 m 446 638 q 322 598 372 638 q 248 497 272 558 q 224 368 224 436 q 248 240 224 301 q 322 138 272 178 q 446 99 372 99 q 569 138 519 99 q 642 240 618 178 q 667 368 667 301 q 642 497 667 436 q 569 598 618 558 q 446 638 519 638 m 454 -315 q 390 -288 415 -315 q 364 -225 364 -261 q 390 -161 364 -187 q 454 -135 415 -135 q 519 -161 493 -135 q 544 -225 544 -187 q 519 -289 544 -262 q 454 -315 493 -315 z "},"ằ":{"ha":907,"x_min":90,"x_max":801,"o":"m 401 1076 l 258 1328 l 394 1328 l 514 1078 l 401 1076 m 451 840 q 344 860 386 840 q 279 910 303 881 q 245 968 256 939 q 232 1017 235 997 q 229 1038 229 1038 l 328 1038 q 331 1021 328 1038 q 346 983 335 1004 q 383 944 357 961 q 451 928 408 928 q 521 944 496 928 q 557 983 546 961 q 572 1021 568 1004 q 575 1038 575 1038 l 674 1038 q 671 1017 674 1038 q 658 968 668 997 q 624 910 647 939 q 558 860 600 881 q 451 840 517 840 m 424 750 q 540 728 493 750 q 617 676 588 706 q 661 619 646 646 l 669 619 l 669 736 l 801 736 l 801 0 l 669 0 l 669 117 l 661 117 q 617 60 646 90 q 540 8 588 29 q 424 -14 493 -14 q 278 19 340 -14 q 174 106 215 51 q 111 229 132 161 q 90 368 90 297 q 111 507 90 439 q 174 630 132 575 q 278 717 215 685 q 424 750 340 750 m 446 638 q 322 598 372 638 q 248 497 272 558 q 224 368 224 436 q 248 240 224 301 q 322 138 272 178 q 446 99 372 99 q 569 138 519 99 q 642 240 618 178 q 667 368 667 301 q 642 497 667 436 q 569 598 618 558 q 446 638 519 638 z "},"ẳ":{"ha":907,"x_min":90,"x_max":801,"o":"m 407 1067 l 407 1111 q 413 1139 407 1125 q 435 1161 418 1153 l 454 1171 q 518 1242 518 1203 q 503 1277 518 1261 q 457 1293 489 1293 q 416 1281 429 1293 q 399 1256 403 1269 q 394 1233 394 1242 l 303 1233 q 319 1300 303 1268 q 369 1353 335 1332 q 456 1374 403 1374 q 572 1335 529 1374 q 614 1244 614 1297 q 588 1172 614 1206 q 503 1110 561 1138 l 497 1107 l 497 1067 l 407 1067 m 451 840 q 344 860 386 840 q 279 910 303 881 q 245 968 256 939 q 232 1017 235 997 q 229 1038 229 1038 l 328 1038 q 331 1021 328 1038 q 346 983 335 1004 q 383 944 357 961 q 451 928 408 928 q 521 944 496 928 q 557 983 546 961 q 572 1021 568 1004 q 575 1038 575 1038 l 674 1038 q 671 1017 674 1038 q 658 968 668 997 q 624 910 647 939 q 558 860 600 881 q 451 840 517 840 m 424 750 q 540 728 493 750 q 617 676 588 706 q 661 619 646 646 l 669 619 l 669 736 l 801 736 l 801 0 l 669 0 l 669 117 l 661 117 q 617 60 646 90 q 540 8 588 29 q 424 -14 493 -14 q 278 19 340 -14 q 174 106 215 51 q 111 229 132 161 q 90 368 90 297 q 111 507 90 439 q 174 630 132 575 q 278 717 215 685 q 424 750 340 750 m 446 638 q 322 598 372 638 q 248 497 272 558 q 224 368 224 436 q 248 240 224 301 q 322 138 272 178 q 446 99 372 99 q 569 138 519 99 q 642 240 618 178 q 667 368 667 301 q 642 497 667 436 q 569 598 618 558 q 446 638 519 638 z "},"ẵ":{"ha":907,"x_min":90,"x_max":801,"o":"m 549 1100 q 485 1114 511 1100 q 441 1146 460 1128 q 406 1178 422 1164 q 369 1192 389 1192 q 335 1169 346 1192 q 325 1108 325 1146 l 236 1108 q 247 1192 236 1151 q 285 1260 257 1233 q 361 1288 313 1288 q 425 1274 399 1288 q 470 1242 451 1260 q 506 1211 489 1225 q 540 1197 522 1197 q 573 1219 563 1197 q 583 1281 583 1242 l 672 1281 q 662 1196 672 1238 q 624 1127 651 1154 q 549 1100 597 1100 m 454 840 q 347 860 389 840 q 282 910 306 881 q 248 968 258 939 q 235 1017 238 997 q 232 1038 232 1038 l 331 1038 q 334 1021 331 1038 q 349 983 338 1004 q 385 944 360 961 q 454 928 411 928 q 524 944 499 928 q 560 983 549 961 q 574 1021 571 1004 q 578 1038 578 1038 l 676 1038 q 674 1017 676 1038 q 660 968 671 997 q 626 910 650 939 q 561 860 603 881 q 454 840 519 840 m 424 750 q 540 728 493 750 q 617 676 588 706 q 661 619 646 646 l 669 619 l 669 736 l 801 736 l 801 0 l 669 0 l 669 117 l 661 117 q 617 60 646 90 q 540 8 588 29 q 424 -14 493 -14 q 278 19 340 -14 q 174 106 215 51 q 111 229 132 161 q 90 368 90 297 q 111 507 90 439 q 174 630 132 575 q 278 717 215 685 q 424 750 340 750 m 446 638 q 322 598 372 638 q 248 497 272 558 q 224 368 224 436 q 248 240 224 301 q 322 138 272 178 q 446 99 372 99 q 569 138 519 99 q 642 240 618 178 q 667 368 667 301 q 642 497 667 436 q 569 598 618 558 q 446 638 519 638 z "},"â":{"ha":907,"x_min":90,"x_max":801,"o":"m 231 842 l 399 1074 l 511 1074 l 679 842 l 560 842 l 454 990 l 350 842 l 231 842 m 424 750 q 540 728 493 750 q 617 676 588 706 q 661 619 646 646 l 669 619 l 669 736 l 801 736 l 801 0 l 669 0 l 669 117 l 661 117 q 617 60 646 90 q 540 8 588 29 q 424 -14 493 -14 q 278 19 340 -14 q 174 106 215 51 q 111 229 132 161 q 90 368 90 297 q 111 507 90 439 q 174 630 132 575 q 278 717 215 685 q 424 750 340 750 m 446 638 q 322 598 372 638 q 248 497 272 558 q 224 368 224 436 q 248 240 224 301 q 322 138 272 178 q 446 99 372 99 q 569 138 519 99 q 642 240 618 178 q 667 368 667 301 q 642 497 667 436 q 569 598 618 558 q 446 638 519 638 z "},"ấ":{"ha":907,"x_min":90,"x_max":865,"o":"m 722 1019 l 610 1021 l 729 1271 l 865 1271 l 722 1019 m 231 842 l 399 1046 l 511 1046 l 679 842 l 560 842 l 454 969 l 350 842 l 231 842 m 424 750 q 540 728 493 750 q 617 676 588 706 q 661 619 646 646 l 669 619 l 669 736 l 801 736 l 801 0 l 669 0 l 669 117 l 661 117 q 617 60 646 90 q 540 8 588 29 q 424 -14 493 -14 q 278 19 340 -14 q 174 106 215 51 q 111 229 132 161 q 90 368 90 297 q 111 507 90 439 q 174 630 132 575 q 278 717 215 685 q 424 750 340 750 m 446 638 q 322 598 372 638 q 248 497 272 558 q 224 368 224 436 q 248 240 224 301 q 322 138 272 178 q 446 99 372 99 q 569 138 519 99 q 642 240 618 178 q 667 368 667 301 q 642 497 667 436 q 569 598 618 558 q 446 638 519 638 z "},"ậ":{"ha":907,"x_min":90,"x_max":801,"o":"m 231 842 l 399 1074 l 511 1074 l 679 842 l 560 842 l 454 990 l 350 842 l 231 842 m 424 750 q 540 728 493 750 q 617 676 588 706 q 661 619 646 646 l 669 619 l 669 736 l 801 736 l 801 0 l 669 0 l 669 117 l 661 117 q 617 60 646 90 q 540 8 588 29 q 424 -14 493 -14 q 278 19 340 -14 q 174 106 215 51 q 111 229 132 161 q 90 368 90 297 q 111 507 90 439 q 174 630 132 575 q 278 717 215 685 q 424 750 340 750 m 446 638 q 322 598 372 638 q 248 497 272 558 q 224 368 224 436 q 248 240 224 301 q 322 138 272 178 q 446 99 372 99 q 569 138 519 99 q 642 240 618 178 q 667 368 667 301 q 642 497 667 436 q 569 598 618 558 q 446 638 519 638 m 454 -315 q 390 -288 415 -315 q 364 -225 364 -261 q 390 -161 364 -187 q 454 -135 415 -135 q 519 -161 493 -135 q 544 -225 544 -187 q 519 -289 544 -262 q 454 -315 493 -315 z "},"ầ":{"ha":907,"x_min":90,"x_max":801,"o":"m 644 1019 l 501 1271 l 638 1271 l 757 1021 l 644 1019 m 231 842 l 399 1046 l 511 1046 l 679 842 l 560 842 l 454 969 l 350 842 l 231 842 m 424 750 q 540 728 493 750 q 617 676 588 706 q 661 619 646 646 l 669 619 l 669 736 l 801 736 l 801 0 l 669 0 l 669 117 l 661 117 q 617 60 646 90 q 540 8 588 29 q 424 -14 493 -14 q 278 19 340 -14 q 174 106 215 51 q 111 229 132 161 q 90 368 90 297 q 111 507 90 439 q 174 630 132 575 q 278 717 215 685 q 424 750 340 750 m 446 638 q 322 598 372 638 q 248 497 272 558 q 224 368 224 436 q 248 240 224 301 q 322 138 272 178 q 446 99 372 99 q 569 138 519 99 q 642 240 618 178 q 667 368 667 301 q 642 497 667 436 q 569 598 618 558 q 446 638 519 638 z "},"ẩ":{"ha":907,"x_min":90,"x_max":829,"o":"m 622 1010 l 622 1054 q 628 1082 622 1068 q 650 1104 633 1096 l 669 1114 q 733 1185 733 1146 q 719 1220 733 1204 q 672 1236 704 1236 q 631 1224 644 1236 q 614 1199 618 1213 q 610 1176 610 1185 l 518 1176 q 534 1243 518 1211 q 584 1296 550 1275 q 671 1317 618 1317 q 787 1278 744 1317 q 829 1188 829 1240 q 803 1115 829 1149 q 718 1053 776 1081 l 713 1050 l 713 1010 l 622 1010 m 231 842 l 399 1046 l 511 1046 l 679 842 l 560 842 l 454 969 l 350 842 l 231 842 m 424 750 q 540 728 493 750 q 617 676 588 706 q 661 619 646 646 l 669 619 l 669 736 l 801 736 l 801 0 l 669 0 l 669 117 l 661 117 q 617 60 646 90 q 540 8 588 29 q 424 -14 493 -14 q 278 19 340 -14 q 174 106 215 51 q 111 229 132 161 q 90 368 90 297 q 111 507 90 439 q 174 630 132 575 q 278 717 215 685 q 424 750 340 750 m 446 638 q 322 598 372 638 q 248 497 272 558 q 224 368 224 436 q 248 240 224 301 q 322 138 272 178 q 446 99 372 99 q 569 138 519 99 q 642 240 618 178 q 667 368 667 301 q 642 497 667 436 q 569 598 618 558 q 446 638 519 638 z "},"ẫ":{"ha":907,"x_min":90,"x_max":801,"o":"m 549 1100 q 485 1114 511 1100 q 441 1146 460 1128 q 406 1178 422 1164 q 369 1192 389 1192 q 335 1169 346 1192 q 325 1108 325 1146 l 236 1108 q 247 1192 236 1151 q 285 1260 257 1233 q 361 1288 313 1288 q 425 1274 399 1288 q 470 1242 451 1260 q 506 1211 489 1225 q 540 1197 522 1197 q 573 1219 563 1197 q 583 1281 583 1242 l 672 1281 q 662 1196 672 1238 q 624 1127 651 1154 q 549 1100 597 1100 m 229 842 l 397 1046 l 510 1046 l 678 842 l 558 842 l 453 969 l 349 842 l 229 842 m 424 750 q 540 728 493 750 q 617 676 588 706 q 661 619 646 646 l 669 619 l 669 736 l 801 736 l 801 0 l 669 0 l 669 117 l 661 117 q 617 60 646 90 q 540 8 588 29 q 424 -14 493 -14 q 278 19 340 -14 q 174 106 215 51 q 111 229 132 161 q 90 368 90 297 q 111 507 90 439 q 174 630 132 575 q 278 717 215 685 q 424 750 340 750 m 446 638 q 322 598 372 638 q 248 497 272 558 q 224 368 224 436 q 248 240 224 301 q 322 138 272 178 q 446 99 372 99 q 569 138 519 99 q 642 240 618 178 q 667 368 667 301 q 642 497 667 436 q 569 598 618 558 q 446 638 519 638 z "},"ä":{"ha":907,"x_min":90,"x_max":801,"o":"m 586 849 q 524 874 549 849 q 500 933 500 899 q 524 994 500 969 q 586 1019 549 1019 q 647 994 622 1019 q 672 933 672 969 q 647 874 672 899 q 586 849 622 849 m 322 849 q 260 874 285 849 q 236 933 236 899 q 260 994 236 969 q 322 1019 285 1019 q 383 994 358 1019 q 408 933 408 969 q 383 874 408 899 q 322 849 358 849 m 424 750 q 540 728 493 750 q 617 676 588 706 q 661 619 646 646 l 669 619 l 669 736 l 801 736 l 801 0 l 669 0 l 669 117 l 661 117 q 617 60 646 90 q 540 8 588 29 q 424 -14 493 -14 q 278 19 340 -14 q 174 106 215 51 q 111 229 132 161 q 90 368 90 297 q 111 507 90 439 q 174 630 132 575 q 278 717 215 685 q 424 750 340 750 m 446 638 q 322 598 372 638 q 248 497 272 558 q 224 368 224 436 q 248 240 224 301 q 322 138 272 178 q 446 99 372 99 q 569 138 519 99 q 642 240 618 178 q 667 368 667 301 q 642 497 667 436 q 569 598 618 558 q 446 638 519 638 z "},"ạ":{"ha":907,"x_min":90,"x_max":801,"o":"m 424 750 q 540 728 493 750 q 617 676 588 706 q 661 619 646 646 l 669 619 l 669 736 l 801 736 l 801 0 l 669 0 l 669 117 l 661 117 q 617 60 646 90 q 540 8 588 29 q 424 -14 493 -14 q 278 19 340 -14 q 174 106 215 51 q 111 229 132 161 q 90 368 90 297 q 111 507 90 439 q 174 630 132 575 q 278 717 215 685 q 424 750 340 750 m 446 638 q 322 598 372 638 q 248 497 272 558 q 224 368 224 436 q 248 240 224 301 q 322 138 272 178 q 446 99 372 99 q 569 138 519 99 q 642 240 618 178 q 667 368 667 301 q 642 497 667 436 q 569 598 618 558 q 446 638 519 638 m 454 -315 q 390 -288 415 -315 q 364 -225 364 -261 q 390 -161 364 -187 q 454 -135 415 -135 q 519 -161 493 -135 q 544 -225 544 -187 q 519 -289 544 -262 q 454 -315 493 -315 z "},"à":{"ha":907,"x_min":90,"x_max":801,"o":"m 404 847 l 261 1099 l 397 1099 l 517 849 l 404 847 m 424 750 q 540 728 493 750 q 617 676 588 706 q 661 619 646 646 l 669 619 l 669 736 l 801 736 l 801 0 l 669 0 l 669 117 l 661 117 q 617 60 646 90 q 540 8 588 29 q 424 -14 493 -14 q 278 19 340 -14 q 174 106 215 51 q 111 229 132 161 q 90 368 90 297 q 111 507 90 439 q 174 630 132 575 q 278 717 215 685 q 424 750 340 750 m 446 638 q 322 598 372 638 q 248 497 272 558 q 224 368 224 436 q 248 240 224 301 q 322 138 272 178 q 446 99 372 99 q 569 138 519 99 q 642 240 618 178 q 667 368 667 301 q 642 497 667 436 q 569 598 618 558 q 446 638 519 638 z "},"ả":{"ha":907,"x_min":90,"x_max":801,"o":"m 410 838 l 410 882 q 415 910 410 896 q 438 932 421 924 l 457 942 q 521 1013 521 974 q 506 1048 521 1032 q 460 1064 492 1064 q 419 1052 432 1064 q 401 1026 406 1040 q 397 1004 397 1013 l 306 1004 q 322 1071 306 1039 q 372 1124 338 1103 q 458 1144 406 1144 q 574 1106 532 1144 q 617 1015 617 1068 q 590 942 617 976 q 506 881 564 908 l 500 878 l 500 838 l 410 838 m 424 750 q 540 728 493 750 q 617 676 588 706 q 661 619 646 646 l 669 619 l 669 736 l 801 736 l 801 0 l 669 0 l 669 117 l 661 117 q 617 60 646 90 q 540 8 588 29 q 424 -14 493 -14 q 278 19 340 -14 q 174 106 215 51 q 111 229 132 161 q 90 368 90 297 q 111 507 90 439 q 174 630 132 575 q 278 717 215 685 q 424 750 340 750 m 446 638 q 322 598 372 638 q 248 497 272 558 q 224 368 224 436 q 248 240 224 301 q 322 138 272 178 q 446 99 372 99 q 569 138 519 99 q 642 240 618 178 q 667 368 667 301 q 642 497 667 436 q 569 598 618 558 q 446 638 519 638 z "},"ā":{"ha":907,"x_min":90,"x_max":801,"o":"m 243 869 l 243 969 l 665 969 l 665 869 l 243 869 m 424 750 q 540 728 493 750 q 617 676 588 706 q 661 619 646 646 l 669 619 l 669 736 l 801 736 l 801 0 l 669 0 l 669 117 l 661 117 q 617 60 646 90 q 540 8 588 29 q 424 -14 493 -14 q 278 19 340 -14 q 174 106 215 51 q 111 229 132 161 q 90 368 90 297 q 111 507 90 439 q 174 630 132 575 q 278 717 215 685 q 424 750 340 750 m 446 638 q 322 598 372 638 q 248 497 272 558 q 224 368 224 436 q 248 240 224 301 q 322 138 272 178 q 446 99 372 99 q 569 138 519 99 q 642 240 618 178 q 667 368 667 301 q 642 497 667 436 q 569 598 618 558 q 446 638 519 638 z "},"ą":{"ha":907,"x_min":90,"x_max":857,"o":"m 783 -236 q 660 -199 701 -236 q 618 -111 618 -162 q 639 -44 618 -71 q 683 0 660 -17 l 669 0 l 669 117 l 661 117 q 617 60 646 90 q 540 8 588 29 q 424 -14 493 -14 q 278 19 340 -14 q 174 106 215 51 q 111 229 132 161 q 90 368 90 297 q 111 507 90 439 q 174 630 132 575 q 278 717 215 685 q 424 750 340 750 q 540 728 493 750 q 617 676 588 706 q 661 619 646 646 l 669 619 l 669 736 l 801 736 l 801 0 q 783 -10 801 0 q 745 -39 764 -19 q 726 -87 726 -58 q 747 -130 726 -112 q 806 -147 767 -147 q 841 -144 825 -147 q 857 -140 857 -140 l 857 -228 q 836 -232 857 -228 q 783 -236 815 -236 m 446 638 q 322 598 372 638 q 248 497 272 558 q 224 368 224 436 q 248 240 224 301 q 322 138 272 178 q 446 99 372 99 q 569 138 519 99 q 642 240 618 178 q 667 368 667 301 q 642 497 667 436 q 569 598 618 558 q 446 638 519 638 z "},"å":{"ha":907,"x_min":90,"x_max":801,"o":"m 454 836 q 365 860 406 836 q 299 924 324 883 q 275 1014 275 965 q 299 1104 275 1064 q 365 1168 324 1144 q 454 1192 406 1192 q 543 1168 503 1192 q 608 1104 583 1144 q 632 1014 632 1064 q 608 924 632 965 q 543 860 583 883 q 454 836 503 836 m 454 931 q 513 955 489 931 q 538 1014 538 979 q 513 1073 538 1049 q 454 1097 489 1097 q 394 1073 419 1097 q 369 1014 369 1049 q 394 955 369 979 q 454 931 419 931 m 424 750 q 540 728 493 750 q 617 676 588 706 q 661 619 646 646 l 669 619 l 669 736 l 801 736 l 801 0 l 669 0 l 669 117 l 661 117 q 617 60 646 90 q 540 8 588 29 q 424 -14 493 -14 q 278 19 340 -14 q 174 106 215 51 q 111 229 132 161 q 90 368 90 297 q 111 507 90 439 q 174 630 132 575 q 278 717 215 685 q 424 750 340 750 m 446 638 q 322 598 372 638 q 248 497 272 558 q 224 368 224 436 q 248 240 224 301 q 322 138 272 178 q 446 99 372 99 q 569 138 519 99 q 642 240 618 178 q 667 368 667 301 q 642 497 667 436 q 569 598 618 558 q 446 638 519 638 z "},"ã":{"ha":907,"x_min":90,"x_max":801,"o":"m 549 857 q 485 871 511 857 q 441 903 460 885 q 406 935 422 921 q 369 949 389 949 q 335 926 346 949 q 325 865 325 903 l 236 865 q 247 949 236 908 q 285 1017 257 990 q 361 1044 313 1044 q 425 1031 399 1044 q 470 999 451 1017 q 506 968 489 982 q 540 954 522 954 q 573 976 563 954 q 583 1038 583 999 l 672 1038 q 662 953 672 994 q 624 884 651 911 q 549 857 597 857 m 424 750 q 540 728 493 750 q 617 676 588 706 q 661 619 646 646 l 669 619 l 669 736 l 801 736 l 801 0 l 669 0 l 669 117 l 661 117 q 617 60 646 90 q 540 8 588 29 q 424 -14 493 -14 q 278 19 340 -14 q 174 106 215 51 q 111 229 132 161 q 90 368 90 297 q 111 507 90 439 q 174 630 132 575 q 278 717 215 685 q 424 750 340 750 m 446 638 q 322 598 372 638 q 248 497 272 558 q 224 368 224 436 q 248 240 224 301 q 322 138 272 178 q 446 99 372 99 q 569 138 519 99 q 642 240 618 178 q 667 368 667 301 q 642 497 667 436 q 569 598 618 558 q 446 638 519 638 z "},"æ":{"ha":1342,"x_min":83,"x_max":1258,"o":"m 340 -14 q 211 11 269 -14 q 118 86 153 36 q 83 208 83 136 q 160 370 83 311 q 363 429 236 429 l 572 429 l 572 471 q 558 547 572 507 q 508 616 544 588 q 401 644 471 644 q 306 624 342 644 q 254 578 271 604 q 232 531 238 551 q 226 511 226 511 l 99 511 q 104 535 99 511 q 126 595 110 560 q 174 666 142 631 q 261 726 207 701 q 396 750 315 750 q 569 704 506 750 q 651 597 633 658 l 656 597 q 709 669 674 635 q 799 727 744 704 q 929 750 854 750 q 1098 707 1024 750 q 1215 578 1172 664 q 1258 364 1258 492 l 1258 325 l 707 325 q 737 211 710 264 q 814 126 764 158 q 933 93 864 93 q 1028 113 990 93 q 1087 158 1065 132 q 1117 204 1108 185 q 1125 224 1125 224 l 1250 224 q 1242 199 1250 224 q 1215 140 1235 175 q 1160 70 1196 106 q 1069 10 1125 35 q 931 -14 1013 -14 q 777 17 839 -14 q 680 90 715 49 q 631 160 644 131 l 624 160 q 612 133 624 160 q 569 73 600 107 q 483 13 539 39 q 340 -14 428 -14 m 706 426 l 1129 426 q 1097 555 1125 507 q 1024 624 1068 603 q 926 644 979 644 q 773 587 833 644 q 706 426 713 529 m 364 88 q 476 118 429 88 q 547 199 522 149 q 572 310 572 250 l 572 328 l 363 328 q 249 294 286 328 q 211 208 211 260 q 258 117 211 147 q 364 88 304 88 z "},"b":{"ha":906,"x_min":111,"x_max":822,"o":"m 489 -14 q 372 8 419 -14 q 297 61 325 31 q 251 117 268 92 l 243 117 l 243 0 l 111 0 l 111 1056 l 243 1056 l 243 619 l 251 619 q 297 676 268 646 q 372 728 325 707 q 489 750 419 750 q 635 717 572 750 q 739 630 697 685 q 801 507 781 575 q 822 368 822 439 q 801 229 822 297 q 739 106 781 161 q 635 19 697 51 q 489 -14 572 -14 m 467 99 q 591 138 542 99 q 665 240 640 178 q 689 368 689 301 q 665 497 689 436 q 591 598 640 558 q 467 638 542 638 q 344 598 393 638 q 270 497 294 558 q 246 368 246 436 q 270 240 246 301 q 344 138 294 178 q 467 99 393 99 z "},"c":{"ha":851,"x_min":83,"x_max":768,"o":"m 446 -14 q 288 19 356 -14 q 174 106 219 51 q 106 229 129 161 q 83 368 83 297 q 106 506 83 439 q 173 629 128 574 q 286 717 218 685 q 446 750 354 750 q 593 724 535 750 q 687 658 651 697 q 740 578 722 618 q 763 513 757 539 q 768 486 768 486 l 640 486 q 633 509 640 486 q 607 561 626 532 q 549 613 588 590 q 446 636 510 636 q 317 598 369 636 q 240 499 265 560 q 214 368 214 438 q 240 238 214 299 q 317 138 265 176 q 446 100 369 100 q 549 123 510 100 q 607 175 588 146 q 633 227 626 204 q 640 250 640 250 l 768 250 q 763 224 768 250 q 740 158 757 197 q 687 78 722 118 q 593 13 651 39 q 446 -14 535 -14 z "},"ć":{"ha":865,"x_min":90,"x_max":775,"o":"m 508 847 l 396 849 l 515 1099 l 651 1099 l 508 847 m 453 -14 q 294 19 363 -14 q 181 106 226 51 q 113 229 136 161 q 90 368 90 297 q 113 506 90 439 q 180 629 135 574 q 293 717 225 685 q 453 750 361 750 q 600 724 542 750 q 694 658 658 697 q 747 578 729 618 q 769 513 764 539 q 775 486 775 486 l 647 486 q 640 509 647 486 q 614 561 633 532 q 556 613 594 590 q 453 636 517 636 q 324 598 376 636 q 247 499 272 560 q 221 368 221 438 q 247 238 221 299 q 324 138 272 176 q 453 100 376 100 q 556 123 517 100 q 614 175 594 146 q 640 227 633 204 q 647 250 647 250 l 775 250 q 769 224 775 250 q 747 158 764 197 q 694 78 729 118 q 600 13 658 39 q 453 -14 542 -14 z "},"č":{"ha":865,"x_min":90,"x_max":775,"o":"m 397 826 l 229 1058 l 349 1058 l 453 910 l 558 1058 l 678 1058 l 510 826 l 397 826 m 453 -14 q 294 19 363 -14 q 181 106 226 51 q 113 229 136 161 q 90 368 90 297 q 113 506 90 439 q 180 629 135 574 q 293 717 225 685 q 453 750 361 750 q 600 724 542 750 q 694 658 658 697 q 747 578 729 618 q 769 513 764 539 q 775 486 775 486 l 647 486 q 640 509 647 486 q 614 561 633 532 q 556 613 594 590 q 453 636 517 636 q 324 598 376 636 q 247 499 272 560 q 221 368 221 438 q 247 238 221 299 q 324 138 272 176 q 453 100 376 100 q 556 123 517 100 q 614 175 594 146 q 640 227 633 204 q 647 250 647 250 l 775 250 q 769 224 775 250 q 747 158 764 197 q 694 78 729 118 q 600 13 658 39 q 453 -14 542 -14 z "},"ç":{"ha":865,"x_min":90,"x_max":775,"o":"m 433 -365 q 368 -361 400 -365 q 336 -357 336 -357 l 336 -276 q 368 -281 336 -276 q 428 -285 400 -285 q 509 -261 488 -285 q 531 -214 531 -237 q 512 -172 531 -190 q 457 -154 493 -154 q 401 -167 422 -154 q 379 -181 379 -181 l 328 -129 l 400 -11 q 227 60 296 3 q 124 199 158 117 q 90 368 90 281 q 113 506 90 439 q 180 629 135 574 q 293 717 225 685 q 453 750 361 750 q 600 724 542 750 q 694 658 658 697 q 747 578 729 618 q 769 513 764 539 q 775 486 775 486 l 647 486 q 640 509 647 486 q 614 561 633 532 q 556 613 594 590 q 453 636 517 636 q 324 598 376 636 q 247 499 272 560 q 221 368 221 438 q 247 238 221 299 q 324 138 272 176 q 453 100 376 100 q 556 123 517 100 q 614 175 594 146 q 640 227 633 204 q 647 250 647 250 l 775 250 q 770 226 775 250 q 749 165 765 201 q 703 90 733 128 q 621 23 672 51 q 492 -12 569 -6 l 446 -85 q 486 -79 464 -79 q 587 -119 551 -79 q 622 -212 622 -160 q 603 -284 622 -249 q 542 -342 583 -319 q 433 -365 501 -365 z "},"ċ":{"ha":865,"x_min":90,"x_max":775,"o":"m 453 876 q 391 901 415 876 q 367 961 367 926 q 391 1022 367 997 q 453 1047 415 1047 q 514 1022 489 1047 q 539 961 539 997 q 514 901 539 926 q 453 876 489 876 m 453 -14 q 294 19 363 -14 q 181 106 226 51 q 113 229 136 161 q 90 368 90 297 q 113 506 90 439 q 180 629 135 574 q 293 717 225 685 q 453 750 361 750 q 600 724 542 750 q 694 658 658 697 q 747 578 729 618 q 769 513 764 539 q 775 486 775 486 l 647 486 q 640 509 647 486 q 614 561 633 532 q 556 613 594 590 q 453 636 517 636 q 324 598 376 636 q 247 499 272 560 q 221 368 221 438 q 247 238 221 299 q 324 138 272 176 q 453 100 376 100 q 556 123 517 100 q 614 175 594 146 q 640 227 633 204 q 647 250 647 250 l 775 250 q 769 224 775 250 q 747 158 764 197 q 694 78 729 118 q 600 13 658 39 q 453 -14 542 -14 z "},"d":{"ha":906,"x_min":83,"x_max":794,"o":"m 417 -14 q 271 19 333 -14 q 167 106 208 51 q 104 229 125 161 q 83 368 83 297 q 104 507 83 439 q 167 630 125 575 q 271 717 208 685 q 417 750 333 750 q 533 728 486 750 q 610 676 581 706 q 654 619 639 646 l 663 619 l 663 1056 l 794 1056 l 794 0 l 663 0 l 663 117 l 654 117 q 610 60 639 90 q 533 8 581 29 q 417 -14 486 -14 m 439 99 q 562 138 513 99 q 635 240 611 178 q 660 368 660 301 q 635 497 660 436 q 562 598 611 558 q 439 638 513 638 q 315 598 365 638 q 241 497 265 558 q 217 368 217 436 q 241 240 217 301 q 315 138 265 178 q 439 99 365 99 z "},"ð":{"ha":889,"x_min":83,"x_max":806,"o":"m 443 -14 q 284 19 351 -14 q 172 106 217 51 q 106 229 128 161 q 83 368 83 297 q 104 504 83 438 q 167 624 125 571 q 270 709 208 678 q 414 740 332 740 q 522 720 475 740 q 599 675 568 700 q 489 813 553 751 q 361 918 425 874 l 206 829 l 154 921 l 261 982 q 169 1031 206 1015 q 132 1047 132 1047 l 179 1150 q 238 1126 179 1150 q 379 1051 296 1101 l 544 1146 l 597 1054 l 476 985 q 633 840 558 925 q 757 644 708 754 q 806 394 806 533 q 765 193 806 286 q 645 43 725 100 q 443 -14 565 -14 m 444 99 q 571 138 521 99 q 645 240 621 178 q 669 368 669 303 q 644 497 669 435 q 569 598 619 558 q 444 638 519 638 q 318 598 368 638 q 243 497 268 558 q 218 368 218 436 q 243 240 218 301 q 318 138 268 178 q 444 99 368 99 z "},"ď":{"ha":975,"x_min":83,"x_max":1031,"o":"m 417 -14 q 271 19 333 -14 q 167 106 208 51 q 104 229 125 161 q 83 368 83 297 q 104 507 83 439 q 167 630 125 575 q 271 717 208 685 q 417 750 333 750 q 533 728 486 750 q 610 676 581 706 q 654 619 639 646 l 663 619 l 663 1056 l 794 1056 l 794 0 l 663 0 l 663 117 l 654 117 q 610 60 639 90 q 533 8 581 29 q 417 -14 486 -14 m 893 771 l 907 1056 l 1031 1056 l 979 771 l 893 771 m 439 99 q 562 138 513 99 q 635 240 611 178 q 660 368 660 301 q 635 497 660 436 q 562 598 611 558 q 439 638 513 638 q 315 598 365 638 q 241 497 265 558 q 217 368 217 436 q 241 240 217 301 q 315 138 265 178 q 439 99 365 99 z "},"đ":{"ha":919,"x_min":83,"x_max":921,"o":"m 417 -14 q 271 19 333 -14 q 167 106 208 51 q 104 229 125 161 q 83 368 83 297 q 104 507 83 439 q 167 630 125 575 q 271 717 208 685 q 417 750 333 750 q 533 728 486 750 q 610 676 581 706 q 654 619 639 646 l 663 619 l 663 817 l 469 817 l 469 922 l 663 922 l 663 1056 l 794 1056 l 794 922 l 921 922 l 921 817 l 794 817 l 794 0 l 663 0 l 663 117 l 654 117 q 610 60 639 90 q 533 8 581 29 q 417 -14 486 -14 m 439 99 q 562 138 513 99 q 635 240 611 178 q 660 368 660 301 q 635 497 660 436 q 562 598 611 558 q 439 638 513 638 q 315 598 365 638 q 241 497 265 558 q 217 368 217 436 q 241 240 217 301 q 315 138 265 178 q 439 99 365 99 z "},"e":{"ha":832,"x_min":83,"x_max":749,"o":"m 432 -14 q 276 19 342 -14 q 167 107 210 51 q 104 230 125 163 q 83 368 83 297 q 103 506 83 438 q 166 629 124 574 q 273 717 208 685 q 426 750 338 750 q 593 707 521 750 q 707 579 665 664 q 749 367 749 494 l 749 328 l 217 328 q 247 213 221 265 q 319 130 272 161 q 432 99 367 99 q 524 117 489 99 q 581 161 560 136 q 609 205 601 186 q 617 224 617 224 l 740 224 q 733 199 740 224 q 708 140 726 175 q 656 70 690 106 q 567 10 621 35 q 432 -14 513 -14 m 218 431 l 619 431 q 589 548 617 503 q 518 615 561 593 q 426 638 475 638 q 283 581 339 638 q 218 431 228 525 z "},"é":{"ha":846,"x_min":90,"x_max":756,"o":"m 489 846 l 376 847 l 496 1097 l 632 1097 l 489 846 m 439 -14 q 283 19 349 -14 q 174 107 217 51 q 111 230 132 163 q 90 368 90 297 q 110 506 90 438 q 173 629 131 574 q 280 717 215 685 q 433 750 344 750 q 600 707 528 750 q 714 579 672 664 q 756 367 756 494 l 756 328 l 224 328 q 253 213 228 265 q 326 130 279 161 q 439 99 374 99 q 531 117 496 99 q 588 161 567 136 q 616 205 608 186 q 624 224 624 224 l 747 224 q 740 199 747 224 q 715 140 733 175 q 663 70 697 106 q 574 10 628 35 q 439 -14 519 -14 m 225 431 l 626 431 q 596 548 624 503 q 525 615 568 593 q 433 638 482 638 q 290 581 346 638 q 225 431 235 525 z "},"ě":{"ha":846,"x_min":90,"x_max":756,"o":"m 378 825 l 210 1057 l 329 1057 l 433 908 l 539 1057 l 658 1057 l 490 825 l 378 825 m 439 -14 q 283 19 349 -14 q 174 107 217 51 q 111 230 132 163 q 90 368 90 297 q 110 506 90 438 q 173 629 131 574 q 280 717 215 685 q 433 750 344 750 q 600 707 528 750 q 714 579 672 664 q 756 367 756 494 l 756 328 l 224 328 q 253 213 228 265 q 326 130 279 161 q 439 99 374 99 q 531 117 496 99 q 588 161 567 136 q 616 205 608 186 q 624 224 624 224 l 747 224 q 740 199 747 224 q 715 140 733 175 q 663 70 697 106 q 574 10 628 35 q 439 -14 519 -14 m 225 431 l 626 431 q 596 548 624 503 q 525 615 568 593 q 433 638 482 638 q 290 581 346 638 q 225 431 235 525 z "},"ê":{"ha":846,"x_min":90,"x_max":756,"o":"m 210 840 l 378 1072 l 490 1072 l 658 840 l 539 840 l 433 989 l 329 840 l 210 840 m 439 -14 q 283 19 349 -14 q 174 107 217 51 q 111 230 132 163 q 90 368 90 297 q 110 506 90 438 q 173 629 131 574 q 280 717 215 685 q 433 750 344 750 q 600 707 528 750 q 714 579 672 664 q 756 367 756 494 l 756 328 l 224 328 q 253 213 228 265 q 326 130 279 161 q 439 99 374 99 q 531 117 496 99 q 588 161 567 136 q 616 205 608 186 q 624 224 624 224 l 747 224 q 740 199 747 224 q 715 140 733 175 q 663 70 697 106 q 574 10 628 35 q 439 -14 519 -14 m 225 431 l 626 431 q 596 548 624 503 q 525 615 568 593 q 433 638 482 638 q 290 581 346 638 q 225 431 235 525 z "},"ế":{"ha":846,"x_min":90,"x_max":844,"o":"m 701 1018 l 589 1019 l 708 1269 l 844 1269 l 701 1018 m 210 840 l 378 1044 l 490 1044 l 658 840 l 539 840 l 433 968 l 329 840 l 210 840 m 439 -14 q 283 19 349 -14 q 174 107 217 51 q 111 230 132 163 q 90 368 90 297 q 110 506 90 438 q 173 629 131 574 q 280 717 215 685 q 433 750 344 750 q 600 707 528 750 q 714 579 672 664 q 756 367 756 494 l 756 328 l 224 328 q 253 213 228 265 q 326 130 279 161 q 439 99 374 99 q 531 117 496 99 q 588 161 567 136 q 616 205 608 186 q 624 224 624 224 l 747 224 q 740 199 747 224 q 715 140 733 175 q 663 70 697 106 q 574 10 628 35 q 439 -14 519 -14 m 225 431 l 626 431 q 596 548 624 503 q 525 615 568 593 q 433 638 482 638 q 290 581 346 638 q 225 431 235 525 z "},"ệ":{"ha":846,"x_min":90,"x_max":756,"o":"m 210 840 l 378 1072 l 490 1072 l 658 840 l 539 840 l 433 989 l 329 840 l 210 840 m 439 -14 q 283 19 349 -14 q 174 107 217 51 q 111 230 132 163 q 90 368 90 297 q 110 506 90 438 q 173 629 131 574 q 280 717 215 685 q 433 750 344 750 q 600 707 528 750 q 714 579 672 664 q 756 367 756 494 l 756 328 l 224 328 q 253 213 228 265 q 326 130 279 161 q 439 99 374 99 q 531 117 496 99 q 588 161 567 136 q 616 205 608 186 q 624 224 624 224 l 747 224 q 740 199 747 224 q 715 140 733 175 q 663 70 697 106 q 574 10 628 35 q 439 -14 519 -14 m 225 431 l 626 431 q 596 548 624 503 q 525 615 568 593 q 433 638 482 638 q 290 581 346 638 q 225 431 235 525 m 433 -315 q 369 -288 394 -315 q 343 -225 343 -261 q 369 -161 343 -187 q 433 -135 394 -135 q 498 -161 472 -135 q 524 -225 524 -187 q 498 -289 524 -262 q 433 -315 472 -315 z "},"ề":{"ha":846,"x_min":90,"x_max":756,"o":"m 624 1018 l 481 1269 l 617 1269 l 736 1019 l 624 1018 m 210 840 l 378 1044 l 490 1044 l 658 840 l 539 840 l 433 968 l 329 840 l 210 840 m 439 -14 q 283 19 349 -14 q 174 107 217 51 q 111 230 132 163 q 90 368 90 297 q 110 506 90 438 q 173 629 131 574 q 280 717 215 685 q 433 750 344 750 q 600 707 528 750 q 714 579 672 664 q 756 367 756 494 l 756 328 l 224 328 q 253 213 228 265 q 326 130 279 161 q 439 99 374 99 q 531 117 496 99 q 588 161 567 136 q 616 205 608 186 q 624 224 624 224 l 747 224 q 740 199 747 224 q 715 140 733 175 q 663 70 697 106 q 574 10 628 35 q 439 -14 519 -14 m 225 431 l 626 431 q 596 548 624 503 q 525 615 568 593 q 433 638 482 638 q 290 581 346 638 q 225 431 235 525 z "},"ể":{"ha":846,"x_min":90,"x_max":808,"o":"m 601 1008 l 601 1053 q 607 1081 601 1067 q 629 1103 613 1094 l 649 1113 q 713 1183 713 1144 q 698 1219 713 1203 q 651 1235 683 1235 q 610 1223 624 1235 q 593 1197 597 1211 q 589 1175 589 1183 l 497 1175 q 513 1242 497 1210 q 563 1294 529 1274 q 650 1315 597 1315 q 766 1277 724 1315 q 808 1186 808 1239 q 782 1113 808 1147 q 697 1051 756 1079 l 692 1049 l 692 1008 l 601 1008 m 210 840 l 378 1044 l 490 1044 l 658 840 l 539 840 l 433 968 l 329 840 l 210 840 m 439 -14 q 283 19 349 -14 q 174 107 217 51 q 111 230 132 163 q 90 368 90 297 q 110 506 90 438 q 173 629 131 574 q 280 717 215 685 q 433 750 344 750 q 600 707 528 750 q 714 579 672 664 q 756 367 756 494 l 756 328 l 224 328 q 253 213 228 265 q 326 130 279 161 q 439 99 374 99 q 531 117 496 99 q 588 161 567 136 q 616 205 608 186 q 624 224 624 224 l 747 224 q 740 199 747 224 q 715 140 733 175 q 663 70 697 106 q 574 10 628 35 q 439 -14 519 -14 m 225 431 l 626 431 q 596 548 624 503 q 525 615 568 593 q 433 638 482 638 q 290 581 346 638 q 225 431 235 525 z "},"ễ":{"ha":846,"x_min":90,"x_max":756,"o":"m 528 1099 q 465 1113 490 1099 q 420 1144 439 1126 q 385 1176 401 1163 q 349 1190 368 1190 q 315 1167 325 1190 q 304 1107 304 1144 l 215 1107 q 226 1191 215 1150 q 264 1259 236 1232 q 340 1286 292 1286 q 404 1272 378 1286 q 449 1241 431 1258 q 485 1210 468 1224 q 519 1196 501 1196 q 552 1218 542 1196 q 563 1279 563 1240 l 651 1279 q 641 1194 651 1236 q 603 1126 631 1153 q 528 1099 576 1099 m 208 840 l 376 1044 l 489 1044 l 657 840 l 538 840 l 432 968 l 328 840 l 208 840 m 439 -14 q 283 19 349 -14 q 174 107 217 51 q 111 230 132 163 q 90 368 90 297 q 110 506 90 438 q 173 629 131 574 q 280 717 215 685 q 433 750 344 750 q 600 707 528 750 q 714 579 672 664 q 756 367 756 494 l 756 328 l 224 328 q 253 213 228 265 q 326 130 279 161 q 439 99 374 99 q 531 117 496 99 q 588 161 567 136 q 616 205 608 186 q 624 224 624 224 l 747 224 q 740 199 747 224 q 715 140 733 175 q 663 70 697 106 q 574 10 628 35 q 439 -14 519 -14 m 225 431 l 626 431 q 596 548 624 503 q 525 615 568 593 q 433 638 482 638 q 290 581 346 638 q 225 431 235 525 z "},"ë":{"ha":846,"x_min":90,"x_max":756,"o":"m 565 847 q 503 872 528 847 q 479 932 479 897 q 503 993 479 968 q 565 1018 528 1018 q 626 993 601 1018 q 651 932 651 968 q 626 872 651 897 q 565 847 601 847 m 301 847 q 240 872 264 847 q 215 932 215 897 q 240 993 215 968 q 301 1018 264 1018 q 363 993 338 1018 q 388 932 388 968 q 363 872 388 897 q 301 847 338 847 m 439 -14 q 283 19 349 -14 q 174 107 217 51 q 111 230 132 163 q 90 368 90 297 q 110 506 90 438 q 173 629 131 574 q 280 717 215 685 q 433 750 344 750 q 600 707 528 750 q 714 579 672 664 q 756 367 756 494 l 756 328 l 224 328 q 253 213 228 265 q 326 130 279 161 q 439 99 374 99 q 531 117 496 99 q 588 161 567 136 q 616 205 608 186 q 624 224 624 224 l 747 224 q 740 199 747 224 q 715 140 733 175 q 663 70 697 106 q 574 10 628 35 q 439 -14 519 -14 m 225 431 l 626 431 q 596 548 624 503 q 525 615 568 593 q 433 638 482 638 q 290 581 346 638 q 225 431 235 525 z "},"ė":{"ha":846,"x_min":90,"x_max":756,"o":"m 433 875 q 372 900 396 875 q 347 960 347 925 q 372 1021 347 996 q 433 1046 396 1046 q 494 1021 469 1046 q 519 960 519 996 q 494 900 519 925 q 433 875 469 875 m 439 -14 q 283 19 349 -14 q 174 107 217 51 q 111 230 132 163 q 90 368 90 297 q 110 506 90 438 q 173 629 131 574 q 280 717 215 685 q 433 750 344 750 q 600 707 528 750 q 714 579 672 664 q 756 367 756 494 l 756 328 l 224 328 q 253 213 228 265 q 326 130 279 161 q 439 99 374 99 q 531 117 496 99 q 588 161 567 136 q 616 205 608 186 q 624 224 624 224 l 747 224 q 740 199 747 224 q 715 140 733 175 q 663 70 697 106 q 574 10 628 35 q 439 -14 519 -14 m 225 431 l 626 431 q 596 548 624 503 q 525 615 568 593 q 433 638 482 638 q 290 581 346 638 q 225 431 235 525 z "},"ẹ":{"ha":846,"x_min":90,"x_max":756,"o":"m 439 -14 q 283 19 349 -14 q 174 107 217 51 q 111 230 132 163 q 90 368 90 297 q 110 506 90 438 q 173 629 131 574 q 280 717 215 685 q 433 750 344 750 q 600 707 528 750 q 714 579 672 664 q 756 367 756 494 l 756 328 l 224 328 q 253 213 228 265 q 326 130 279 161 q 439 99 374 99 q 531 117 496 99 q 588 161 567 136 q 616 205 608 186 q 624 224 624 224 l 747 224 q 740 199 747 224 q 715 140 733 175 q 663 70 697 106 q 574 10 628 35 q 439 -14 519 -14 m 225 431 l 626 431 q 596 548 624 503 q 525 615 568 593 q 433 638 482 638 q 290 581 346 638 q 225 431 235 525 m 433 -315 q 369 -288 394 -315 q 343 -225 343 -261 q 369 -161 343 -187 q 433 -135 394 -135 q 498 -161 472 -135 q 524 -225 524 -187 q 498 -289 524 -262 q 433 -315 472 -315 z "},"è":{"ha":846,"x_min":90,"x_max":756,"o":"m 383 846 l 240 1097 l 376 1097 l 496 847 l 383 846 m 439 -14 q 283 19 349 -14 q 174 107 217 51 q 111 230 132 163 q 90 368 90 297 q 110 506 90 438 q 173 629 131 574 q 280 717 215 685 q 433 750 344 750 q 600 707 528 750 q 714 579 672 664 q 756 367 756 494 l 756 328 l 224 328 q 253 213 228 265 q 326 130 279 161 q 439 99 374 99 q 531 117 496 99 q 588 161 567 136 q 616 205 608 186 q 624 224 624 224 l 747 224 q 740 199 747 224 q 715 140 733 175 q 663 70 697 106 q 574 10 628 35 q 439 -14 519 -14 m 225 431 l 626 431 q 596 548 624 503 q 525 615 568 593 q 433 638 482 638 q 290 581 346 638 q 225 431 235 525 z "},"ẻ":{"ha":846,"x_min":90,"x_max":756,"o":"m 389 836 l 389 881 q 394 908 389 894 q 417 931 400 922 l 436 940 q 500 1011 500 972 q 485 1047 500 1031 q 439 1063 471 1063 q 398 1051 411 1063 q 381 1025 385 1039 q 376 1003 376 1011 l 285 1003 q 301 1069 285 1038 q 351 1122 317 1101 q 438 1143 385 1143 q 553 1105 511 1143 q 596 1014 596 1067 q 569 941 596 975 q 485 879 543 907 l 479 876 l 479 836 l 389 836 m 439 -14 q 283 19 349 -14 q 174 107 217 51 q 111 230 132 163 q 90 368 90 297 q 110 506 90 438 q 173 629 131 574 q 280 717 215 685 q 433 750 344 750 q 600 707 528 750 q 714 579 672 664 q 756 367 756 494 l 756 328 l 224 328 q 253 213 228 265 q 326 130 279 161 q 439 99 374 99 q 531 117 496 99 q 588 161 567 136 q 616 205 608 186 q 624 224 624 224 l 747 224 q 740 199 747 224 q 715 140 733 175 q 663 70 697 106 q 574 10 628 35 q 439 -14 519 -14 m 225 431 l 626 431 q 596 548 624 503 q 525 615 568 593 q 433 638 482 638 q 290 581 346 638 q 225 431 235 525 z "},"ē":{"ha":846,"x_min":90,"x_max":756,"o":"m 222 868 l 222 968 l 644 968 l 644 868 l 222 868 m 439 -14 q 283 19 349 -14 q 174 107 217 51 q 111 230 132 163 q 90 368 90 297 q 110 506 90 438 q 173 629 131 574 q 280 717 215 685 q 433 750 344 750 q 600 707 528 750 q 714 579 672 664 q 756 367 756 494 l 756 328 l 224 328 q 253 213 228 265 q 326 130 279 161 q 439 99 374 99 q 531 117 496 99 q 588 161 567 136 q 616 205 608 186 q 624 224 624 224 l 747 224 q 740 199 747 224 q 715 140 733 175 q 663 70 697 106 q 574 10 628 35 q 439 -14 519 -14 m 225 431 l 626 431 q 596 548 624 503 q 525 615 568 593 q 433 638 482 638 q 290 581 346 638 q 225 431 235 525 z "},"ę":{"ha":846,"x_min":90,"x_max":756,"o":"m 474 -247 q 350 -210 392 -247 q 308 -122 308 -174 q 330 -53 308 -81 q 376 -10 351 -25 q 215 63 279 6 q 121 202 151 121 q 90 368 90 283 q 110 506 90 438 q 173 629 131 574 q 280 717 215 685 q 433 750 344 750 q 600 707 528 750 q 714 579 672 664 q 756 367 756 494 l 756 328 l 224 328 q 253 213 228 265 q 326 130 279 161 q 439 99 374 99 q 531 117 496 99 q 588 161 567 136 q 616 205 608 186 q 624 224 624 224 l 747 224 q 742 203 747 224 q 721 150 736 182 q 676 84 706 118 q 602 24 647 50 q 490 -11 557 -3 l 492 -11 q 473 -21 492 -11 q 435 -50 454 -31 q 417 -99 417 -69 q 437 -141 417 -124 q 496 -158 457 -158 q 531 -155 515 -158 q 547 -151 547 -151 l 547 -239 q 526 -243 547 -239 q 474 -247 506 -247 m 225 431 l 626 431 q 596 548 624 503 q 525 615 568 593 q 433 638 482 638 q 290 581 346 638 q 225 431 235 525 z "},"ẽ":{"ha":846,"x_min":90,"x_max":756,"o":"m 528 856 q 465 869 490 856 q 420 901 439 883 q 385 933 401 919 q 349 947 368 947 q 315 924 325 947 q 304 864 304 901 l 215 864 q 226 948 215 907 q 264 1016 236 989 q 340 1043 292 1043 q 404 1029 378 1043 q 449 998 431 1015 q 485 967 468 981 q 519 953 501 953 q 552 975 542 953 q 563 1036 563 997 l 651 1036 q 641 951 651 993 q 603 883 631 910 q 528 856 576 856 m 439 -14 q 283 19 349 -14 q 174 107 217 51 q 111 230 132 163 q 90 368 90 297 q 110 506 90 438 q 173 629 131 574 q 280 717 215 685 q 433 750 344 750 q 600 707 528 750 q 714 579 672 664 q 756 367 756 494 l 756 328 l 224 328 q 253 213 228 265 q 326 130 279 161 q 439 99 374 99 q 531 117 496 99 q 588 161 567 136 q 616 205 608 186 q 624 224 624 224 l 747 224 q 740 199 747 224 q 715 140 733 175 q 663 70 697 106 q 574 10 628 35 q 439 -14 519 -14 m 225 431 l 626 431 q 596 548 624 503 q 525 615 568 593 q 433 638 482 638 q 290 581 346 638 q 225 431 235 525 z "},"f":{"ha":536,"x_min":63,"x_max":494,"o":"m 183 0 l 183 628 l 63 628 l 63 736 l 183 736 l 183 826 q 204 941 183 885 q 274 1033 225 997 q 406 1069 322 1069 q 470 1063 446 1069 q 494 1057 494 1057 l 494 953 q 473 958 494 953 q 424 963 451 963 q 338 924 360 963 q 315 826 315 885 l 315 736 l 486 736 l 486 628 l 315 628 l 315 0 l 183 0 z "},"g":{"ha":893,"x_min":83,"x_max":796,"o":"m 451 -292 q 299 -267 360 -292 q 201 -206 238 -243 q 146 -133 164 -169 q 122 -73 128 -97 q 117 -49 117 -49 l 249 -49 q 256 -68 249 -49 q 283 -112 263 -87 q 343 -157 303 -137 q 451 -176 383 -176 q 578 -145 532 -176 q 644 -64 624 -114 q 664 42 664 -14 l 664 126 l 657 126 q 613 73 643 103 q 535 22 583 43 q 415 0 486 0 q 269 32 332 0 q 166 118 207 64 q 104 239 125 172 q 83 375 83 306 q 104 511 83 444 q 166 632 125 578 q 269 718 207 686 q 415 750 332 750 q 535 728 486 750 q 613 678 583 707 q 657 624 643 649 l 664 624 l 664 736 l 796 736 l 796 43 q 706 -201 796 -111 q 451 -292 617 -292 m 440 113 q 563 151 514 113 q 637 249 613 189 q 661 375 661 308 q 637 502 661 442 q 563 600 613 563 q 440 638 514 638 q 317 600 367 638 q 242 502 267 563 q 218 375 218 442 q 242 249 218 308 q 317 151 267 189 q 440 113 367 113 z "},"ğ":{"ha":914,"x_min":90,"x_max":803,"o":"m 454 840 q 345 862 388 840 q 279 915 303 883 q 246 977 256 946 q 234 1030 236 1008 q 232 1051 232 1051 l 331 1051 q 333 1033 331 1051 q 347 990 336 1014 q 383 948 357 967 q 454 929 408 929 q 526 948 500 929 q 562 990 551 967 q 575 1033 572 1014 q 578 1051 578 1051 l 676 1051 q 674 1030 676 1051 q 663 977 672 1008 q 629 915 653 946 q 563 862 606 883 q 454 840 521 840 m 458 -292 q 306 -267 367 -292 q 208 -206 244 -243 q 153 -133 171 -169 q 129 -73 135 -97 q 124 -49 124 -49 l 256 -49 q 263 -68 256 -49 q 290 -112 269 -87 q 350 -157 310 -137 q 458 -176 390 -176 q 585 -145 539 -176 q 651 -64 631 -114 q 671 42 671 -14 l 671 126 l 664 126 q 620 73 650 103 q 542 22 590 43 q 422 0 493 0 q 276 32 339 0 q 173 118 214 64 q 111 239 132 172 q 90 375 90 306 q 111 511 90 444 q 173 632 132 578 q 276 718 214 686 q 422 750 339 750 q 542 728 493 750 q 620 678 590 707 q 664 624 650 649 l 671 624 l 671 736 l 803 736 l 803 43 q 713 -201 803 -111 q 458 -292 624 -292 m 447 113 q 570 151 521 113 q 644 249 619 189 q 668 375 668 308 q 644 502 668 442 q 570 600 619 563 q 447 638 521 638 q 324 600 374 638 q 249 502 274 563 q 225 375 225 442 q 249 249 225 308 q 324 151 274 189 q 447 113 374 113 z "},"ǧ":{"ha":914,"x_min":90,"x_max":803,"o":"m 399 826 l 231 1058 l 350 1058 l 454 910 l 560 1058 l 679 1058 l 511 826 l 399 826 m 458 -292 q 306 -267 367 -292 q 208 -206 244 -243 q 153 -133 171 -169 q 129 -73 135 -97 q 124 -49 124 -49 l 256 -49 q 263 -68 256 -49 q 290 -112 269 -87 q 350 -157 310 -137 q 458 -176 390 -176 q 585 -145 539 -176 q 651 -64 631 -114 q 671 42 671 -14 l 671 126 l 664 126 q 620 73 650 103 q 542 22 590 43 q 422 0 493 0 q 276 32 339 0 q 173 118 214 64 q 111 239 132 172 q 90 375 90 306 q 111 511 90 444 q 173 632 132 578 q 276 718 214 686 q 422 750 339 750 q 542 728 493 750 q 620 678 590 707 q 664 624 650 649 l 671 624 l 671 736 l 803 736 l 803 43 q 713 -201 803 -111 q 458 -292 624 -292 m 447 113 q 570 151 521 113 q 644 249 619 189 q 668 375 668 308 q 644 502 668 442 q 570 600 619 563 q 447 638 521 638 q 324 600 374 638 q 249 502 274 563 q 225 375 225 442 q 249 249 225 308 q 324 151 274 189 q 447 113 374 113 z "},"ġ":{"ha":914,"x_min":90,"x_max":803,"o":"m 454 876 q 392 901 417 876 q 368 961 368 926 q 392 1022 368 997 q 454 1047 417 1047 q 515 1022 490 1047 q 540 961 540 997 q 515 901 540 926 q 454 876 490 876 m 458 -292 q 306 -267 367 -292 q 208 -206 244 -243 q 153 -133 171 -169 q 129 -73 135 -97 q 124 -49 124 -49 l 256 -49 q 263 -68 256 -49 q 290 -112 269 -87 q 350 -157 310 -137 q 458 -176 390 -176 q 585 -145 539 -176 q 651 -64 631 -114 q 671 42 671 -14 l 671 126 l 664 126 q 620 73 650 103 q 542 22 590 43 q 422 0 493 0 q 276 32 339 0 q 173 118 214 64 q 111 239 132 172 q 90 375 90 306 q 111 511 90 444 q 173 632 132 578 q 276 718 214 686 q 422 750 339 750 q 542 728 493 750 q 620 678 590 707 q 664 624 650 649 l 671 624 l 671 736 l 803 736 l 803 43 q 713 -201 803 -111 q 458 -292 624 -292 m 447 113 q 570 151 521 113 q 644 249 619 189 q 668 375 668 308 q 644 502 668 442 q 570 600 619 563 q 447 638 521 638 q 324 600 374 638 q 249 502 274 563 q 225 375 225 442 q 249 249 225 308 q 324 151 274 189 q 447 113 374 113 z "},"ḡ":{"ha":914,"x_min":90,"x_max":803,"o":"m 243 869 l 243 969 l 665 969 l 665 869 l 243 869 m 458 -292 q 306 -267 367 -292 q 208 -206 244 -243 q 153 -133 171 -169 q 129 -73 135 -97 q 124 -49 124 -49 l 256 -49 q 263 -68 256 -49 q 290 -112 269 -87 q 350 -157 310 -137 q 458 -176 390 -176 q 585 -145 539 -176 q 651 -64 631 -114 q 671 42 671 -14 l 671 126 l 664 126 q 620 73 650 103 q 542 22 590 43 q 422 0 493 0 q 276 32 339 0 q 173 118 214 64 q 111 239 132 172 q 90 375 90 306 q 111 511 90 444 q 173 632 132 578 q 276 718 214 686 q 422 750 339 750 q 542 728 493 750 q 620 678 590 707 q 664 624 650 649 l 671 624 l 671 736 l 803 736 l 803 43 q 713 -201 803 -111 q 458 -292 624 -292 m 447 113 q 570 151 521 113 q 644 249 619 189 q 668 375 668 308 q 644 502 668 442 q 570 600 619 563 q 447 638 521 638 q 324 600 374 638 q 249 502 274 563 q 225 375 225 442 q 249 249 225 308 q 324 151 274 189 q 447 113 374 113 z "},"h":{"ha":810,"x_min":111,"x_max":713,"o":"m 111 0 l 111 1056 l 243 1056 l 243 629 l 251 629 q 284 675 261 646 q 350 727 307 704 q 458 750 393 750 q 596 713 539 750 q 683 614 653 676 q 713 474 713 551 l 713 0 l 581 0 l 581 465 q 540 588 581 539 q 421 636 499 636 q 319 605 358 636 q 262 523 281 574 q 243 415 243 472 l 243 0 l 111 0 z "},"ħ":{"ha":863,"x_min":28,"x_max":765,"o":"m 164 0 l 164 817 l 28 817 l 28 922 l 164 922 l 164 1056 l 296 1056 l 296 922 l 479 922 l 479 817 l 296 817 l 296 629 l 304 629 q 337 675 314 646 q 403 727 360 704 q 511 750 446 750 q 649 713 592 750 q 735 614 706 676 q 765 474 765 551 l 765 0 l 633 0 l 633 465 q 592 588 633 539 q 474 636 551 636 q 372 605 411 636 q 314 523 332 574 q 296 415 296 472 l 296 0 l 164 0 z "},"i":{"ha":367,"x_min":97,"x_max":269,"o":"m 183 876 q 122 901 146 876 q 97 961 97 926 q 122 1022 97 997 q 183 1047 146 1047 q 244 1022 219 1047 q 269 961 269 997 q 244 901 269 926 q 183 876 219 876 m 118 0 l 118 736 l 250 736 l 250 0 l 118 0 z "},"ı":{"ha":383,"x_min":126,"x_max":258,"o":"m 126 0 l 126 736 l 258 736 l 258 0 l 126 0 z "},"í":{"ha":383,"x_min":126,"x_max":390,"o":"m 247 847 l 135 849 l 254 1099 l 390 1099 l 247 847 m 126 0 l 126 736 l 258 736 l 258 0 l 126 0 z "},"î":{"ha":383,"x_min":-32,"x_max":417,"o":"m -32 842 l 136 1074 l 249 1074 l 417 842 l 297 842 l 192 990 l 88 842 l -32 842 m 126 0 l 126 736 l 258 736 l 258 0 l 126 0 z "},"ï":{"ha":383,"x_min":-26,"x_max":410,"o":"m 324 849 q 262 874 286 849 q 238 933 238 899 q 262 994 238 969 q 324 1019 286 1019 q 385 994 360 1019 q 410 933 410 969 q 385 874 410 899 q 324 849 360 849 m 60 849 q -2 874 22 849 q -26 933 -26 899 q -2 994 -26 969 q 60 1019 22 1019 q 121 994 96 1019 q 146 933 146 969 q 121 874 146 899 q 60 849 96 849 m 126 0 l 126 736 l 258 736 l 258 0 l 126 0 z "},"ị":{"ha":383,"x_min":101,"x_max":282,"o":"m 192 876 q 130 901 154 876 q 106 961 106 926 q 130 1022 106 997 q 192 1047 154 1047 q 253 1022 228 1047 q 278 961 278 997 q 253 901 278 926 q 192 876 228 876 m 126 0 l 126 736 l 258 736 l 258 0 l 126 0 m 192 -315 q 127 -288 153 -315 q 101 -225 101 -261 q 127 -161 101 -187 q 192 -135 153 -135 q 256 -161 231 -135 q 282 -225 282 -187 q 256 -289 282 -262 q 192 -315 231 -315 z "},"ì":{"ha":383,"x_min":-1,"x_max":258,"o":"m 142 847 l -1 1099 l 135 1099 l 254 849 l 142 847 m 126 0 l 126 736 l 258 736 l 258 0 l 126 0 z "},"ỉ":{"ha":383,"x_min":43,"x_max":354,"o":"m 147 838 l 147 882 q 153 910 147 896 q 175 932 158 924 l 194 942 q 258 1013 258 974 q 244 1048 258 1032 q 197 1064 229 1064 q 156 1052 169 1064 q 139 1026 143 1040 q 135 1004 135 1013 l 43 1004 q 59 1071 43 1039 q 109 1124 75 1103 q 196 1144 143 1144 q 312 1106 269 1144 q 354 1015 354 1068 q 328 942 354 976 q 243 881 301 908 l 238 878 l 238 838 l 147 838 m 126 0 l 126 736 l 258 736 l 258 0 l 126 0 z "},"ī":{"ha":383,"x_min":-19,"x_max":403,"o":"m -19 869 l -19 969 l 403 969 l 403 869 l -19 869 m 126 0 l 126 736 l 258 736 l 258 0 l 126 0 z "},"į":{"ha":383,"x_min":75,"x_max":314,"o":"m 192 876 q 130 901 154 876 q 106 961 106 926 q 130 1022 106 997 q 192 1047 154 1047 q 253 1022 228 1047 q 278 961 278 997 q 253 901 278 926 q 192 876 228 876 m 126 0 l 126 736 l 258 736 l 258 0 q 240 -10 258 0 q 202 -39 221 -19 q 183 -87 183 -58 q 203 -130 183 -112 q 263 -147 224 -147 q 298 -144 282 -147 q 314 -140 314 -140 l 314 -228 q 293 -232 314 -228 q 240 -236 272 -236 q 117 -199 158 -236 q 75 -111 75 -162 q 96 -44 75 -71 q 140 0 117 -17 l 126 0 z "},"ĩ":{"ha":383,"x_min":-26,"x_max":410,"o":"m 286 857 q 223 871 249 857 q 178 903 197 885 q 143 935 160 921 q 107 949 126 949 q 73 926 83 949 q 63 865 63 903 l -26 865 q -16 949 -26 908 q 22 1017 -6 990 q 99 1044 50 1044 q 163 1031 136 1044 q 208 999 189 1017 q 243 968 226 982 q 278 954 260 954 q 310 976 300 954 q 321 1038 321 999 l 410 1038 q 399 953 410 994 q 362 884 389 911 q 286 857 335 857 m 126 0 l 126 736 l 258 736 l 258 0 l 126 0 z "},"j":{"ha":381,"x_min":-62,"x_max":283,"o":"m 197 876 q 135 901 160 876 q 111 961 111 926 q 135 1022 111 997 q 197 1047 160 1047 q 258 1022 233 1047 q 283 961 283 997 q 258 901 283 926 q 197 876 233 876 m 28 -264 q -37 -260 -11 -264 q -62 -256 -62 -256 l -62 -139 q -44 -142 -62 -139 q 0 -144 -26 -144 q 103 -112 74 -144 q 132 -10 132 -79 l 132 736 l 264 736 l 264 -10 q 253 -99 264 -54 q 217 -181 243 -143 q 144 -241 190 -218 q 28 -264 99 -264 z "},"k":{"ha":771,"x_min":111,"x_max":715,"o":"m 111 0 l 111 1056 l 243 1056 l 243 442 l 536 736 l 708 736 l 369 401 l 715 0 l 547 0 l 243 354 l 243 0 l 111 0 z "},"l":{"ha":354,"x_min":111,"x_max":243,"o":"m 111 0 l 113 1056 l 243 1056 l 243 0 l 111 0 z "},"ĺ":{"ha":382,"x_min":125,"x_max":390,"o":"m 247 1171 l 135 1172 l 254 1422 l 390 1422 l 247 1171 m 125 0 l 126 1056 l 257 1056 l 257 0 l 125 0 z "},"ľ":{"ha":439,"x_min":111,"x_max":494,"o":"m 111 0 l 113 1056 l 243 1056 l 243 0 l 111 0 m 357 771 l 371 1056 l 494 1056 l 443 771 l 357 771 z "},"ł":{"ha":585,"x_min":42,"x_max":543,"o":"m 213 0 l 213 465 l 42 415 l 42 529 l 214 579 l 214 1056 l 344 1056 l 344 618 l 543 676 l 543 563 l 344 504 l 344 0 l 213 0 z "},"m":{"ha":1240,"x_min":97,"x_max":1143,"o":"m 97 0 l 97 736 l 229 736 l 229 629 l 235 629 q 269 678 246 650 q 334 728 293 707 q 438 750 375 750 q 576 710 519 750 q 660 604 632 671 l 661 604 q 748 708 692 665 q 894 750 804 750 q 1078 669 1014 750 q 1143 460 1143 588 l 1143 0 l 1011 0 l 1011 453 q 972 585 1011 535 q 860 636 933 636 q 758 601 796 636 q 703 515 719 567 q 686 413 686 464 l 686 0 l 554 0 l 554 453 q 516 585 554 535 q 403 636 478 636 q 301 601 339 636 q 246 515 263 567 q 229 413 229 463 l 229 0 l 97 0 z "},"n":{"ha":796,"x_min":97,"x_max":699,"o":"m 97 0 l 97 736 l 229 736 l 229 629 l 238 629 q 270 675 247 646 q 336 727 293 704 q 444 750 379 750 q 582 713 525 750 q 669 614 639 676 q 699 474 699 551 l 699 0 l 567 0 l 567 465 q 526 588 567 539 q 407 636 485 636 q 306 605 344 636 q 248 523 267 574 q 229 415 229 472 l 229 0 l 97 0 z "},"ń":{"ha":831,"x_min":118,"x_max":719,"o":"m 476 847 l 364 849 l 483 1099 l 619 1099 l 476 847 m 118 0 l 118 736 l 250 736 l 250 629 l 258 629 q 291 675 268 646 q 357 727 314 704 q 465 750 400 750 q 603 713 546 750 q 690 614 660 676 q 719 474 719 551 l 719 0 l 588 0 l 588 465 q 547 588 588 539 q 428 636 506 636 q 326 605 365 636 q 269 523 288 574 q 250 415 250 472 l 250 0 l 118 0 z "},"ň":{"ha":831,"x_min":118,"x_max":719,"o":"m 365 826 l 197 1058 l 317 1058 l 421 910 l 526 1058 l 646 1058 l 478 826 l 365 826 m 118 0 l 118 736 l 250 736 l 250 629 l 258 629 q 291 675 268 646 q 357 727 314 704 q 465 750 400 750 q 603 713 546 750 q 690 614 660 676 q 719 474 719 551 l 719 0 l 588 0 l 588 465 q 547 588 588 539 q 428 636 506 636 q 326 605 365 636 q 269 523 288 574 q 250 415 250 472 l 250 0 l 118 0 z "},"ñ":{"ha":831,"x_min":118,"x_max":719,"o":"m 515 857 q 452 871 478 857 q 408 903 426 885 q 372 935 389 921 q 336 949 356 949 q 302 926 313 949 q 292 865 292 903 l 203 865 q 213 949 203 908 q 251 1017 224 990 q 328 1044 279 1044 q 392 1031 365 1044 q 437 999 418 1017 q 472 968 456 982 q 507 954 489 954 q 540 976 529 954 q 550 1038 550 999 l 639 1038 q 628 953 639 994 q 591 884 618 911 q 515 857 564 857 m 118 0 l 118 736 l 250 736 l 250 629 l 258 629 q 291 675 268 646 q 357 727 314 704 q 465 750 400 750 q 603 713 546 750 q 690 614 660 676 q 719 474 719 551 l 719 0 l 588 0 l 588 465 q 547 588 588 539 q 428 636 506 636 q 326 605 365 636 q 269 523 288 574 q 250 415 250 472 l 250 0 l 118 0 z "},"o":{"ha":892,"x_min":83,"x_max":808,"o":"m 446 -14 q 247 41 328 -14 q 125 183 167 96 q 83 368 83 271 q 125 553 83 467 q 247 695 167 640 q 446 750 328 750 q 644 695 564 750 q 767 553 725 640 q 808 368 808 467 q 767 183 808 271 q 644 41 725 96 q 446 -14 564 -14 m 446 101 q 572 140 521 101 q 648 239 622 178 q 674 368 674 300 q 648 498 674 438 q 572 597 622 558 q 446 635 521 635 q 321 597 372 635 q 244 498 269 558 q 218 368 218 438 q 244 239 218 300 q 321 140 269 178 q 446 101 372 101 z "},"ó":{"ha":906,"x_min":90,"x_max":815,"o":"m 507 849 l 394 850 l 514 1100 l 650 1100 l 507 849 m 453 -14 q 254 41 335 -14 q 132 183 174 96 q 90 368 90 271 q 132 553 90 467 q 254 695 174 640 q 453 750 335 750 q 651 695 571 750 q 774 553 732 640 q 815 368 815 467 q 774 183 815 271 q 651 41 732 96 q 453 -14 571 -14 m 453 101 q 578 140 528 101 q 655 239 629 178 q 681 368 681 300 q 655 498 681 438 q 578 597 629 558 q 453 635 528 635 q 328 597 379 635 q 251 498 276 558 q 225 368 225 438 q 251 239 225 300 q 328 140 276 178 q 453 101 379 101 z "},"ô":{"ha":906,"x_min":90,"x_max":815,"o":"m 228 843 l 396 1075 l 508 1075 l 676 843 l 557 843 l 451 992 l 347 843 l 228 843 m 453 -14 q 254 41 335 -14 q 132 183 174 96 q 90 368 90 271 q 132 553 90 467 q 254 695 174 640 q 453 750 335 750 q 651 695 571 750 q 774 553 732 640 q 815 368 815 467 q 774 183 815 271 q 651 41 732 96 q 453 -14 571 -14 m 453 101 q 578 140 528 101 q 655 239 629 178 q 681 368 681 300 q 655 498 681 438 q 578 597 629 558 q 453 635 528 635 q 328 597 379 635 q 251 498 276 558 q 225 368 225 438 q 251 239 225 300 q 328 140 276 178 q 453 101 379 101 z "},"ố":{"ha":906,"x_min":90,"x_max":863,"o":"m 719 1021 l 607 1022 l 726 1272 l 863 1272 l 719 1021 m 228 843 l 396 1047 l 508 1047 l 676 843 l 557 843 l 451 971 l 347 843 l 228 843 m 453 -14 q 254 41 335 -14 q 132 183 174 96 q 90 368 90 271 q 132 553 90 467 q 254 695 174 640 q 453 750 335 750 q 651 695 571 750 q 774 553 732 640 q 815 368 815 467 q 774 183 815 271 q 651 41 732 96 q 453 -14 571 -14 m 453 101 q 578 140 528 101 q 655 239 629 178 q 681 368 681 300 q 655 498 681 438 q 578 597 629 558 q 453 635 528 635 q 328 597 379 635 q 251 498 276 558 q 225 368 225 438 q 251 239 225 300 q 328 140 276 178 q 453 101 379 101 z "},"ộ":{"ha":906,"x_min":90,"x_max":815,"o":"m 228 843 l 396 1075 l 508 1075 l 676 843 l 557 843 l 451 992 l 347 843 l 228 843 m 453 -14 q 254 41 335 -14 q 132 183 174 96 q 90 368 90 271 q 132 553 90 467 q 254 695 174 640 q 453 750 335 750 q 651 695 571 750 q 774 553 732 640 q 815 368 815 467 q 774 183 815 271 q 651 41 732 96 q 453 -14 571 -14 m 453 101 q 578 140 528 101 q 655 239 629 178 q 681 368 681 300 q 655 498 681 438 q 578 597 629 558 q 453 635 528 635 q 328 597 379 635 q 251 498 276 558 q 225 368 225 438 q 251 239 225 300 q 328 140 276 178 q 453 101 379 101 m 453 -315 q 388 -288 414 -315 q 363 -225 363 -261 q 388 -161 363 -187 q 453 -135 414 -135 q 517 -161 492 -135 q 543 -225 543 -187 q 517 -289 543 -262 q 453 -315 492 -315 z "},"ồ":{"ha":906,"x_min":90,"x_max":815,"o":"m 642 1021 l 499 1272 l 635 1272 l 754 1022 l 642 1021 m 228 843 l 396 1047 l 508 1047 l 676 843 l 557 843 l 451 971 l 347 843 l 228 843 m 453 -14 q 254 41 335 -14 q 132 183 174 96 q 90 368 90 271 q 132 553 90 467 q 254 695 174 640 q 453 750 335 750 q 651 695 571 750 q 774 553 732 640 q 815 368 815 467 q 774 183 815 271 q 651 41 732 96 q 453 -14 571 -14 m 453 101 q 578 140 528 101 q 655 239 629 178 q 681 368 681 300 q 655 498 681 438 q 578 597 629 558 q 453 635 528 635 q 328 597 379 635 q 251 498 276 558 q 225 368 225 438 q 251 239 225 300 q 328 140 276 178 q 453 101 379 101 z "},"ổ":{"ha":906,"x_min":90,"x_max":826,"o":"m 619 1011 l 619 1056 q 625 1083 619 1069 q 647 1106 631 1097 l 667 1115 q 731 1186 731 1147 q 716 1222 731 1206 q 669 1238 701 1238 q 628 1226 642 1238 q 611 1200 615 1214 q 607 1178 607 1186 l 515 1178 q 531 1244 515 1213 q 581 1297 547 1276 q 668 1318 615 1318 q 784 1280 742 1318 q 826 1189 826 1242 q 800 1116 826 1150 q 715 1054 774 1082 l 710 1051 l 710 1011 l 619 1011 m 228 843 l 396 1047 l 508 1047 l 676 843 l 557 843 l 451 971 l 347 843 l 228 843 m 453 -14 q 254 41 335 -14 q 132 183 174 96 q 90 368 90 271 q 132 553 90 467 q 254 695 174 640 q 453 750 335 750 q 651 695 571 750 q 774 553 732 640 q 815 368 815 467 q 774 183 815 271 q 651 41 732 96 q 453 -14 571 -14 m 453 101 q 578 140 528 101 q 655 239 629 178 q 681 368 681 300 q 655 498 681 438 q 578 597 629 558 q 453 635 528 635 q 328 597 379 635 q 251 498 276 558 q 225 368 225 438 q 251 239 225 300 q 328 140 276 178 q 453 101 379 101 z "},"ỗ":{"ha":906,"x_min":90,"x_max":815,"o":"m 546 1101 q 483 1115 508 1101 q 438 1147 457 1129 q 403 1179 419 1165 q 367 1193 386 1193 q 333 1170 343 1193 q 322 1110 322 1147 l 233 1110 q 244 1194 233 1153 q 282 1262 254 1235 q 358 1289 310 1289 q 422 1275 396 1289 q 467 1244 449 1261 q 503 1213 486 1226 q 538 1199 519 1199 q 570 1221 560 1199 q 581 1282 581 1243 l 669 1282 q 659 1197 669 1239 q 622 1128 649 1156 q 546 1101 594 1101 m 226 843 l 394 1047 l 507 1047 l 675 843 l 556 843 l 450 971 l 346 843 l 226 843 m 453 -14 q 254 41 335 -14 q 132 183 174 96 q 90 368 90 271 q 132 553 90 467 q 254 695 174 640 q 453 750 335 750 q 651 695 571 750 q 774 553 732 640 q 815 368 815 467 q 774 183 815 271 q 651 41 732 96 q 453 -14 571 -14 m 453 101 q 578 140 528 101 q 655 239 629 178 q 681 368 681 300 q 655 498 681 438 q 578 597 629 558 q 453 635 528 635 q 328 597 379 635 q 251 498 276 558 q 225 368 225 438 q 251 239 225 300 q 328 140 276 178 q 453 101 379 101 z "},"ö":{"ha":906,"x_min":90,"x_max":815,"o":"m 583 850 q 522 875 546 850 q 497 935 497 900 q 522 996 497 971 q 583 1021 546 1021 q 644 996 619 1021 q 669 935 669 971 q 644 875 669 900 q 583 850 619 850 m 319 850 q 258 875 282 850 q 233 935 233 900 q 258 996 233 971 q 319 1021 282 1021 q 381 996 356 1021 q 406 935 406 971 q 381 875 406 900 q 319 850 356 850 m 453 -14 q 254 41 335 -14 q 132 183 174 96 q 90 368 90 271 q 132 553 90 467 q 254 695 174 640 q 453 750 335 750 q 651 695 571 750 q 774 553 732 640 q 815 368 815 467 q 774 183 815 271 q 651 41 732 96 q 453 -14 571 -14 m 453 101 q 578 140 528 101 q 655 239 629 178 q 681 368 681 300 q 655 498 681 438 q 578 597 629 558 q 453 635 528 635 q 328 597 379 635 q 251 498 276 558 q 225 368 225 438 q 251 239 225 300 q 328 140 276 178 q 453 101 379 101 z "},"ọ":{"ha":906,"x_min":90,"x_max":815,"o":"m 453 -14 q 254 41 335 -14 q 132 183 174 96 q 90 368 90 271 q 132 553 90 467 q 254 695 174 640 q 453 750 335 750 q 651 695 571 750 q 774 553 732 640 q 815 368 815 467 q 774 183 815 271 q 651 41 732 96 q 453 -14 571 -14 m 453 101 q 578 140 528 101 q 655 239 629 178 q 681 368 681 300 q 655 498 681 438 q 578 597 629 558 q 453 635 528 635 q 328 597 379 635 q 251 498 276 558 q 225 368 225 438 q 251 239 225 300 q 328 140 276 178 q 453 101 379 101 m 453 -315 q 388 -288 414 -315 q 363 -225 363 -261 q 388 -161 363 -187 q 453 -135 414 -135 q 517 -161 492 -135 q 543 -225 543 -187 q 517 -289 543 -262 q 453 -315 492 -315 z "},"ò":{"ha":906,"x_min":90,"x_max":815,"o":"m 401 849 l 258 1100 l 394 1100 l 514 850 l 401 849 m 453 -14 q 254 41 335 -14 q 132 183 174 96 q 90 368 90 271 q 132 553 90 467 q 254 695 174 640 q 453 750 335 750 q 651 695 571 750 q 774 553 732 640 q 815 368 815 467 q 774 183 815 271 q 651 41 732 96 q 453 -14 571 -14 m 453 101 q 578 140 528 101 q 655 239 629 178 q 681 368 681 300 q 655 498 681 438 q 578 597 629 558 q 453 635 528 635 q 328 597 379 635 q 251 498 276 558 q 225 368 225 438 q 251 239 225 300 q 328 140 276 178 q 453 101 379 101 z "},"ỏ":{"ha":906,"x_min":90,"x_max":815,"o":"m 407 839 l 407 883 q 413 911 407 897 q 435 933 418 925 l 454 943 q 518 1014 518 975 q 503 1049 518 1033 q 457 1065 489 1065 q 416 1053 429 1065 q 399 1028 403 1042 q 394 1006 394 1014 l 303 1006 q 319 1072 303 1040 q 369 1125 335 1104 q 456 1146 403 1146 q 572 1108 529 1146 q 614 1017 614 1069 q 588 944 614 978 q 503 882 561 910 l 497 879 l 497 839 l 407 839 m 453 -14 q 254 41 335 -14 q 132 183 174 96 q 90 368 90 271 q 132 553 90 467 q 254 695 174 640 q 453 750 335 750 q 651 695 571 750 q 774 553 732 640 q 815 368 815 467 q 774 183 815 271 q 651 41 732 96 q 453 -14 571 -14 m 453 101 q 578 140 528 101 q 655 239 629 178 q 681 368 681 300 q 655 498 681 438 q 578 597 629 558 q 453 635 528 635 q 328 597 379 635 q 251 498 276 558 q 225 368 225 438 q 251 239 225 300 q 328 140 276 178 q 453 101 379 101 z "},"ơ":{"ha":892,"x_min":83,"x_max":808,"o":"m 446 -14 q 247 41 328 -14 q 125 183 167 96 q 83 368 83 271 q 125 553 83 467 q 247 695 167 640 q 446 750 328 750 l 635 750 q 689 807 689 750 l 689 890 l 806 890 l 806 807 q 775 708 806 746 q 683 665 744 669 q 776 533 744 611 q 808 368 808 454 q 767 183 808 271 q 644 41 725 96 q 446 -14 564 -14 m 446 101 q 572 140 521 101 q 648 239 622 178 q 674 368 674 300 q 648 498 674 438 q 572 597 622 558 q 446 635 521 635 q 321 597 372 635 q 244 498 269 558 q 218 368 218 438 q 244 239 218 300 q 321 140 269 178 q 446 101 372 101 z "},"ớ":{"ha":906,"x_min":90,"x_max":815,"o":"m 508 847 l 396 849 l 515 1099 l 651 1099 l 508 847 m 453 -14 q 254 41 335 -14 q 132 183 174 96 q 90 368 90 271 q 132 553 90 467 q 254 695 174 640 q 453 750 335 750 l 642 750 q 696 807 696 750 l 696 890 l 813 890 l 813 807 q 782 708 813 746 q 690 665 751 669 q 783 533 751 611 q 815 368 815 454 q 774 183 815 271 q 651 41 732 96 q 453 -14 571 -14 m 453 101 q 578 140 528 101 q 655 239 629 178 q 681 368 681 300 q 655 498 681 438 q 578 597 629 558 q 453 635 528 635 q 328 597 379 635 q 251 498 276 558 q 225 368 225 438 q 251 239 225 300 q 328 140 276 178 q 453 101 379 101 z "},"ợ":{"ha":906,"x_min":90,"x_max":815,"o":"m 453 -14 q 254 41 335 -14 q 132 183 174 96 q 90 368 90 271 q 132 553 90 467 q 254 695 174 640 q 453 750 335 750 l 642 750 q 696 807 696 750 l 696 890 l 813 890 l 813 807 q 782 708 813 746 q 690 665 751 669 q 783 533 751 611 q 815 368 815 454 q 774 183 815 271 q 651 41 732 96 q 453 -14 571 -14 m 453 101 q 578 140 528 101 q 655 239 629 178 q 681 368 681 300 q 655 498 681 438 q 578 597 629 558 q 453 635 528 635 q 328 597 379 635 q 251 498 276 558 q 225 368 225 438 q 251 239 225 300 q 328 140 276 178 q 453 101 379 101 m 453 -315 q 388 -288 414 -315 q 363 -225 363 -261 q 388 -161 363 -187 q 453 -135 414 -135 q 517 -161 492 -135 q 543 -225 543 -187 q 517 -289 543 -262 q 453 -315 492 -315 z "},"ờ":{"ha":906,"x_min":90,"x_max":815,"o":"m 403 847 l 260 1099 l 396 1099 l 515 849 l 403 847 m 453 -14 q 254 41 335 -14 q 132 183 174 96 q 90 368 90 271 q 132 553 90 467 q 254 695 174 640 q 453 750 335 750 l 642 750 q 696 807 696 750 l 696 890 l 813 890 l 813 807 q 782 708 813 746 q 690 665 751 669 q 783 533 751 611 q 815 368 815 454 q 774 183 815 271 q 651 41 732 96 q 453 -14 571 -14 m 453 101 q 578 140 528 101 q 655 239 629 178 q 681 368 681 300 q 655 498 681 438 q 578 597 629 558 q 453 635 528 635 q 328 597 379 635 q 251 498 276 558 q 225 368 225 438 q 251 239 225 300 q 328 140 276 178 q 453 101 379 101 z "},"ở":{"ha":906,"x_min":90,"x_max":815,"o":"m 408 838 l 408 882 q 414 910 408 896 q 436 932 419 924 l 456 942 q 519 1013 519 974 q 505 1048 519 1032 q 458 1064 490 1064 q 417 1052 431 1064 q 400 1026 404 1040 q 396 1004 396 1013 l 304 1004 q 320 1071 304 1039 q 370 1124 336 1103 q 457 1144 404 1144 q 573 1106 531 1144 q 615 1015 615 1068 q 589 942 615 976 q 504 881 563 908 l 499 878 l 499 838 l 408 838 m 453 -14 q 254 41 335 -14 q 132 183 174 96 q 90 368 90 271 q 132 553 90 467 q 254 695 174 640 q 453 750 335 750 l 642 750 q 696 807 696 750 l 696 890 l 813 890 l 813 807 q 782 708 813 746 q 690 665 751 669 q 783 533 751 611 q 815 368 815 454 q 774 183 815 271 q 651 41 732 96 q 453 -14 571 -14 m 453 101 q 578 140 528 101 q 655 239 629 178 q 681 368 681 300 q 655 498 681 438 q 578 597 629 558 q 453 635 528 635 q 328 597 379 635 q 251 498 276 558 q 225 368 225 438 q 251 239 225 300 q 328 140 276 178 q 453 101 379 101 z "},"ỡ":{"ha":906,"x_min":90,"x_max":815,"o":"m 546 858 q 483 872 508 858 q 438 904 457 886 q 403 936 419 922 q 368 950 388 950 q 334 927 344 950 q 324 865 324 904 l 239 865 q 249 949 239 908 q 287 1015 260 989 q 361 1040 314 1040 q 424 1026 399 1040 q 469 994 450 1013 q 504 963 488 976 q 539 949 521 949 q 572 972 561 949 q 582 1033 582 994 l 667 1033 q 656 951 667 992 q 619 885 646 911 q 546 858 593 858 m 453 -14 q 254 41 335 -14 q 132 183 174 96 q 90 368 90 271 q 132 553 90 467 q 254 695 174 640 q 453 750 335 750 l 642 750 q 696 807 696 750 l 696 890 l 813 890 l 813 807 q 782 708 813 746 q 690 665 751 669 q 783 533 751 611 q 815 368 815 454 q 774 183 815 271 q 651 41 732 96 q 453 -14 571 -14 m 453 101 q 578 140 528 101 q 655 239 629 178 q 681 368 681 300 q 655 498 681 438 q 578 597 629 558 q 453 635 528 635 q 328 597 379 635 q 251 498 276 558 q 225 368 225 438 q 251 239 225 300 q 328 140 276 178 q 453 101 379 101 z "},"ő":{"ha":906,"x_min":90,"x_max":815,"o":"m 393 849 l 281 850 l 344 1100 l 481 1100 l 393 849 m 618 849 l 506 850 l 569 1100 l 706 1100 l 618 849 m 453 -14 q 254 41 335 -14 q 132 183 174 96 q 90 368 90 271 q 132 553 90 467 q 254 695 174 640 q 453 750 335 750 q 651 695 571 750 q 774 553 732 640 q 815 368 815 467 q 774 183 815 271 q 651 41 732 96 q 453 -14 571 -14 m 453 101 q 578 140 528 101 q 655 239 629 178 q 681 368 681 300 q 655 498 681 438 q 578 597 629 558 q 453 635 528 635 q 328 597 379 635 q 251 498 276 558 q 225 368 225 438 q 251 239 225 300 q 328 140 276 178 q 453 101 379 101 z "},"ō":{"ha":906,"x_min":90,"x_max":815,"o":"m 240 871 l 240 971 l 663 971 l 663 871 l 240 871 m 453 -14 q 254 41 335 -14 q 132 183 174 96 q 90 368 90 271 q 132 553 90 467 q 254 695 174 640 q 453 750 335 750 q 651 695 571 750 q 774 553 732 640 q 815 368 815 467 q 774 183 815 271 q 651 41 732 96 q 453 -14 571 -14 m 453 101 q 578 140 528 101 q 655 239 629 178 q 681 368 681 300 q 655 498 681 438 q 578 597 629 558 q 453 635 528 635 q 328 597 379 635 q 251 498 276 558 q 225 368 225 438 q 251 239 225 300 q 328 140 276 178 q 453 101 379 101 z "},"ø":{"ha":892,"x_min":83,"x_max":808,"o":"m 154 -65 l 224 58 q 119 195 154 113 q 83 368 83 278 q 125 553 83 467 q 247 695 167 640 q 446 750 328 750 q 593 722 526 750 l 636 800 l 738 800 l 669 678 q 773 541 738 624 q 808 368 808 458 q 767 183 808 271 q 644 41 725 96 q 446 -14 564 -14 q 300 14 367 -14 l 256 -65 l 154 -65 m 218 368 q 235 261 218 313 q 286 171 253 210 l 535 617 q 446 635 494 635 q 321 597 372 635 q 244 498 269 558 q 218 368 218 438 m 446 101 q 572 140 521 101 q 648 239 622 178 q 674 368 674 300 q 656 475 674 424 q 606 564 639 526 l 358 119 q 446 101 399 101 z "},"õ":{"ha":906,"x_min":90,"x_max":815,"o":"m 546 858 q 483 872 508 858 q 438 904 457 886 q 403 936 419 922 q 367 950 386 950 q 333 927 343 950 q 322 867 322 904 l 233 867 q 244 951 233 910 q 282 1019 254 992 q 358 1046 310 1046 q 422 1032 396 1046 q 467 1001 449 1018 q 503 969 486 983 q 538 956 519 956 q 570 978 560 956 q 581 1039 581 1000 l 669 1039 q 659 954 669 996 q 622 885 649 913 q 546 858 594 858 m 453 -14 q 254 41 335 -14 q 132 183 174 96 q 90 368 90 271 q 132 553 90 467 q 254 695 174 640 q 453 750 335 750 q 651 695 571 750 q 774 553 732 640 q 815 368 815 467 q 774 183 815 271 q 651 41 732 96 q 453 -14 571 -14 m 453 101 q 578 140 528 101 q 655 239 629 178 q 681 368 681 300 q 655 498 681 438 q 578 597 629 558 q 453 635 528 635 q 328 597 379 635 q 251 498 276 558 q 225 368 225 438 q 251 239 225 300 q 328 140 276 178 q 453 101 379 101 z "},"œ":{"ha":1424,"x_min":83,"x_max":1340,"o":"m 446 -14 q 247 41 328 -14 q 125 183 167 96 q 83 368 83 271 q 125 553 83 467 q 247 695 167 640 q 446 750 328 750 q 621 708 547 750 q 739 588 694 665 q 850 707 781 664 q 1018 750 919 750 q 1185 707 1113 750 q 1299 579 1257 664 q 1340 367 1340 494 l 1340 328 l 808 328 q 838 213 813 265 q 911 130 864 161 q 1024 99 958 99 q 1116 117 1081 99 q 1172 161 1151 136 q 1201 205 1193 186 q 1208 224 1208 224 l 1332 224 q 1325 199 1332 224 q 1300 140 1318 175 q 1247 70 1282 106 q 1158 10 1213 35 q 1024 -14 1104 -14 q 852 29 922 -14 q 739 149 782 72 q 621 29 694 72 q 446 -14 547 -14 m 810 431 l 1211 431 q 1181 548 1208 503 q 1110 615 1153 593 q 1018 638 1067 638 q 875 581 931 638 q 810 431 819 525 m 446 101 q 572 140 521 101 q 648 239 622 178 q 674 368 674 300 q 648 498 674 438 q 572 597 622 558 q 446 635 521 635 q 321 597 372 635 q 244 498 269 558 q 218 368 218 438 q 244 239 218 300 q 321 140 269 178 q 446 101 372 101 z "},"p":{"ha":906,"x_min":111,"x_max":822,"o":"m 111 -272 l 111 736 l 243 736 l 243 619 l 251 619 q 297 676 268 646 q 372 728 325 707 q 489 750 419 750 q 635 717 572 750 q 739 630 697 685 q 801 507 781 575 q 822 368 822 439 q 801 229 822 297 q 739 106 781 161 q 635 19 697 51 q 489 -14 572 -14 q 372 8 419 -14 q 297 61 325 31 q 251 117 268 92 l 243 117 l 243 -272 l 111 -272 m 246 368 q 270 240 246 301 q 344 138 294 178 q 467 99 393 99 q 591 138 542 99 q 665 240 640 178 q 689 368 689 301 q 665 497 689 436 q 591 598 640 558 q 467 638 542 638 q 344 598 393 638 q 270 497 294 558 q 246 368 246 436 z "},"þ":{"ha":906,"x_min":111,"x_max":822,"o":"m 111 -272 l 111 1056 l 243 1056 l 243 619 l 251 619 q 297 676 268 646 q 372 728 325 707 q 489 750 419 750 q 635 717 572 750 q 739 630 697 685 q 801 507 781 575 q 822 368 822 439 q 801 229 822 297 q 739 106 781 161 q 635 19 697 51 q 489 -14 572 -14 q 372 8 419 -14 q 297 61 325 31 q 251 117 268 92 l 243 117 l 243 -272 l 111 -272 m 246 368 q 270 240 246 301 q 344 138 294 178 q 467 99 393 99 q 591 138 542 99 q 665 240 640 178 q 689 368 689 301 q 665 497 689 436 q 591 598 640 558 q 467 638 542 638 q 344 598 393 638 q 270 497 294 558 q 246 368 246 436 z "},"q":{"ha":906,"x_min":83,"x_max":794,"o":"m 663 -271 l 663 117 l 654 117 q 610 60 639 90 q 533 8 581 29 q 417 -14 486 -14 q 271 19 333 -14 q 167 106 208 51 q 104 229 125 161 q 83 368 83 297 q 104 507 83 439 q 167 630 125 575 q 271 717 208 685 q 417 750 333 750 q 533 728 486 750 q 610 676 581 706 q 654 619 639 646 l 663 619 l 663 736 l 794 736 l 794 -271 l 663 -271 m 439 99 q 562 138 513 99 q 635 240 611 178 q 660 368 660 301 q 635 497 660 436 q 562 598 611 558 q 439 638 513 638 q 315 598 365 638 q 241 497 265 558 q 217 368 217 436 q 241 240 217 301 q 315 138 265 178 q 439 99 365 99 z "},"r":{"ha":544,"x_min":97,"x_max":496,"o":"m 97 0 l 97 736 l 229 736 l 229 644 l 235 644 q 304 718 258 686 q 433 750 350 750 q 476 748 457 750 q 496 746 496 746 l 496 619 q 474 622 496 619 q 429 624 453 624 q 281 569 333 624 q 229 390 229 514 l 229 0 l 97 0 z "},"ŕ":{"ha":586,"x_min":125,"x_max":524,"o":"m 358 847 l 246 849 l 365 1099 l 501 1099 l 358 847 m 125 0 l 125 736 l 257 736 l 257 644 l 263 644 q 332 718 286 686 q 461 750 378 750 q 504 748 485 750 q 524 746 524 746 l 524 619 q 502 622 524 619 q 457 624 481 624 q 309 569 361 624 q 257 390 257 514 l 257 0 l 125 0 z "},"ř":{"ha":586,"x_min":79,"x_max":528,"o":"m 247 826 l 79 1058 l 199 1058 l 303 910 l 408 1058 l 528 1058 l 360 826 l 247 826 m 125 0 l 125 736 l 257 736 l 257 644 l 263 644 q 332 718 286 686 q 461 750 378 750 q 504 748 485 750 q 524 746 524 746 l 524 619 q 502 622 524 619 q 457 624 481 624 q 309 569 361 624 q 257 390 257 514 l 257 0 l 125 0 z "},"s":{"ha":706,"x_min":69,"x_max":636,"o":"m 367 -14 q 227 10 282 -14 q 140 69 172 33 q 93 140 108 104 q 74 199 78 175 q 69 222 69 222 l 203 222 q 208 203 203 222 q 228 160 213 185 q 278 117 244 136 q 369 99 313 99 q 471 130 435 99 q 507 207 507 161 q 478 271 507 247 q 397 307 450 294 l 297 331 q 193 368 242 344 q 115 433 144 392 q 85 535 85 474 q 156 690 85 629 q 340 750 226 750 q 467 728 417 750 q 547 675 517 707 q 591 611 576 643 q 610 558 606 579 q 614 536 614 536 l 486 536 q 482 552 486 536 q 463 588 478 568 q 419 624 449 608 q 342 640 390 640 q 244 610 275 640 q 214 543 214 579 q 242 487 214 508 q 317 454 271 465 l 418 431 q 574 358 513 408 q 636 213 636 307 q 604 99 636 151 q 513 17 572 47 q 367 -14 453 -14 z "},"ś":{"ha":721,"x_min":78,"x_max":644,"o":"m 435 847 l 322 849 l 442 1099 l 578 1099 l 435 847 m 375 -14 q 235 10 290 -14 q 149 69 181 33 q 101 140 117 104 q 82 199 86 175 q 78 222 78 222 l 211 222 q 216 203 211 222 q 237 160 221 185 q 287 117 253 136 q 378 99 321 99 q 479 130 443 99 q 515 207 515 161 q 487 271 515 247 q 406 307 458 294 l 306 331 q 201 368 250 344 q 123 433 153 392 q 93 535 93 474 q 164 690 93 629 q 349 750 235 750 q 475 728 425 750 q 555 675 525 707 q 599 611 585 643 q 618 558 614 579 q 622 536 622 536 l 494 536 q 490 552 494 536 q 472 588 486 568 q 428 624 457 608 q 350 640 399 640 q 253 610 283 640 q 222 543 222 579 q 251 487 222 508 q 325 454 279 465 l 426 431 q 583 358 521 408 q 644 213 644 307 q 613 99 644 151 q 521 17 581 47 q 375 -14 461 -14 z "},"š":{"ha":721,"x_min":78,"x_max":644,"o":"m 154 1029 l 274 1029 l 378 901 l 483 1029 l 603 1029 l 435 825 l 322 825 l 154 1029 m 375 -14 q 235 10 290 -14 q 149 69 181 33 q 101 140 117 104 q 82 199 86 175 q 78 222 78 222 l 211 222 q 216 203 211 222 q 237 160 221 185 q 287 117 253 136 q 378 99 321 99 q 479 130 443 99 q 515 207 515 161 q 487 271 515 247 q 406 307 458 294 l 306 331 q 201 368 250 344 q 123 433 153 392 q 93 535 93 474 q 164 690 93 629 q 349 750 235 750 q 475 728 425 750 q 555 675 525 707 q 599 611 585 643 q 618 558 614 579 q 622 536 622 536 l 494 536 q 490 552 494 536 q 472 588 486 568 q 428 624 457 608 q 350 640 399 640 q 253 610 283 640 q 222 543 222 579 q 251 487 222 508 q 325 454 279 465 l 426 431 q 583 358 521 408 q 644 213 644 307 q 613 99 644 151 q 521 17 581 47 q 375 -14 461 -14 z "},"ş":{"ha":721,"x_min":78,"x_max":644,"o":"m 354 -360 q 289 -356 321 -360 q 257 -351 257 -351 l 257 -271 q 289 -275 257 -271 q 349 -279 321 -279 q 430 -256 408 -279 q 451 -208 451 -232 q 433 -167 451 -185 q 378 -149 414 -149 q 322 -162 343 -149 q 300 -175 300 -175 l 249 -124 l 317 -10 q 206 25 250 -1 q 135 85 161 51 q 97 149 110 118 q 81 201 85 181 q 78 222 78 222 l 211 222 q 216 203 211 222 q 237 160 221 185 q 287 117 253 136 q 378 99 321 99 q 479 130 443 99 q 515 207 515 161 q 487 271 515 247 q 406 307 458 294 l 306 331 q 201 368 250 344 q 123 433 153 392 q 93 535 93 474 q 164 690 93 629 q 349 750 235 750 q 475 728 425 750 q 555 675 525 707 q 599 611 585 643 q 618 558 614 579 q 622 536 622 536 l 494 536 q 490 552 494 536 q 472 588 486 568 q 428 624 457 608 q 350 640 399 640 q 253 610 283 640 q 222 543 222 579 q 251 487 222 508 q 325 454 279 465 l 426 431 q 583 358 521 408 q 644 213 644 307 q 583 62 644 126 q 408 -12 521 -3 l 367 -79 q 407 -74 385 -74 q 508 -114 472 -74 q 543 -207 543 -154 q 524 -278 543 -243 q 463 -337 504 -314 q 354 -360 422 -360 z "},"ß":{"ha":939,"x_min":111,"x_max":829,"o":"m 456 1042 q 621 1008 544 1042 q 744 913 697 975 q 792 763 792 850 q 746 619 792 678 q 633 535 700 560 l 633 529 q 653 523 633 529 q 701 501 672 517 q 760 456 731 485 q 810 385 790 428 q 829 281 829 342 q 781 124 829 190 q 649 22 733 57 q 457 -14 565 -14 q 372 -9 410 -14 q 335 -4 335 -4 l 335 110 q 372 106 335 110 q 446 101 408 101 q 628 156 565 101 q 692 296 692 211 q 632 428 692 381 q 478 475 572 475 l 357 475 l 357 585 l 471 585 q 605 628 553 585 q 657 749 657 672 q 630 844 657 804 q 558 905 603 883 q 458 926 513 926 q 307 869 369 926 q 244 688 244 811 l 244 -3 l 111 -3 l 111 688 q 150 865 111 785 q 266 993 189 944 q 456 1042 343 1042 z "},"t":{"ha":594,"x_min":49,"x_max":518,"o":"m 410 -14 q 238 44 296 -14 q 181 208 181 103 l 181 628 l 49 628 l 49 736 l 181 736 l 181 921 l 313 921 l 313 736 l 492 736 l 492 628 l 313 628 l 313 208 q 343 127 313 153 q 432 101 374 101 q 490 106 463 101 q 518 110 518 110 l 518 -3 q 486 -8 518 -3 q 410 -14 454 -14 z "},"ŧ":{"ha":594,"x_min":49,"x_max":518,"o":"m 71 378 l 71 494 l 181 494 l 181 628 l 49 628 l 49 736 l 181 736 l 181 921 l 313 921 l 313 736 l 492 736 l 492 628 l 313 628 l 313 494 l 451 494 l 451 378 l 313 378 l 313 208 q 343 127 313 153 q 432 101 374 101 q 490 106 463 101 q 518 110 518 110 l 518 -3 q 486 -8 518 -3 q 410 -14 454 -14 q 238 44 296 -14 q 181 208 181 103 l 181 378 l 71 378 z "},"ť":{"ha":543,"x_min":49,"x_max":550,"o":"m 413 849 l 426 1133 l 550 1133 l 499 849 l 413 849 m 410 -14 q 238 44 296 -14 q 181 208 181 103 l 181 628 l 49 628 l 49 736 l 181 736 l 181 921 l 313 921 l 313 736 l 492 736 l 492 628 l 313 628 l 313 208 q 343 127 313 153 q 432 101 374 101 q 490 106 463 101 q 518 110 518 110 l 518 -3 q 486 -8 518 -3 q 410 -14 454 -14 z "},"ţ":{"ha":594,"x_min":49,"x_max":547,"o":"m 358 -360 q 293 -356 325 -360 q 261 -351 261 -351 l 261 -271 q 293 -275 261 -271 q 353 -279 325 -279 q 434 -256 413 -279 q 456 -208 456 -232 q 437 -167 456 -185 q 382 -149 418 -149 q 326 -162 347 -149 q 304 -175 304 -175 l 253 -124 l 325 -4 q 217 71 253 17 q 181 208 181 125 l 181 628 l 49 628 l 49 736 l 181 736 l 181 921 l 313 921 l 313 736 l 492 736 l 492 628 l 313 628 l 313 208 q 343 127 313 153 q 432 101 374 101 q 490 106 463 101 q 518 110 518 110 l 518 -3 q 486 -8 518 -3 q 411 -14 454 -14 l 371 -79 q 411 -74 389 -74 q 512 -114 476 -74 q 547 -207 547 -154 q 528 -278 547 -243 q 467 -337 508 -314 q 358 -360 426 -360 z "},"u":{"ha":786,"x_min":97,"x_max":689,"o":"m 338 -14 q 163 54 228 -14 q 97 243 97 122 l 97 736 l 229 736 l 229 250 q 269 139 229 178 q 374 100 308 100 q 481 135 440 100 q 539 224 521 169 q 557 335 557 278 l 557 736 l 689 736 l 689 0 l 557 0 l 557 106 l 549 106 q 517 60 540 89 q 450 9 493 32 q 338 -14 407 -14 z "},"ú":{"ha":821,"x_min":118,"x_max":710,"o":"m 467 847 l 354 849 l 474 1099 l 610 1099 l 467 847 m 358 -14 q 183 54 249 -14 q 118 243 118 122 l 118 736 l 250 736 l 250 250 q 290 139 250 178 q 394 100 329 100 q 501 135 461 100 q 560 224 542 169 q 578 335 578 278 l 578 736 l 710 736 l 710 0 l 578 0 l 578 106 l 569 106 q 538 60 561 89 q 471 9 514 32 q 358 -14 428 -14 z "},"û":{"ha":821,"x_min":118,"x_max":710,"o":"m 188 842 l 356 1074 l 468 1074 l 636 842 l 517 842 l 411 990 l 307 842 l 188 842 m 358 -14 q 183 54 249 -14 q 118 243 118 122 l 118 736 l 250 736 l 250 250 q 290 139 250 178 q 394 100 329 100 q 501 135 461 100 q 560 224 542 169 q 578 335 578 278 l 578 736 l 710 736 l 710 0 l 578 0 l 578 106 l 569 106 q 538 60 561 89 q 471 9 514 32 q 358 -14 428 -14 z "},"ü":{"ha":821,"x_min":118,"x_max":710,"o":"m 543 849 q 481 874 506 849 q 457 933 457 899 q 481 994 457 969 q 543 1019 506 1019 q 604 994 579 1019 q 629 933 629 969 q 604 874 629 899 q 543 849 579 849 m 279 849 q 217 874 242 849 q 193 933 193 899 q 217 994 193 969 q 279 1019 242 1019 q 340 994 315 1019 q 365 933 365 969 q 340 874 365 899 q 279 849 315 849 m 358 -14 q 183 54 249 -14 q 118 243 118 122 l 118 736 l 250 736 l 250 250 q 290 139 250 178 q 394 100 329 100 q 501 135 461 100 q 560 224 542 169 q 578 335 578 278 l 578 736 l 710 736 l 710 0 l 578 0 l 578 106 l 569 106 q 538 60 561 89 q 471 9 514 32 q 358 -14 428 -14 z "},"ụ":{"ha":821,"x_min":118,"x_max":710,"o":"m 358 -14 q 183 54 249 -14 q 118 243 118 122 l 118 736 l 250 736 l 250 250 q 290 139 250 178 q 394 100 329 100 q 501 135 461 100 q 560 224 542 169 q 578 335 578 278 l 578 736 l 710 736 l 710 0 l 578 0 l 578 106 l 569 106 q 538 60 561 89 q 471 9 514 32 q 358 -14 428 -14 m 411 -315 q 347 -288 372 -315 q 321 -225 321 -261 q 347 -161 321 -187 q 411 -135 372 -135 q 476 -161 450 -135 q 501 -225 501 -187 q 476 -289 501 -262 q 411 -315 450 -315 z "},"ù":{"ha":821,"x_min":118,"x_max":710,"o":"m 361 847 l 218 1099 l 354 1099 l 474 849 l 361 847 m 358 -14 q 183 54 249 -14 q 118 243 118 122 l 118 736 l 250 736 l 250 250 q 290 139 250 178 q 394 100 329 100 q 501 135 461 100 q 560 224 542 169 q 578 335 578 278 l 578 736 l 710 736 l 710 0 l 578 0 l 578 106 l 569 106 q 538 60 561 89 q 471 9 514 32 q 358 -14 428 -14 z "},"ủ":{"ha":821,"x_min":118,"x_max":710,"o":"m 367 838 l 367 882 q 372 910 367 896 q 394 932 378 924 l 414 942 q 478 1013 478 974 q 463 1048 478 1032 q 417 1064 449 1064 q 376 1052 389 1064 q 358 1026 363 1040 q 354 1004 354 1013 l 263 1004 q 278 1071 263 1039 q 328 1124 294 1103 q 415 1144 363 1144 q 531 1106 489 1144 q 574 1015 574 1068 q 547 942 574 976 q 463 881 521 908 l 457 878 l 457 838 l 367 838 m 358 -14 q 183 54 249 -14 q 118 243 118 122 l 118 736 l 250 736 l 250 250 q 290 139 250 178 q 394 100 329 100 q 501 135 461 100 q 560 224 542 169 q 578 335 578 278 l 578 736 l 710 736 l 710 0 l 578 0 l 578 106 l 569 106 q 538 60 561 89 q 471 9 514 32 q 358 -14 428 -14 z "},"ư":{"ha":800,"x_min":97,"x_max":840,"o":"m 338 -14 q 163 54 228 -14 q 97 243 97 122 l 97 736 l 229 736 l 229 250 q 269 139 229 178 q 374 100 308 100 q 481 135 440 100 q 539 224 521 169 q 557 335 557 278 l 557 736 l 669 736 q 724 793 724 736 l 724 876 l 840 876 l 840 793 q 807 690 840 729 q 706 651 774 651 l 689 651 l 689 0 l 557 0 l 557 106 l 549 106 q 517 60 540 89 q 450 9 493 32 q 338 -14 407 -14 z "},"ứ":{"ha":821,"x_min":118,"x_max":861,"o":"m 456 847 l 343 849 l 463 1099 l 599 1099 l 456 847 m 358 -14 q 183 54 249 -14 q 118 243 118 122 l 118 736 l 250 736 l 250 250 q 290 139 250 178 q 394 100 329 100 q 501 135 461 100 q 560 224 542 169 q 578 335 578 278 l 578 736 l 690 736 q 744 793 744 736 l 744 876 l 861 876 l 861 793 q 828 690 861 729 q 726 651 794 651 l 710 651 l 710 0 l 578 0 l 578 106 l 569 106 q 538 60 561 89 q 471 9 514 32 q 358 -14 428 -14 z "},"ự":{"ha":821,"x_min":118,"x_max":861,"o":"m 358 -14 q 183 54 249 -14 q 118 243 118 122 l 118 736 l 250 736 l 250 250 q 290 139 250 178 q 394 100 329 100 q 501 135 461 100 q 560 224 542 169 q 578 335 578 278 l 578 736 l 690 736 q 744 793 744 736 l 744 876 l 861 876 l 861 793 q 828 690 861 729 q 726 651 794 651 l 710 651 l 710 0 l 578 0 l 578 106 l 569 106 q 538 60 561 89 q 471 9 514 32 q 358 -14 428 -14 m 400 -315 q 335 -288 361 -315 q 310 -225 310 -261 q 335 -161 310 -187 q 400 -135 361 -135 q 465 -161 439 -135 q 490 -225 490 -187 q 465 -289 490 -262 q 400 -315 439 -315 z "},"ừ":{"ha":821,"x_min":118,"x_max":861,"o":"m 350 847 l 207 1099 l 343 1099 l 463 849 l 350 847 m 358 -14 q 183 54 249 -14 q 118 243 118 122 l 118 736 l 250 736 l 250 250 q 290 139 250 178 q 394 100 329 100 q 501 135 461 100 q 560 224 542 169 q 578 335 578 278 l 578 736 l 690 736 q 744 793 744 736 l 744 876 l 861 876 l 861 793 q 828 690 861 729 q 726 651 794 651 l 710 651 l 710 0 l 578 0 l 578 106 l 569 106 q 538 60 561 89 q 471 9 514 32 q 358 -14 428 -14 z "},"ử":{"ha":821,"x_min":118,"x_max":861,"o":"m 356 838 l 356 882 q 361 910 356 896 q 383 932 367 924 l 403 942 q 467 1013 467 974 q 452 1048 467 1032 q 406 1064 438 1064 q 365 1052 378 1064 q 347 1026 351 1040 q 343 1004 343 1013 l 251 1004 q 267 1071 251 1039 q 317 1124 283 1103 q 404 1144 350 1144 q 520 1106 478 1144 q 563 1015 563 1068 q 536 942 563 976 q 451 881 510 908 l 446 878 l 446 838 l 356 838 m 358 -14 q 183 54 249 -14 q 118 243 118 122 l 118 736 l 250 736 l 250 250 q 290 139 250 178 q 394 100 329 100 q 501 135 461 100 q 560 224 542 169 q 578 335 578 278 l 578 736 l 690 736 q 744 793 744 736 l 744 876 l 861 876 l 861 793 q 828 690 861 729 q 726 651 794 651 l 710 651 l 710 0 l 578 0 l 578 106 l 569 106 q 538 60 561 89 q 471 9 514 32 q 358 -14 428 -14 z "},"ữ":{"ha":821,"x_min":118,"x_max":861,"o":"m 494 857 q 431 871 457 857 q 387 903 406 885 q 351 935 368 921 q 315 949 335 949 q 281 926 292 949 q 271 865 271 903 l 182 865 q 192 949 182 908 q 231 1017 203 990 q 307 1044 258 1044 q 371 1031 344 1044 q 416 999 397 1017 q 451 968 435 982 q 486 954 468 954 q 519 976 508 954 q 529 1038 529 999 l 618 1038 q 608 953 618 994 q 570 884 597 911 q 494 857 543 857 m 358 -14 q 183 54 249 -14 q 118 243 118 122 l 118 736 l 250 736 l 250 250 q 290 139 250 178 q 394 100 329 100 q 501 135 461 100 q 560 224 542 169 q 578 335 578 278 l 578 736 l 690 736 q 744 793 744 736 l 744 876 l 861 876 l 861 793 q 828 690 861 729 q 726 651 794 651 l 710 651 l 710 0 l 578 0 l 578 106 l 569 106 q 538 60 561 89 q 471 9 514 32 q 358 -14 428 -14 z "},"ű":{"ha":821,"x_min":118,"x_max":710,"o":"m 353 847 l 240 849 l 304 1099 l 440 1099 l 353 847 m 578 847 l 465 849 l 529 1099 l 665 1099 l 578 847 m 358 -14 q 183 54 249 -14 q 118 243 118 122 l 118 736 l 250 736 l 250 250 q 290 139 250 178 q 394 100 329 100 q 501 135 461 100 q 560 224 542 169 q 578 335 578 278 l 578 736 l 710 736 l 710 0 l 578 0 l 578 106 l 569 106 q 538 60 561 89 q 471 9 514 32 q 358 -14 428 -14 z "},"ū":{"ha":821,"x_min":118,"x_max":710,"o":"m 200 869 l 200 969 l 622 969 l 622 869 l 200 869 m 358 -14 q 183 54 249 -14 q 118 243 118 122 l 118 736 l 250 736 l 250 250 q 290 139 250 178 q 394 100 329 100 q 501 135 461 100 q 560 224 542 169 q 578 335 578 278 l 578 736 l 710 736 l 710 0 l 578 0 l 578 106 l 569 106 q 538 60 561 89 q 471 9 514 32 q 358 -14 428 -14 z "},"ų":{"ha":821,"x_min":118,"x_max":765,"o":"m 358 -14 q 183 54 249 -14 q 118 243 118 122 l 118 736 l 250 736 l 250 250 q 290 139 250 178 q 394 100 329 100 q 501 135 461 100 q 560 224 542 169 q 578 335 578 278 l 578 736 l 710 736 l 710 0 q 691 -10 710 0 q 653 -39 672 -19 q 635 -87 635 -58 q 655 -130 635 -112 q 714 -147 675 -147 q 749 -144 733 -147 q 765 -140 765 -140 l 765 -228 q 744 -232 765 -228 q 692 -236 724 -236 q 568 -199 610 -236 q 526 -111 526 -162 q 547 -44 526 -71 q 592 0 568 -17 l 578 0 l 578 106 l 569 106 q 538 60 561 89 q 471 9 514 32 q 358 -14 428 -14 z "},"ů":{"ha":821,"x_min":118,"x_max":710,"o":"m 411 836 q 322 860 363 836 q 256 924 281 883 q 232 1014 232 965 q 256 1104 232 1064 q 322 1168 281 1144 q 411 1192 363 1192 q 500 1168 460 1192 q 565 1104 540 1144 q 589 1014 589 1064 q 565 924 589 965 q 500 860 540 883 q 411 836 460 836 m 411 931 q 470 955 446 931 q 494 1014 494 979 q 470 1073 494 1049 q 411 1097 446 1097 q 351 1073 376 1097 q 326 1014 326 1049 q 351 955 326 979 q 411 931 376 931 m 358 -14 q 183 54 249 -14 q 118 243 118 122 l 118 736 l 250 736 l 250 250 q 290 139 250 178 q 394 100 329 100 q 501 135 461 100 q 560 224 542 169 q 578 335 578 278 l 578 736 l 710 736 l 710 0 l 578 0 l 578 106 l 569 106 q 538 60 561 89 q 471 9 514 32 q 358 -14 428 -14 z "},"ũ":{"ha":821,"x_min":118,"x_max":710,"o":"m 506 857 q 442 871 468 857 q 398 903 417 885 q 363 935 379 921 q 326 949 346 949 q 292 926 303 949 q 282 865 282 903 l 193 865 q 203 949 193 908 q 242 1017 214 990 q 318 1044 269 1044 q 382 1031 356 1044 q 427 999 408 1017 q 463 968 446 982 q 497 954 479 954 q 530 976 519 954 q 540 1038 540 999 l 629 1038 q 619 953 629 994 q 581 884 608 911 q 506 857 554 857 m 358 -14 q 183 54 249 -14 q 118 243 118 122 l 118 736 l 250 736 l 250 250 q 290 139 250 178 q 394 100 329 100 q 501 135 461 100 q 560 224 542 169 q 578 335 578 278 l 578 736 l 710 736 l 710 0 l 578 0 l 578 106 l 569 106 q 538 60 561 89 q 471 9 514 32 q 358 -14 428 -14 z "},"v":{"ha":800,"x_min":49,"x_max":751,"o":"m 329 0 l 49 736 l 186 736 l 401 161 l 613 736 l 751 736 l 469 0 l 329 0 z "},"w":{"ha":1208,"x_min":49,"x_max":1160,"o":"m 286 0 l 49 736 l 183 736 l 358 178 l 542 736 l 667 736 l 849 178 l 1025 736 l 1160 736 l 921 0 l 779 0 l 604 543 l 429 0 l 286 0 z "},"ẃ":{"ha":1208,"x_min":49,"x_max":1160,"o":"m 660 847 l 547 849 l 667 1099 l 803 1099 l 660 847 m 286 0 l 49 736 l 183 736 l 358 178 l 542 736 l 667 736 l 849 178 l 1025 736 l 1160 736 l 921 0 l 779 0 l 604 543 l 429 0 l 286 0 z "},"ŵ":{"ha":1208,"x_min":49,"x_max":1160,"o":"m 381 842 l 549 1074 l 661 1074 l 829 842 l 710 842 l 604 990 l 500 842 l 381 842 m 286 0 l 49 736 l 183 736 l 358 178 l 542 736 l 667 736 l 849 178 l 1025 736 l 1160 736 l 921 0 l 779 0 l 604 543 l 429 0 l 286 0 z "},"ẅ":{"ha":1208,"x_min":49,"x_max":1160,"o":"m 736 849 q 674 874 699 849 q 650 933 650 899 q 674 994 650 969 q 736 1019 699 1019 q 797 994 772 1019 q 822 933 822 969 q 797 874 822 899 q 736 849 772 849 m 472 849 q 410 874 435 849 q 386 933 386 899 q 410 994 386 969 q 472 1019 435 1019 q 533 994 508 1019 q 558 933 558 969 q 533 874 558 899 q 472 849 508 849 m 286 0 l 49 736 l 183 736 l 358 178 l 542 736 l 667 736 l 849 178 l 1025 736 l 1160 736 l 921 0 l 779 0 l 604 543 l 429 0 l 286 0 z "},"ẁ":{"ha":1208,"x_min":49,"x_max":1160,"o":"m 554 847 l 411 1099 l 547 1099 l 667 849 l 554 847 m 286 0 l 49 736 l 183 736 l 358 178 l 542 736 l 667 736 l 849 178 l 1025 736 l 1160 736 l 921 0 l 779 0 l 604 543 l 429 0 l 286 0 z "},"x":{"ha":776,"x_min":56,"x_max":721,"o":"m 57 0 l 297 367 l 56 736 l 199 736 l 388 444 l 578 736 l 721 736 l 475 367 l 719 0 l 576 0 l 388 290 l 200 0 l 57 0 z "},"y":{"ha":810,"x_min":49,"x_max":761,"o":"m 125 -271 q 71 -268 93 -271 q 49 -265 49 -265 l 49 -153 q 72 -155 49 -153 q 121 -157 94 -157 q 255 -123 203 -157 q 343 -11 307 -89 l 58 736 l 196 736 l 408 161 l 622 736 l 761 736 l 476 -1 q 337 -206 422 -140 q 125 -271 251 -271 z "},"ý":{"ha":810,"x_min":49,"x_max":761,"o":"m 451 847 l 339 849 l 458 1099 l 594 1099 l 451 847 m 125 -271 q 71 -268 93 -271 q 49 -265 49 -265 l 49 -153 q 72 -155 49 -153 q 121 -157 94 -157 q 255 -123 203 -157 q 343 -11 307 -89 l 58 736 l 196 736 l 408 161 l 622 736 l 761 736 l 476 -1 q 337 -206 422 -140 q 125 -271 251 -271 z "},"ŷ":{"ha":810,"x_min":49,"x_max":761,"o":"m 172 842 l 340 1074 l 453 1074 l 621 842 l 501 842 l 396 990 l 292 842 l 172 842 m 125 -271 q 71 -268 93 -271 q 49 -265 49 -265 l 49 -153 q 72 -155 49 -153 q 121 -157 94 -157 q 255 -123 203 -157 q 343 -11 307 -89 l 58 736 l 196 736 l 408 161 l 622 736 l 761 736 l 476 -1 q 337 -206 422 -140 q 125 -271 251 -271 z "},"ÿ":{"ha":810,"x_min":49,"x_max":761,"o":"m 528 849 q 466 874 490 849 q 442 933 442 899 q 466 994 442 969 q 528 1019 490 1019 q 589 994 564 1019 q 614 933 614 969 q 589 874 614 899 q 528 849 564 849 m 264 849 q 202 874 226 849 q 178 933 178 899 q 202 994 178 969 q 264 1019 226 1019 q 325 994 300 1019 q 350 933 350 969 q 325 874 350 899 q 264 849 300 849 m 125 -271 q 71 -268 93 -271 q 49 -265 49 -265 l 49 -153 q 72 -155 49 -153 q 121 -157 94 -157 q 255 -123 203 -157 q 343 -11 307 -89 l 58 736 l 196 736 l 408 161 l 622 736 l 761 736 l 476 -1 q 337 -206 422 -140 q 125 -271 251 -271 z "},"ỵ":{"ha":810,"x_min":49,"x_max":761,"o":"m 125 -271 q 71 -268 93 -271 q 49 -265 49 -265 l 49 -153 q 72 -155 49 -153 q 121 -157 94 -157 q 255 -123 203 -157 q 343 -11 307 -89 l 58 736 l 196 736 l 408 161 l 622 736 l 761 736 l 476 -1 q 337 -206 422 -140 q 125 -271 251 -271 m 594 -315 q 530 -288 556 -315 q 504 -225 504 -261 q 530 -161 504 -187 q 594 -135 556 -135 q 659 -161 633 -135 q 685 -225 685 -187 q 659 -289 685 -262 q 594 -315 633 -315 z "},"ỳ":{"ha":810,"x_min":49,"x_max":761,"o":"m 346 847 l 203 1099 l 339 1099 l 458 849 l 346 847 m 125 -271 q 71 -268 93 -271 q 49 -265 49 -265 l 49 -153 q 72 -155 49 -153 q 121 -157 94 -157 q 255 -123 203 -157 q 343 -11 307 -89 l 58 736 l 196 736 l 408 161 l 622 736 l 761 736 l 476 -1 q 337 -206 422 -140 q 125 -271 251 -271 z "},"ỷ":{"ha":810,"x_min":49,"x_max":761,"o":"m 351 838 l 351 882 q 357 910 351 896 q 379 932 363 924 l 399 942 q 463 1013 463 974 q 448 1048 463 1032 q 401 1064 433 1064 q 360 1052 374 1064 q 343 1026 347 1040 q 339 1004 339 1013 l 247 1004 q 263 1071 247 1039 q 313 1124 279 1103 q 400 1144 346 1144 q 516 1106 474 1144 q 558 1015 558 1068 q 532 942 558 976 q 447 881 506 908 l 442 878 l 442 838 l 351 838 m 125 -271 q 71 -268 93 -271 q 49 -265 49 -265 l 49 -153 q 72 -155 49 -153 q 121 -157 94 -157 q 255 -123 203 -157 q 343 -11 307 -89 l 58 736 l 196 736 l 408 161 l 622 736 l 761 736 l 476 -1 q 337 -206 422 -140 q 125 -271 251 -271 z "},"ỹ":{"ha":810,"x_min":49,"x_max":761,"o":"m 490 857 q 427 871 453 857 q 383 903 401 885 q 347 935 364 921 q 311 949 331 949 q 277 926 288 949 q 267 865 267 903 l 178 865 q 188 949 178 908 q 226 1017 199 990 q 303 1044 254 1044 q 367 1031 340 1044 q 412 999 393 1017 q 447 968 431 982 q 482 954 464 954 q 515 976 504 954 q 525 1038 525 999 l 614 1038 q 603 953 614 994 q 566 884 593 911 q 490 857 539 857 m 125 -271 q 71 -268 93 -271 q 49 -265 49 -265 l 49 -153 q 72 -155 49 -153 q 121 -157 94 -157 q 255 -123 203 -157 q 343 -11 307 -89 l 58 736 l 196 736 l 408 161 l 622 736 l 761 736 l 476 -1 q 337 -206 422 -140 q 125 -271 251 -271 z "},"z":{"ha":697,"x_min":60,"x_max":653,"o":"m 60 0 l 60 93 l 490 628 l 82 628 l 82 736 l 653 736 l 653 643 l 221 108 l 653 108 l 653 0 l 60 0 z "},"ź":{"ha":697,"x_min":60,"x_max":653,"o":"m 399 843 l 286 844 l 406 1094 l 542 1094 l 399 843 m 60 0 l 60 93 l 490 628 l 82 628 l 82 736 l 653 736 l 653 643 l 221 108 l 653 108 l 653 0 l 60 0 z "},"ž":{"ha":697,"x_min":60,"x_max":653,"o":"m 288 822 l 119 1054 l 239 1054 l 343 906 l 449 1054 l 568 1054 l 400 822 l 288 822 m 60 0 l 60 93 l 490 628 l 82 628 l 82 736 l 653 736 l 653 643 l 221 108 l 653 108 l 653 0 l 60 0 z "},"ż":{"ha":697,"x_min":60,"x_max":653,"o":"m 343 872 q 281 897 306 872 q 257 957 257 922 q 281 1018 257 993 q 343 1043 306 1043 q 404 1018 379 1043 q 429 957 429 993 q 404 897 429 922 q 343 872 379 872 m 60 0 l 60 93 l 490 628 l 82 628 l 82 736 l 653 736 l 653 643 l 221 108 l 653 108 l 653 0 l 60 0 z "},"ª":{"ha":586,"x_min":83,"x_max":489,"o":"m 368 633 q 351 612 365 628 q 308 582 336 596 q 235 568 281 568 q 125 603 167 568 q 83 699 83 639 q 128 795 83 760 q 257 842 174 831 l 375 858 l 375 869 q 357 926 375 900 q 292 953 339 953 q 234 937 253 953 q 210 904 215 921 q 204 888 204 888 l 97 888 q 102 911 97 888 q 126 965 107 935 q 184 1018 144 994 q 293 1042 224 1042 q 404 1017 361 1042 q 468 955 447 993 q 489 874 489 917 l 489 576 l 375 576 l 375 633 l 368 633 m 194 707 q 217 663 194 678 q 268 649 239 649 q 344 681 314 649 q 375 768 375 714 l 375 783 l 272 768 q 215 749 236 763 q 194 707 194 735 z "},"º":{"ha":633,"x_min":83,"x_max":550,"o":"m 317 567 q 190 600 243 567 q 110 688 138 633 q 83 804 83 743 q 110 921 83 867 q 190 1008 138 975 q 317 1042 242 1042 q 444 1008 392 1042 q 523 921 496 975 q 550 804 550 867 q 523 688 550 743 q 444 600 496 633 q 317 567 392 567 m 317 663 q 406 706 375 663 q 436 804 436 749 q 406 903 436 860 q 317 946 375 946 q 228 903 260 946 q 197 804 197 860 q 228 706 197 749 q 317 663 260 663 z "},"₀":{"ha":611,"x_min":76,"x_max":535,"o":"m 306 -292 q 182 -254 233 -292 q 103 -153 131 -217 q 76 -15 76 -90 q 103 124 76 61 q 182 225 131 188 q 306 263 233 263 q 429 224 378 263 q 508 123 481 186 q 535 -15 535 60 q 508 -153 535 -90 q 429 -253 481 -215 q 306 -292 378 -292 m 306 -186 q 385 -141 354 -186 q 415 -15 415 -96 q 385 113 415 68 q 306 158 354 158 q 227 114 258 158 q 196 -15 196 69 q 227 -142 196 -97 q 306 -186 258 -186 z "},"₁":{"ha":436,"x_min":56,"x_max":283,"o":"m 283 256 l 283 -282 l 168 -282 l 168 93 l 56 93 l 56 163 l 74 168 q 154 200 124 183 q 210 247 185 217 l 217 256 l 283 256 z "},"₂":{"ha":604,"x_min":107,"x_max":514,"o":"m 110 -282 l 110 -201 l 200 -126 q 301 -44 260 -78 q 365 19 343 -10 q 388 82 388 49 q 363 139 388 119 q 306 158 338 158 q 248 136 275 158 q 221 69 221 114 l 107 69 q 136 177 107 135 q 212 240 165 219 q 310 261 258 261 q 409 240 364 261 q 481 181 454 219 q 508 90 508 143 q 455 -38 508 17 q 311 -161 401 -93 l 288 -179 l 514 -179 l 514 -282 l 110 -282 z "},"₃":{"ha":617,"x_min":97,"x_max":507,"o":"m 301 -292 q 157 -246 217 -292 q 97 -117 97 -200 l 210 -117 q 238 -174 210 -154 q 301 -194 265 -194 q 364 -173 342 -194 q 386 -124 386 -151 q 366 -76 386 -96 q 307 -57 346 -57 l 236 -57 l 236 35 l 307 35 q 360 53 340 35 q 381 99 381 72 q 359 145 381 126 q 301 164 338 164 q 244 145 269 164 q 218 86 218 126 l 108 86 q 135 181 108 142 q 207 240 163 219 q 303 261 251 261 q 399 243 354 261 q 471 192 443 225 q 499 110 499 158 q 472 33 499 63 q 413 -7 446 4 l 413 -11 q 481 -55 456 -24 q 507 -131 507 -86 q 478 -217 507 -181 q 403 -272 450 -253 q 301 -292 357 -292 z "},"₄":{"ha":629,"x_min":76,"x_max":538,"o":"m 342 -282 l 342 -169 l 76 -168 l 76 -79 l 303 256 l 457 256 l 457 -69 l 538 -69 l 538 -169 l 457 -169 l 457 -282 l 342 -282 m 200 -69 l 342 -69 l 342 138 l 200 -69 z "},"₅":{"ha":593,"x_min":89,"x_max":499,"o":"m 292 -292 q 176 -265 221 -292 q 111 -197 132 -237 q 89 -117 90 -156 l 199 -117 q 203 -136 199 -117 q 228 -176 208 -156 q 292 -196 249 -196 q 358 -167 336 -196 q 379 -103 379 -137 q 358 -40 379 -68 q 293 -12 336 -12 q 244 -24 261 -12 q 220 -47 226 -35 q 214 -58 214 -58 l 96 -58 l 129 251 l 463 251 l 463 153 l 217 153 l 204 29 l 208 29 q 246 59 219 42 q 322 76 272 76 q 420 51 381 76 q 479 -13 460 26 q 499 -97 499 -53 q 476 -190 499 -144 q 407 -263 453 -235 q 292 -292 361 -292 z "},"₆":{"ha":653,"x_min":104,"x_max":549,"o":"m 336 -296 q 206 -260 258 -296 q 129 -166 154 -224 q 104 -44 104 -108 q 122 60 104 7 q 178 158 140 113 q 273 231 215 203 q 410 258 331 258 q 469 254 444 258 q 494 250 494 250 l 494 144 q 467 148 494 144 q 413 151 439 151 q 283 106 329 151 q 229 6 236 60 q 273 50 242 25 q 365 75 304 75 q 467 50 426 75 q 528 -15 508 25 q 549 -101 549 -56 q 525 -194 549 -149 q 454 -267 501 -239 q 336 -296 407 -296 m 335 -196 q 408 -168 383 -196 q 432 -106 432 -140 q 408 -42 432 -71 q 335 -14 383 -14 q 263 -42 288 -14 q 239 -106 239 -71 q 263 -168 239 -140 q 335 -196 288 -196 z "},"₇":{"ha":538,"x_min":76,"x_max":496,"o":"m 171 -282 q 198 -137 175 -206 q 253 -12 221 -69 q 316 86 285 44 q 368 151 347 128 l 76 151 l 76 251 l 496 251 l 496 169 q 476 147 496 169 q 425 84 456 125 q 364 -13 394 43 q 311 -137 333 -69 q 286 -282 289 -206 l 171 -282 z "},"₈":{"ha":576,"x_min":83,"x_max":493,"o":"m 288 -293 q 187 -275 233 -293 q 112 -223 140 -257 q 83 -139 83 -189 q 98 -76 83 -101 q 131 -37 113 -51 q 165 -16 150 -22 q 179 -10 179 -10 l 179 -4 q 158 7 179 -4 q 117 43 138 18 q 96 110 96 68 q 152 218 96 178 q 288 258 208 258 q 424 218 368 258 q 481 110 481 178 q 460 43 481 68 q 418 7 439 18 q 397 -4 397 -4 l 397 -10 q 412 -16 397 -10 q 445 -37 426 -22 q 478 -76 464 -51 q 493 -139 493 -101 q 465 -223 493 -189 q 390 -275 436 -257 q 288 -293 343 -293 m 288 32 q 348 54 328 32 q 368 103 368 76 q 348 148 368 126 q 288 169 328 169 q 228 148 249 169 q 208 101 208 126 q 228 54 208 76 q 288 32 249 32 m 288 -203 q 355 -178 332 -203 q 378 -125 378 -154 q 356 -73 378 -97 q 288 -49 333 -49 q 220 -73 243 -49 q 197 -125 197 -97 q 220 -178 197 -153 q 288 -203 243 -203 z "},"₉":{"ha":653,"x_min":104,"x_max":549,"o":"m 317 263 q 447 226 396 263 q 524 133 499 190 q 549 11 549 75 q 531 -93 549 -40 q 475 -191 513 -146 q 380 -264 438 -236 q 243 -292 322 -292 q 183 -287 208 -292 q 158 -283 158 -283 l 158 -178 q 186 -181 158 -178 q 240 -185 214 -185 q 370 -139 324 -185 q 424 -39 417 -93 q 380 -83 411 -58 q 288 -108 349 -108 q 185 -83 226 -108 q 124 -17 144 -58 q 104 68 104 24 q 128 161 104 117 q 199 234 151 206 q 317 263 246 263 m 318 163 q 245 135 269 163 q 221 72 221 107 q 246 9 221 38 q 318 -19 271 -19 q 390 9 365 -19 q 414 72 414 38 q 390 135 414 107 q 318 163 367 163 z "},"⁰":{"ha":611,"x_min":76,"x_max":535,"o":"m 306 563 q 182 600 233 563 q 103 701 131 638 q 76 839 76 764 q 103 978 76 915 q 182 1079 131 1042 q 306 1117 233 1117 q 429 1078 378 1117 q 508 978 481 1040 q 535 839 535 915 q 508 701 535 764 q 429 601 481 639 q 306 563 378 563 m 306 668 q 385 713 354 668 q 415 839 415 758 q 385 967 415 922 q 306 1013 354 1013 q 227 968 258 1013 q 196 839 196 924 q 227 713 196 757 q 306 668 258 668 z "},"¹":{"ha":436,"x_min":56,"x_max":283,"o":"m 283 1110 l 283 572 l 168 572 l 168 947 l 56 947 l 56 1017 l 74 1022 q 154 1054 124 1038 q 210 1101 185 1071 l 217 1110 l 283 1110 z "},"²":{"ha":604,"x_min":107,"x_max":514,"o":"m 110 572 l 110 653 l 200 728 q 301 810 260 776 q 365 874 343 844 q 388 936 388 903 q 363 993 388 974 q 306 1013 338 1013 q 248 990 275 1013 q 221 924 221 968 l 107 924 q 136 1031 107 989 q 212 1094 165 1074 q 310 1115 258 1115 q 409 1094 364 1115 q 481 1035 454 1074 q 508 944 508 997 q 455 816 508 871 q 311 693 401 761 l 288 675 l 514 675 l 514 572 l 110 572 z "},"³":{"ha":617,"x_min":97,"x_max":507,"o":"m 301 563 q 157 608 217 563 q 97 738 97 654 l 210 738 q 238 680 210 700 q 301 660 265 660 q 364 681 342 660 q 386 731 386 703 q 366 778 386 758 q 307 797 346 797 l 236 797 l 236 889 l 307 889 q 360 908 340 889 q 381 953 381 926 q 359 999 381 981 q 301 1018 338 1018 q 244 999 269 1018 q 218 940 218 981 l 108 940 q 135 1035 108 996 q 207 1094 163 1074 q 303 1115 251 1115 q 399 1097 354 1115 q 471 1046 443 1079 q 499 964 499 1013 q 472 888 499 917 q 413 847 446 858 l 413 843 q 481 799 456 831 q 507 724 507 768 q 478 638 507 674 q 403 582 450 601 q 301 563 357 563 z "},"⁴":{"ha":643,"x_min":90,"x_max":551,"o":"m 356 572 l 356 685 l 90 686 l 90 775 l 317 1110 l 471 1110 l 471 785 l 551 785 l 551 685 l 471 685 l 471 572 l 356 572 m 214 785 l 356 785 l 356 992 l 214 785 z "},"⁵":{"ha":579,"x_min":75,"x_max":485,"o":"m 278 563 q 163 590 207 563 q 97 658 118 617 q 75 738 76 699 l 185 738 q 190 718 185 738 q 215 678 194 699 q 278 658 235 658 q 344 688 322 658 q 365 751 365 717 q 344 814 365 786 q 279 842 322 842 q 230 831 247 842 q 206 808 213 819 q 200 796 200 796 l 82 796 l 115 1106 l 449 1106 l 449 1007 l 203 1007 l 190 883 l 194 883 q 232 913 206 896 q 308 931 258 931 q 406 906 367 931 q 465 841 446 881 q 485 757 485 801 q 462 665 485 710 q 393 591 439 619 q 278 563 347 563 z "},"⁶":{"ha":653,"x_min":104,"x_max":549,"o":"m 336 558 q 206 594 258 558 q 129 688 154 631 q 104 810 104 746 q 122 914 104 861 q 178 1012 140 967 q 273 1085 215 1057 q 410 1113 331 1113 q 469 1108 444 1113 q 494 1104 494 1104 l 494 999 q 467 1002 494 999 q 413 1006 439 1006 q 283 960 329 1006 q 229 860 236 914 q 273 904 242 879 q 365 929 304 929 q 467 904 426 929 q 528 839 508 879 q 549 753 549 799 q 525 660 549 706 q 454 587 501 615 q 336 558 407 558 m 335 658 q 408 686 383 658 q 432 749 432 714 q 408 812 432 783 q 335 840 383 840 q 263 812 288 840 q 239 749 239 783 q 263 686 239 714 q 335 658 288 658 z "},"⁷":{"ha":565,"x_min":76,"x_max":496,"o":"m 171 576 q 198 721 175 653 q 253 846 221 789 q 316 944 285 903 q 368 1010 347 986 l 76 1010 l 76 1110 l 496 1110 l 496 1028 q 476 1006 496 1028 q 425 942 456 983 q 364 845 394 901 q 311 721 333 789 q 286 576 289 653 l 171 576 z "},"⁸":{"ha":576,"x_min":83,"x_max":493,"o":"m 288 561 q 187 579 233 561 q 112 631 140 597 q 83 715 83 665 q 98 778 83 753 q 131 817 113 803 q 165 838 150 832 q 179 844 179 844 l 179 850 q 158 861 179 850 q 117 897 138 872 q 96 964 96 922 q 152 1072 96 1032 q 288 1113 208 1113 q 424 1072 368 1113 q 481 964 481 1032 q 460 897 481 922 q 418 861 439 872 q 397 850 397 850 l 397 844 q 412 838 397 844 q 445 817 426 832 q 478 778 464 803 q 493 715 493 753 q 465 631 493 665 q 390 579 436 597 q 288 561 343 561 m 288 886 q 348 908 328 886 q 368 957 368 931 q 348 1002 368 981 q 288 1024 328 1024 q 228 1002 249 1024 q 208 956 208 981 q 228 908 208 931 q 288 886 249 886 m 288 651 q 355 676 332 651 q 378 729 378 700 q 356 781 378 757 q 288 806 333 806 q 220 781 243 806 q 197 729 197 757 q 220 676 197 701 q 288 651 243 651 z "},"⁹":{"ha":653,"x_min":104,"x_max":549,"o":"m 317 1126 q 447 1090 396 1126 q 524 997 499 1054 q 549 875 549 939 q 531 771 549 824 q 475 673 513 718 q 380 600 438 628 q 243 572 322 572 q 183 576 208 572 q 158 581 158 581 l 158 686 q 186 683 158 686 q 240 679 214 679 q 370 725 324 679 q 424 825 417 771 q 380 781 411 806 q 288 756 349 756 q 185 781 226 756 q 124 847 144 806 q 104 932 104 888 q 128 1025 104 981 q 199 1098 151 1069 q 317 1126 246 1126 m 318 1026 q 245 999 269 1026 q 221 936 221 971 q 246 873 221 901 q 318 844 271 844 q 390 873 365 844 q 414 936 414 901 q 390 999 414 971 q 318 1026 367 1026 z "},"⁄":{"ha":776,"x_min":42,"x_max":756,"o":"m 42 0 l 628 972 l 756 972 l 168 0 l 42 0 z "},"½":{"ha":1111,"x_min":14,"x_max":1183,"o":"m 218 989 l 218 500 l 108 500 l 108 844 l 14 844 l 14 911 l 29 915 q 99 942 72 926 q 149 983 125 958 l 154 989 l 218 989 m 188 0 l 774 972 l 901 972 l 314 0 l 188 0 m 814 -3 l 814 75 l 892 139 q 985 215 947 185 q 1044 272 1024 246 q 1065 328 1065 297 q 1043 376 1065 360 q 993 393 1021 393 q 942 374 965 393 q 919 315 919 356 l 811 315 q 838 414 811 375 q 907 472 864 453 q 997 490 950 490 q 1125 449 1071 490 q 1179 335 1179 407 q 1130 219 1179 269 q 999 107 1081 168 l 982 94 l 1183 94 l 1183 -3 l 814 -3 z "},"¼":{"ha":1085,"x_min":14,"x_max":1157,"o":"m 218 989 l 218 500 l 108 500 l 108 844 l 14 844 l 14 911 l 29 915 q 99 942 72 926 q 149 983 125 958 l 154 989 l 218 989 m 188 0 l 774 972 l 901 972 l 314 0 l 188 0 m 972 -3 l 972 100 l 742 100 l 742 182 l 946 483 l 1085 483 l 1085 192 l 1157 192 l 1157 100 l 1085 100 l 1085 -3 l 972 -3 m 856 192 l 972 192 l 972 367 l 856 192 z "},"¾":{"ha":1107,"x_min":56,"x_max":1274,"o":"m 242 490 q 106 535 157 490 q 56 650 56 579 l 161 650 q 184 601 161 619 q 240 582 207 582 q 297 599 276 582 q 317 643 317 617 q 299 685 317 668 q 244 703 281 703 l 182 703 l 182 788 l 246 788 q 294 804 276 788 q 313 843 313 821 q 293 884 313 867 q 242 901 274 901 q 190 883 211 901 q 168 832 168 864 l 65 832 q 116 947 65 903 q 243 990 167 990 q 329 974 289 990 q 394 928 369 958 q 419 854 419 897 q 394 783 419 810 q 343 749 369 756 l 343 743 q 406 703 382 729 q 429 635 429 676 q 403 558 429 590 q 335 508 378 525 q 242 490 292 490 m 304 0 l 890 972 l 1018 972 l 431 0 l 304 0 m 1089 -3 l 1089 100 l 858 100 l 858 182 l 1063 483 l 1201 483 l 1201 192 l 1274 192 l 1274 100 l 1201 100 l 1201 -3 l 1089 -3 m 972 192 l 1089 192 l 1089 367 l 972 192 z "},"⅛":{"ha":1100,"x_min":14,"x_max":1172,"o":"m 218 989 l 218 500 l 108 500 l 108 844 l 14 844 l 14 911 l 29 915 q 99 942 72 926 q 149 983 125 958 l 154 989 l 218 989 m 188 0 l 774 972 l 901 972 l 314 0 l 188 0 m 985 -10 q 893 6 936 -10 q 824 53 850 22 q 797 131 797 85 q 810 188 797 165 q 841 224 824 211 q 872 243 858 238 q 885 249 885 249 l 885 253 q 866 263 885 253 q 828 295 847 272 q 810 357 810 318 q 861 454 810 418 q 985 490 913 490 q 1110 454 1058 490 q 1161 357 1161 418 q 1142 295 1161 318 q 1104 263 1124 272 q 1085 253 1085 253 l 1085 249 q 1098 243 1085 249 q 1128 224 1111 238 q 1159 188 1146 211 q 1172 131 1172 165 q 1146 53 1172 85 q 1077 6 1119 22 q 985 -10 1035 -10 m 985 288 q 1039 307 1021 288 q 1057 349 1057 326 q 1039 390 1057 371 q 985 410 1021 410 q 932 391 950 410 q 914 349 914 372 q 932 307 914 326 q 985 288 950 288 m 985 74 q 1044 96 1025 74 q 1064 144 1064 118 q 1044 190 1064 169 q 985 211 1025 211 q 926 190 946 211 q 906 144 906 169 q 926 96 906 118 q 985 74 946 74 z "},"⅜":{"ha":1122,"x_min":56,"x_max":1289,"o":"m 242 490 q 106 535 157 490 q 56 650 56 579 l 161 650 q 184 601 161 619 q 240 582 207 582 q 297 599 276 582 q 317 643 317 617 q 299 685 317 668 q 244 703 281 703 l 182 703 l 182 788 l 246 788 q 294 804 276 788 q 313 843 313 821 q 293 884 313 867 q 242 901 274 901 q 190 883 211 901 q 168 832 168 864 l 65 832 q 116 947 65 903 q 243 990 167 990 q 329 974 289 990 q 394 928 369 958 q 419 854 419 897 q 394 783 419 810 q 343 749 369 756 l 343 743 q 406 703 382 729 q 429 635 429 676 q 403 558 429 590 q 335 508 378 525 q 242 490 292 490 m 304 0 l 890 972 l 1018 972 l 431 0 l 304 0 m 1101 -10 q 1010 6 1053 -10 q 940 53 967 22 q 914 131 914 85 q 927 188 914 165 q 958 224 940 211 q 988 243 975 238 q 1001 249 1001 249 l 1001 253 q 983 263 1001 253 q 945 295 964 272 q 926 357 926 318 q 978 454 926 418 q 1101 490 1029 490 q 1226 454 1175 490 q 1278 357 1278 418 q 1259 295 1278 318 q 1221 263 1240 272 q 1201 253 1201 253 l 1201 249 q 1215 243 1201 249 q 1245 224 1228 238 q 1276 188 1263 211 q 1289 131 1289 165 q 1263 53 1289 85 q 1194 6 1236 22 q 1101 -10 1151 -10 m 1101 288 q 1156 307 1138 288 q 1174 349 1174 326 q 1156 390 1174 371 q 1101 410 1138 410 q 1049 391 1067 410 q 1031 349 1031 372 q 1049 307 1031 326 q 1101 288 1067 288 m 1101 74 q 1161 96 1142 74 q 1181 144 1181 118 q 1161 190 1181 169 q 1101 211 1142 211 q 1042 190 1063 211 q 1022 144 1022 169 q 1042 96 1022 118 q 1101 74 1063 74 z "},"⅝":{"ha":1065,"x_min":56,"x_max":1260,"o":"m 240 489 q 132 517 172 489 q 74 583 92 544 q 56 650 57 621 l 158 650 q 163 633 158 650 q 185 598 168 615 q 239 581 203 581 q 299 606 279 581 q 318 661 318 632 q 299 716 318 690 q 240 742 279 742 q 198 731 214 742 q 176 710 182 721 q 169 700 169 700 l 61 700 l 90 983 l 396 983 l 396 889 l 171 889 l 160 781 l 163 781 q 192 806 167 788 q 263 825 217 825 q 353 801 317 825 q 409 741 390 778 q 428 664 428 704 q 407 581 428 621 q 345 515 386 540 q 240 489 304 489 m 275 0 l 861 972 l 989 972 l 401 0 l 275 0 m 1072 -10 q 981 6 1024 -10 q 911 53 938 22 q 885 131 885 85 q 898 188 885 165 q 928 224 911 211 q 959 243 946 238 q 972 249 972 249 l 972 253 q 953 263 972 253 q 916 295 935 272 q 897 357 897 318 q 949 454 897 418 q 1072 490 1000 490 q 1197 454 1146 490 q 1249 357 1249 418 q 1230 295 1249 318 q 1192 263 1211 272 q 1172 253 1172 253 l 1172 249 q 1185 243 1172 249 q 1216 224 1199 238 q 1247 188 1233 211 q 1260 131 1260 165 q 1233 53 1260 85 q 1165 6 1207 22 q 1072 -10 1122 -10 m 1072 288 q 1126 307 1108 288 q 1144 349 1144 326 q 1126 390 1144 371 q 1072 410 1108 410 q 1019 391 1038 410 q 1001 349 1001 372 q 1019 307 1001 326 q 1072 288 1038 288 m 1072 74 q 1132 96 1113 74 q 1151 144 1151 118 q 1132 190 1151 169 q 1072 211 1113 211 q 1013 190 1033 211 q 993 144 993 169 q 1013 96 993 118 q 1072 74 1033 74 z "},"⅞":{"ha":1083,"x_min":10,"x_max":1238,"o":"m 94 500 q 127 677 99 599 q 190 810 156 756 q 246 892 225 865 l 10 892 l 10 986 l 365 986 l 365 910 q 342 881 365 910 q 288 799 319 853 q 232 670 257 746 q 203 500 207 594 l 94 500 m 253 0 l 839 972 l 967 972 l 379 0 l 253 0 m 1050 -10 q 958 6 1001 -10 q 889 53 915 22 q 863 131 863 85 q 876 188 863 165 q 906 224 889 211 q 937 243 924 238 q 950 249 950 249 l 950 253 q 931 263 950 253 q 894 295 913 272 q 875 357 875 318 q 926 454 875 418 q 1050 490 978 490 q 1175 454 1124 490 q 1226 357 1226 418 q 1208 295 1226 318 q 1169 263 1189 272 q 1150 253 1150 253 l 1150 249 q 1163 243 1150 249 q 1194 224 1176 238 q 1224 188 1211 211 q 1238 131 1238 165 q 1211 53 1238 85 q 1142 6 1185 22 q 1050 -10 1100 -10 m 1050 288 q 1104 307 1086 288 q 1122 349 1122 326 q 1104 390 1122 371 q 1050 410 1086 410 q 997 391 1015 410 q 979 349 979 372 q 997 307 979 326 q 1050 288 1015 288 m 1050 74 q 1110 96 1090 74 q 1129 144 1129 118 q 1110 190 1129 169 q 1050 211 1090 211 q 991 190 1011 211 q 971 144 971 169 q 991 96 971 118 q 1050 74 1011 74 z "},"\r":{"ha":833,"x_min":0,"x_max":0,"o":""}," ":{"ha":319,"x_min":0,"x_max":0,"o":""}," ":{"ha":319,"x_min":0,"x_max":0,"o":""},".":{"ha":397,"x_min":108,"x_max":289,"o":"m 199 -14 q 134 13 160 -14 q 108 76 108 40 q 134 140 108 114 q 199 167 160 167 q 263 140 238 167 q 289 76 289 114 q 263 13 289 39 q 199 -14 238 -14 z "},",":{"ha":421,"x_min":108,"x_max":313,"o":"m 108 -171 l 208 -10 q 152 18 175 -7 q 129 79 129 43 q 157 143 129 119 q 219 167 185 167 q 285 143 258 167 q 313 76 313 119 q 283 -12 313 38 q 188 -157 253 -62 l 178 -171 l 108 -171 z "},":":{"ha":397,"x_min":108,"x_max":289,"o":"m 199 569 q 134 597 160 569 q 108 660 108 624 q 134 724 108 697 q 199 750 160 750 q 263 724 238 750 q 289 660 289 697 q 263 596 289 622 q 199 569 238 569 m 199 -14 q 134 13 160 -14 q 108 76 108 40 q 134 140 108 114 q 199 167 160 167 q 263 140 238 167 q 289 76 289 114 q 263 13 289 39 q 199 -14 238 -14 z "},";":{"ha":421,"x_min":108,"x_max":313,"o":"m 210 569 q 145 597 171 569 q 119 660 119 624 q 145 724 119 697 q 210 750 171 750 q 274 724 249 750 q 300 660 300 697 q 274 596 300 622 q 210 569 249 569 m 108 -168 l 208 -7 q 152 21 175 -4 q 129 82 129 46 q 157 146 129 122 q 219 169 185 169 q 285 146 258 169 q 313 79 313 122 q 283 -10 313 40 q 188 -154 253 -60 l 178 -168 l 108 -168 z "},"…":{"ha":1008,"x_min":94,"x_max":949,"o":"m 518 -14 q 453 13 479 -14 q 428 76 428 40 q 453 140 428 114 q 518 167 479 167 q 583 140 557 167 q 608 76 608 114 q 583 13 608 39 q 518 -14 557 -14 m 858 -14 q 794 13 819 -14 q 768 76 768 40 q 794 140 768 114 q 858 167 819 167 q 923 140 897 167 q 949 76 949 114 q 923 13 949 39 q 858 -14 897 -14 m 185 -14 q 120 13 146 -14 q 94 76 94 40 q 120 140 94 114 q 185 167 146 167 q 249 140 224 167 q 275 76 275 114 q 249 13 275 39 q 185 -14 224 -14 z "},"!":{"ha":389,"x_min":108,"x_max":281,"o":"m 133 267 l 128 1028 l 260 1028 l 251 267 l 133 267 m 194 -12 q 133 13 157 -12 q 108 72 108 38 q 133 133 108 108 q 194 158 157 158 q 256 133 231 158 q 281 72 281 108 q 256 13 281 38 q 194 -12 231 -12 z "},"¡":{"ha":389,"x_min":108,"x_max":281,"o":"m 194 742 q 256 716 231 742 q 281 656 281 690 q 256 594 281 619 q 194 569 231 569 q 133 594 157 569 q 108 656 108 619 q 133 716 108 690 q 194 742 157 742 m 128 -300 l 133 461 l 251 461 l 260 -300 l 128 -300 z "},"?":{"ha":796,"x_min":69,"x_max":726,"o":"m 317 263 l 317 311 q 344 426 317 379 q 413 508 372 472 q 495 578 454 544 q 564 652 536 613 q 592 747 592 692 q 564 842 592 803 q 492 901 536 881 q 397 921 449 921 q 302 899 347 921 q 228 832 257 878 q 200 715 200 786 l 69 715 q 118 899 69 826 q 242 1006 167 971 q 401 1042 318 1042 q 562 1007 488 1042 q 681 907 636 972 q 726 750 726 842 q 699 626 726 678 q 629 535 671 574 q 546 463 588 496 q 476 393 504 429 q 449 311 449 357 l 449 263 l 317 263 m 385 -14 q 323 12 347 -14 q 299 72 299 38 q 323 133 299 108 q 385 158 347 158 q 446 133 421 158 q 471 72 471 108 q 446 12 471 38 q 385 -14 421 -14 z "},"¿":{"ha":796,"x_min":69,"x_max":726,"o":"m 411 747 q 473 722 449 747 q 497 661 497 696 q 473 601 497 626 q 411 575 449 575 q 350 601 375 575 q 325 661 325 626 q 350 722 325 697 q 411 747 375 747 m 394 -308 q 234 -274 308 -308 q 115 -174 160 -239 q 69 -17 69 -108 q 97 108 69 56 q 167 199 125 160 q 250 271 208 238 q 319 340 292 304 q 347 422 347 376 l 347 471 l 479 471 l 479 422 q 451 308 479 354 q 383 225 424 261 q 301 155 342 189 q 232 81 260 121 q 204 -14 204 42 q 232 -108 204 -69 q 304 -167 260 -147 q 399 -187 349 -187 q 494 -165 449 -187 q 567 -98 539 -143 q 596 18 596 -53 l 726 18 q 678 -165 726 -92 q 554 -273 631 -237 q 394 -308 478 -308 z "},"·":{"ha":354,"x_min":128,"x_max":308,"o":"m 218 456 q 153 483 179 456 q 128 546 128 510 q 153 610 128 583 q 218 636 179 636 q 283 610 257 636 q 308 546 308 583 q 283 482 308 508 q 218 456 257 456 z "},"•":{"ha":768,"x_min":164,"x_max":604,"o":"m 385 335 q 271 365 321 335 q 192 446 221 396 q 164 556 164 496 q 192 666 164 617 q 271 745 221 715 q 385 775 321 775 q 497 745 447 775 q 576 666 547 715 q 604 556 604 617 q 576 444 604 494 q 497 365 547 394 q 385 335 447 335 z "},"*":{"ha":690,"x_min":56,"x_max":635,"o":"m 219 478 l 133 539 l 264 714 l 56 779 l 88 881 l 294 810 l 292 1028 l 397 1028 l 396 810 l 603 881 l 635 779 l 428 714 l 557 539 l 471 478 l 344 654 l 219 478 z "},"#":{"ha":1121,"x_min":67,"x_max":1054,"o":"m 226 0 l 283 283 l 67 283 l 93 406 l 308 406 l 351 624 l 139 624 l 165 746 l 376 746 l 433 1028 l 556 1028 l 499 746 l 717 746 l 774 1028 l 896 1028 l 839 746 l 1054 746 l 1028 624 l 814 624 l 771 406 l 982 406 l 956 283 l 746 283 l 689 0 l 567 0 l 624 283 l 406 283 l 349 0 l 226 0 m 431 406 l 649 406 l 692 624 l 474 624 l 431 406 z "},"/":{"ha":699,"x_min":56,"x_max":664,"o":"m 56 -210 l 538 1144 l 664 1144 l 182 -210 l 56 -210 z "},"\\":{"ha":674,"x_min":10,"x_max":618,"o":"m 618 -210 l 492 -210 l 10 1144 l 136 1144 l 618 -210 z "},"-":{"ha":844,"x_min":164,"x_max":681,"o":"m 164 379 l 164 490 l 681 490 l 681 379 l 164 379 z "},"­":{"ha":833,"x_min":164,"x_max":681,"o":"m 164 379 l 164 490 l 681 490 l 681 379 l 164 379 z "},"–":{"ha":947,"x_min":164,"x_max":783,"o":"m 164 379 l 164 490 l 783 490 l 783 379 l 164 379 z "}}}
